<svg width="84" height="61" viewBox="0 0 84 61" fill="none" xmlns="http://www.w3.org/2000/svg">
<path fill-rule="evenodd" clip-rule="evenodd" d="M10.5604 17.6195C8.85177 20.0891 7.30006 22.1537 6.37246 25.8143C5.78064 28.1497 4.94706 35.0331 6.19214 36.9697L10.0888 27.8948C11.3757 24.4865 13.8561 21.9295 16.4203 20.3298C18.2189 19.2076 25.0421 16.5987 27.6194 17.7101C28.8788 18.253 29.6598 19.3021 32.4495 19.9171C34.449 20.3579 37.4124 19.9841 38.8343 20.5945C40.7947 21.436 41.2299 23.2262 42.9542 23.5542C45.0163 23.9464 46.9007 22.1341 46.8752 20.3868C44.6514 18.8813 37.8019 19.0473 39.3344 13.798C40.5204 9.73632 42.4433 6.47185 45.0577 4.63457C53.6513 -1.40512 67.7876 2.86228 70.2429 1.2089C65.5989 -0.200701 46.9952 -0.436817 41.2085 0.814995C37.9422 1.52164 38.8789 4.36553 33.7065 8.83329C31.4207 10.8076 32.036 10.876 28.4119 9.91227C26.4229 9.38328 23.9456 8.75582 21.8655 8.42917L24.8412 13.9595C22.4048 14.7705 16.7678 15.4091 13.544 16.0394C11.5948 16.4205 11.5134 16.6044 10.5604 17.6192V17.6195Z" fill="#67420E"/>
<path fill-rule="evenodd" clip-rule="evenodd" d="M3.29522 48.4224C2.17243 50.0276 1.15273 51.3696 0.543169 53.7491C0.154258 55.267 -0.393523 59.7412 0.424674 61L2.98537 55.1014C3.83098 52.8859 5.46099 51.2239 7.14602 50.1841C8.32797 49.4547 12.8118 47.7589 14.5055 48.4813C15.3331 48.8341 15.8463 49.5161 17.6795 49.9159C18.9934 50.2023 20.9408 49.9594 21.8753 50.3562C23.1635 50.9031 23.4495 52.0667 24.5826 52.28C25.9377 52.5349 27.176 51.3569 27.1593 50.2211C25.6979 49.2426 21.1968 49.3505 22.2039 45.9384C22.9832 43.2983 24.2468 41.1764 25.9649 39.9822C31.6121 36.0564 40.9017 38.8302 42.5152 37.7555C39.4634 36.8393 27.2381 36.6858 23.4354 37.4995C21.289 37.9588 21.9046 39.8073 18.5056 42.7114C17.0034 43.9947 17.4078 44.0392 15.0262 43.4127C13.7192 43.0689 12.0913 42.661 10.7243 42.4487L12.6798 46.0434C11.0787 46.5706 7.37437 46.9856 5.25592 47.3953C3.97502 47.6431 3.9215 47.7626 3.29522 48.4222V48.4224Z" fill="#67420E"/>
<path fill-rule="evenodd" clip-rule="evenodd" d="M54.1934 17.1712C53.3635 18.2825 52.6098 19.2116 52.1593 20.8589C51.8718 21.9098 51.4669 25.0073 52.0717 25.8788L53.9644 21.7951C54.5894 20.2613 55.7942 19.1107 57.0397 18.3908C57.9133 17.8859 61.2274 16.7119 62.4793 17.212C63.0909 17.4563 63.4703 17.9284 64.8253 18.2051C65.7964 18.4035 67.2358 18.2353 67.9265 18.51C68.8787 18.8886 69.09 19.6942 69.9276 19.8418C70.9292 20.0183 71.8444 19.2028 71.8321 18.4165C70.7519 17.739 67.425 17.8137 68.1694 15.4515C68.7454 13.6238 69.6794 12.1548 70.9493 11.328C75.1233 8.61013 81.9895 10.5305 83.1821 9.78644C80.9264 9.15212 71.8903 9.04586 69.0796 9.60918C67.4931 9.92717 67.9481 11.2069 65.4358 13.2174C64.3256 14.1059 64.6244 14.1366 62.8641 13.703C61.8981 13.4649 60.6948 13.1825 59.6845 13.0356L61.1298 15.5242C59.9464 15.8892 57.2084 16.1765 55.6426 16.4601C54.6959 16.6317 54.6563 16.7144 54.1934 17.1711V17.1712Z" fill="#67420E"/>
</svg>
