<svg width="535" height="171" viewBox="0 0 535 171" fill="none" xmlns="http://www.w3.org/2000/svg">
<path fill-rule="evenodd" clip-rule="evenodd" d="M6.92364 73.9003C7.91445 73.732 7.644 75.3234 7.53109 76.1665C8.96236 74.6309 9.08514 74.3528 12.0134 73.7766C16.8562 72.8232 25.3245 71.8573 28.9847 70.6303L24.5144 62.2646C27.6393 62.7583 31.3608 63.7079 34.3487 64.5081C39.7931 65.966 38.8692 65.8626 42.3027 62.876C50.073 56.1176 48.6657 51.8156 53.5726 50.7467C62.2658 48.853 90.2134 49.2102 97.1899 51.3425C93.5014 53.8436 72.265 47.3883 59.3552 56.5245C55.4276 59.3038 52.5388 64.2424 50.7573 70.3861C48.455 78.3267 58.7443 78.0752 62.0855 80.353C62.1242 82.9962 59.2934 85.7377 56.1952 85.1444C53.6048 84.6481 52.9514 81.9401 50.006 80.6673C47.8694 79.7438 43.418 80.3092 40.4143 79.6425C36.2239 78.7122 35.0502 77.1251 33.1583 76.3039C29.2865 74.6228 19.0366 78.5693 16.3342 80.2667C12.4822 82.6862 8.7563 86.5546 6.82275 91.7105C6.86654 91.7749 6.91505 91.8045 6.92836 91.9191C6.96356 92.2312 7.42849 92.348 7.25248 95.0092L8.5189 101.642C12.7642 101.356 14.2706 100.188 17.6595 103.089C21.8687 98.5328 22.2495 95.3058 30.6092 96.7856C31.0552 95.1006 32.4268 93.7479 33.8078 93.0541C35.0142 92.4484 37.0743 91.9822 38.4133 92.1973C40.2168 92.4866 39.4874 92.1827 39.4634 92.9035C42.1525 92.4355 44.0319 93.6642 45.1854 96.0596C49.8557 94.3455 52.8252 92.521 58.3082 95.141C62.1903 96.9959 64.2037 99.9671 64.2221 105.765C72.8372 104.523 74.915 105.517 78.0085 111.888C82.939 110.86 83.021 112.204 85.301 115.264C90.7839 112.239 98.9547 109.304 102.579 116.857C106.166 116.507 107.728 118.507 107.745 122.011C109.968 122.475 113.02 124.477 114.159 124.492C115.714 124.513 116.476 123.724 118.322 124.36C119.554 124.785 119.841 125.637 120.817 126.34C123.204 124.429 127.594 126.75 127.08 130.023C129.476 129.533 133.039 128.434 134.976 127.372C128.109 124.473 122.732 121.413 118.509 115.441C117.707 114.308 117.692 113.826 116.672 113.418C116.443 113.841 116.539 113.519 116.448 114.2L116.639 116.685C116.77 117.833 116.892 118.923 116.97 120.08C115.516 119.516 114.949 118.964 114.335 117.422L113.149 113.9C113.128 113.851 113.057 113.801 113.041 113.687C113.025 113.571 112.97 113.541 112.928 113.472C112.102 114.891 111.881 117.988 110.744 119.004C109.989 118.081 110.699 113.425 110.747 111.857L108.707 114.616C108.002 115.611 107.416 116.52 106.683 117.287C106.433 115.736 106.309 114.195 106.846 112.753C107.113 112.035 107.402 111.666 107.815 111.207C108.581 110.355 108.625 110.894 108.714 109.944C107.709 109.298 105.02 110.849 103.598 111.321C103.765 108.567 105.457 108.54 106.887 107.079L104.347 106.822C104.513 104.891 107.009 104.716 108.99 104.491C108.933 104.431 108.853 104.356 108.811 104.32C107.946 103.576 106.819 103.184 106.117 102.299C107.586 100.584 109.123 102.048 111.072 102.471C111.213 101.722 111.379 101.032 111.599 100.351L112.389 98.7702C112.826 100.096 113.582 102.85 114.494 103.807C115.503 102.733 117.246 100.787 118.543 99.983C119.038 100.93 118.443 101.657 118.198 102.704L124.457 102.718C123.611 103.248 122.657 103.662 121.62 104.131C120.384 104.691 119.331 104.723 118.925 105.731C121.086 107.319 123.484 104.846 125.473 108.306L119.271 108.339C119.909 109.955 121.871 111.345 122.623 113.202C121.478 113.069 121.087 112.831 120.025 112.351C117.748 111.323 118.252 111.671 117.914 112.024C117.298 113.055 118.226 113.095 119.133 114.181C120.896 116.291 122.787 118.463 125.306 120.177C127.681 121.792 132.872 124.604 135.752 125.652C138.569 126.677 140.32 125.885 142.981 125.55C145.046 125.29 148.407 125.695 149.141 123.881C150.173 121.331 149.016 112.834 147.245 110.321C147.203 110.398 147.173 110.506 147.159 110.569C147.144 110.631 147.098 110.743 147.083 110.821L147.164 113.558C147.033 115.874 147.441 111.784 147.085 114.07L146.158 113.346C145.949 112.94 145.872 112.731 145.648 112.306C145.252 111.552 144.875 110.822 144.519 110.22C144.06 111.089 143.589 113.847 142.507 114.341L142.968 108.463C140.752 108.638 141.852 108.885 141.006 110.218C139.034 107.709 141.778 106.676 143.564 105.888L140.398 105.107C141.722 103.098 143.079 104.389 145.307 104.424C146.338 102.542 145.694 101.403 148.025 101.532C148.028 102.716 147.2 103.499 146.811 104.816C149.683 103.927 149.909 103.04 152.588 104.712C151.825 105.393 150.497 105.43 149.531 105.802C150.593 106.634 152.001 106.981 152.723 108.025L147.277 107.659C148.244 110.378 149.279 112.219 149.975 115.463C150.75 119.074 150.249 121.899 150.704 125.073C153.607 125.848 158.206 124.482 160.572 123.422C164.364 121.722 170.78 100.254 169.707 97.5918C168.81 97.8404 169.316 97.1363 168.703 98.7943C168.122 100.365 167.932 102.52 166.71 103.747C166.593 102.321 166.567 99.8873 165.863 99.0081C164.749 100.036 164.47 102.097 163.467 103.511C162.664 102.621 162.622 100.705 162.992 99.3292C163.331 98.0683 163.821 97.0882 164.076 95.7587L160.124 99.1781C160.193 97.8258 160.56 96.8328 161.194 95.9768C161.748 95.2294 161.679 95.4522 162.328 94.8619C164.735 92.6717 160.451 94.6983 159.879 94.9744C158.683 95.5522 157.794 96.0047 156.555 96.4087C157.199 93.917 158.721 93.2516 159.707 90.7381C161.136 87.0972 160.351 87.0745 165.089 87.4046C164.057 85.1384 161.729 85.6844 159.819 86.5529C161.379 82.1397 165.229 83.5487 167.676 85.9201C167.813 86.0528 168.03 86.249 168.18 86.3653C168.653 86.7332 168.211 86.4675 168.771 86.7354C172.001 83.3362 171.017 79.4403 170.334 74.2377C169.255 66.0154 166.922 57.9421 163.379 50.5942C162.539 48.8539 161.644 47.3153 160.788 45.6969C160.328 44.828 159.946 44.1561 159.496 43.2555C158.865 41.9912 159.065 41.4262 157.891 41.218C158.094 42.056 158.946 43.5594 159.38 44.3137C160.045 45.4693 160.826 46.0845 160.26 46.9667C159.026 45.9519 155.879 41.1017 154.859 39.3557C155.275 41.8748 156.919 44.4609 158.187 46.1184C159.102 47.3144 159.422 47.6695 160.495 48.7998C161.222 49.5661 162.324 50.4161 162.702 51.3069C161.353 51.4983 160.635 49.9945 159.136 49.3334C159.147 50.5586 160.521 52.3393 161.031 53.7753C159.984 53.2125 160.014 52.9708 159.391 52.083C158.569 50.9124 156.706 47.6222 155.354 47.2964C156.552 50.7917 159.985 54.0114 161.348 57.4995C160.081 57.0551 161.157 57.7004 160.14 56.6319C160.04 56.5275 159.429 55.775 159.301 55.6166C158.538 54.6764 155.725 50.5483 154.664 50.3899L154.861 51.2996C156.17 53.2297 157.503 54.1943 158.539 56.6954C159.137 58.14 159.529 59.3974 159.233 61.0012C158.704 63.8732 159.211 62.6016 160.13 64.9881C159.353 64.5515 158.653 63.4757 158.092 62.7532C157.334 61.7774 157.196 61.513 156.492 60.6037C155.953 59.9078 153.635 56.6963 153.249 56.7774C152.958 57.2243 152.652 56.3374 153.409 57.724L158.657 65.6007C156.859 65.9755 158.252 65.201 157.292 66.6555C156.609 65.9364 153.554 63.2203 152.526 62.8627C153.274 65.2268 156.394 68.2731 156.91 70.4578C155.802 70.1422 155.031 68.7513 154.258 67.8249C153.342 66.7272 152.889 65.5934 151.523 65.3843C151.996 66.7117 152.8 67.496 153.534 68.5517C154.167 69.4622 154.706 70.3238 155.27 71.3365L152.935 69.9503C154.033 72.0238 156.77 73.8045 157.523 75.7604C156.041 75.371 154.007 72.8562 152.548 71.8311C152.809 72.7601 154.006 74.0737 154.656 74.922C155.333 75.8072 156.548 76.9474 156.354 77.727C155.56 77.818 155.762 77.326 154.747 76.6748L155.935 81.8148C154.889 81.3078 154.711 80.9373 153.706 80.5569L155.647 84.5065C154.014 83.6208 153.025 80.1963 151.888 80.4062C151.871 80.4591 151.872 80.5458 151.874 80.5715C151.877 80.5969 151.869 80.7059 151.875 80.7377C152.179 82.3875 154.655 84.4592 155.298 86.1395C154.114 85.7153 153.764 85.0538 152.402 84.3944C153.212 85.9751 155.267 87.9112 155.542 89.0634C153.977 88.8702 153.747 87.2127 152.235 86.9384C152.982 88.9351 154.788 89.9529 155.44 92.0251C153.937 91.3138 154.172 89.9345 152.704 89.9564L154.453 94.8933C153.671 94.5253 153.419 94.0398 152.86 93.234C152.537 92.7695 151.995 92.1672 151.789 91.8646C151.54 93.2323 151.585 95.3818 150.88 96.3091L150.136 92.7463C149.485 93.5397 149.189 94.5352 148.267 95.0937L149.818 88.8252C148.616 89.5215 149.597 88.9853 148.774 89.7932L147.647 90.5775L150.111 84.8336C148.517 85.5329 148.387 87.4853 146.588 88.3392C147.303 86.3954 148.748 84.6176 149.102 82.7064C147.221 83.4989 146.863 85.5496 145.161 85.6664C146.161 83.4736 148.845 80.9102 149.503 78.8428C147.399 79.4961 147.563 80.9914 145.234 81.8251C145.984 79.8155 147.967 78.7299 148.427 77.1114C146.54 77.1964 145.28 81.373 143.268 81.9929L145.35 77.982C144.067 78.6942 143.836 79.5889 142.664 80.0362C142.974 78.1872 145.832 75.4062 146.362 73.2714C145.462 73.8397 145.612 73.8668 145.013 74.8215C144.73 75.2727 144.535 75.772 144.19 75.8566C141.636 75.5569 147.075 71.2232 147.638 69.1651L147.65 68.8123C146.631 68.5757 146.67 69.2974 145.816 70.2933C144.322 72.0337 142.768 74.476 141.11 75.7325C141.686 70.875 145.534 69.3038 147.161 65.9257C145.637 67.2222 142.499 70.3221 140.676 70.8974C141.286 69.3274 146.568 64.734 146.277 63.9943C145.733 63.3396 142.438 66.9526 140.78 67.2698C140.989 65.5827 145.978 62.5055 146.875 60.5522C144.663 61.4636 142.297 64.2965 140.124 65.4333C141.012 61.1871 145.684 60.1487 146.986 57.238C144.579 57.8953 140.032 62.414 138.328 62.5845C139.106 61.3923 139.768 60.1555 140.873 59.1093C142.013 58.0301 143.012 57.3157 143.745 55.8604C142.235 56.6134 140.377 58.0056 138.956 58.4877C138.886 57.4192 139.901 57.0144 140.652 56.3923L146.799 51.2172C145.547 51.1442 142.449 53.328 141.055 53.8702C142.589 51.112 145.369 50.1705 147.594 48.0099L147.924 47.6497C145.93 48.1022 142.195 50.3444 140.516 50.1199C141.779 48.6199 145.826 46.7254 146.599 45.1319L139.739 48.6367C141.016 45.8699 144.778 44.6623 146.885 42.4561L141.452 44.1497C142.076 42.0581 148.322 40.6509 148.407 38.3851C146.742 38.4821 143.461 41.0725 141.567 41.716C142.503 39.846 146.166 37.636 146.854 35.9171C145.332 36.5602 143.704 38.4379 142.321 38.5826C142.789 37.2402 143.742 36.6559 144.717 35.5088C145.592 34.4798 146.755 33.4177 147.234 32.2509C145.541 33.2035 142.064 36.8486 140.814 36.9757C141.668 34.782 144.199 33.2142 144.915 31.1673C144.493 29.3016 140.497 24.3364 139.46 23.6289C140.5 26.1407 143.034 29.4626 143.674 31.877C142.216 31.3867 142.101 29.8069 141 28.8298L140.79 32.1667C140.735 32.0998 140.666 32.0285 140.609 31.9547C140.207 31.4314 140.758 32.2436 140.322 31.5335L139.039 28.6749C138.461 31.1652 140.293 34.6464 138.405 36.9397C137.699 31.6774 136.69 29.2214 134.148 25.6307L137.396 41.23C135.982 40.1388 134.965 36.3751 134.29 34.7618C133.691 33.331 132.47 29.3403 131.297 28.3361C131.751 30.441 135.128 40.7162 134.768 41.695C133.871 41.5164 134.689 41.9512 134.03 41.2476C132.951 40.0963 131.781 36.9461 131.065 35.5062C130.066 33.4984 129.307 31.3275 128.042 29.4682L127.593 28.9342C126.641 30.3156 129.526 34.5347 130.219 35.7136C131.616 38.0885 132.563 40.4766 132.37 43.7697L131.322 42.0856C131.102 41.5666 130.932 41.1283 130.665 40.5638C130.154 39.4832 129.779 38.4203 129.152 37.6858L129.81 42.3488C130.064 43.5577 130.571 44.9082 130.582 46.1914C130.59 47.1556 130.744 46.4443 130.4 47.0084C128.692 45.1864 126.115 35.7647 124.541 34.3858C124.701 37.3814 126.749 42.1071 127.67 45.1246C128.019 46.2695 128.801 47.7807 128.216 48.6521C127.441 48.0069 127.223 46.5297 126.919 45.5676C126.032 42.7639 124.609 39.3823 122.723 37.4896C123.513 42.7673 128.355 47.6128 127.674 53.0103C126.441 51.8693 125.672 49.6425 124.825 47.9854C124.327 47.0122 124.063 46.355 123.61 45.4298C123.053 44.2926 122.909 43.6208 121.97 43.2825C122.248 44.743 126.288 56.2124 125.72 57.3745C124.986 56.7701 124.588 55.4462 123.786 53.6916L119.718 44.3411C119.179 43.0434 119.473 43.2735 118.516 43.1026C117.962 44.1037 120.322 48.5499 120.738 49.567C121.612 51.7006 122.599 53.9084 123.413 56.0188C122.827 55.9261 122.594 55.5187 122.251 54.9263C121.941 54.3927 121.84 54.1402 121.462 53.5182C120.83 52.4793 120.485 51.8654 119.852 50.7595C119.267 49.7365 118.698 48.8277 118.121 47.8146L116.833 45.6762C116.537 45.3186 116.627 45.4337 116.361 45.2186C116.069 45.7651 115.975 45.0284 116.297 46.2064C117.328 49.9675 121.935 53.8041 122.69 59.691L120.707 57.0852C120.168 56.2579 119.672 55.5024 119.102 54.6318C118.257 53.34 116.945 50.283 115.339 50.2199C115.691 53.7165 121.152 57.8704 121.687 64.014L116.541 57.1912C115.934 56.3176 115.525 55.5938 114.671 55.1366C115.67 58.7397 119.536 63.3138 120.516 66.8049C119.284 66.482 120.079 66.8946 119.273 65.9918L116.928 62.7266C116.382 61.9787 115.855 61.3653 115.308 60.6114C114.685 59.7516 114.469 59.008 113.553 58.6856C113.065 59.6515 114.276 60.9652 114.775 61.768C115.43 62.8236 116.082 63.7994 116.691 64.8357C117.823 66.7619 119.223 69.409 119.524 72.1251C116.728 69.858 115.261 65.4685 112.387 63.4139C112.409 64.4914 115.011 70.2702 115.591 71.5855C114.054 71.6838 113.462 68.1275 112.237 67.4759L116.425 78.3624C115.063 77.7129 113.185 73.9282 112.703 72.4398L112.469 73.7092C112.473 73.7496 112.697 74.6082 112.729 74.7241C112.927 75.4509 113.116 76.2288 113.297 76.9818C113.57 78.119 114.565 80.5007 113.772 81.4615C113.063 78.9342 111.504 76.1202 110.394 73.6337C109.297 71.1773 110.134 71.7701 108.643 71.4112L110.553 83.8677C109.5 83.4328 110.309 84.4116 109.609 82.8335C109.548 82.6974 109.326 81.9092 109.244 81.6439C108.979 80.8003 108.731 80.1092 108.471 79.3C108.015 77.8798 107.711 75.7411 106.603 74.7095C106.958 77.9249 107.897 81.1897 108.097 84.4047C108.151 85.2783 108.171 84.1197 108.06 85.062C108.056 85.0984 108.008 85.2835 108.004 85.2448C108 85.2066 107.967 85.3663 107.937 85.4221C106.763 83.5749 106.546 79.4249 105.13 78.0018C105.26 79.9057 105.785 82.2033 106.122 84.1501C106.302 85.186 106.499 86.3219 106.688 87.3484C106.916 88.5921 107.26 89.3699 106.69 90.1186C105.689 88.8063 105.282 85.8308 104.599 84.2609C103.784 84.9246 103.989 84.9791 103.696 86.1854C103.309 87.7781 102.964 91.2254 101.698 92.0646C101.239 91.1167 101.479 91.8865 101.495 90.9841C101.543 88.2422 102.868 85.1478 102.214 82.4772C101.62 83.167 101.409 83.9445 101.035 84.7928C100.674 85.6106 100.46 86.5078 99.5896 86.6448C99.9936 84.7516 101.61 80.6462 101.556 79.0424C100.52 80.2757 99.6643 82.287 98.6941 83.1907C98.4279 77.9172 102.484 77.1591 103.174 73.6831C102.142 73.7788 102.517 73.7273 101.781 74.6039L98.3777 78.1881C99.0985 73.4195 104.897 70.3431 104.675 68.4336C103.804 68.5865 103.981 68.8337 103.288 69.5661C102.752 70.1323 102.362 70.3805 101.854 70.9338C100.939 71.9285 100.398 73.0164 99.2509 73.6624C99.463 71.2627 100.5 70.3809 101.709 69.2325C105.051 66.0605 105.091 64.2961 102.981 66.7452C101.644 68.2967 99.9618 69.9289 98.1446 70.9935C100.02 66.5748 104.769 64.2149 105.821 61.9543C103.576 62.7038 100.241 66.0875 98.2416 66.4344C99.1994 63.6453 104.364 60.514 106.987 58.6101C108.231 57.7077 107.721 58.4504 107.926 57.2934L101.309 60.5835C103.046 57.2771 108.522 55.5921 110.189 52.2707C105.092 53.0043 103.009 58.3885 99.6553 59.9851C100.241 58.2881 102.415 55.7634 103.562 54.5627C105.047 53.0086 106.612 51.7044 107.816 50.0293L105.289 50.9789C106.119 49.257 112.587 46.5808 112.714 45.2135C111.413 44.6043 106.448 48.3752 104.89 48.5959C104.94 47.2857 105.87 47.2681 107.012 46.461L112.114 42.8296C113.469 41.8615 113.883 42.1144 114.163 40.8381C112.69 40.1701 107.429 44.1136 105.267 43.8449L107.272 42.0375C108.097 41.3644 108.393 40.9995 109.33 40.362C110.424 39.618 113.41 38.4336 114.078 37.4063C113.024 36.865 107.473 40.2281 105.658 40.6552C105.961 39.6442 105.473 40.1525 106.682 39.2583C108.312 38.0532 114.001 34.952 114.401 33.4306L109.152 35.6294C110.21 32.7755 113.056 31.4902 115.376 29.6755L111.911 30.866C112.918 28.5598 114.612 27.317 114.351 24.0891C113.024 24.6262 111.035 27.3269 109.86 28.2735L111.456 17.7132C109.883 19.1548 108.091 26.3352 106.691 28.4641C106.654 28.3898 106.627 28.2816 106.616 28.2267L107.072 24.3798C107.322 23.0897 107.675 21.531 107.846 20.2302C107.085 20.4959 106.798 21.1188 106.128 22.1822C105.659 22.9257 105.417 23.6461 104.633 23.8659C104.956 22.7454 105.717 21.2687 106.24 20.101C106.712 19.0483 107.946 17.4711 107.319 16.5975C106.039 18.2232 102.991 24.9271 101.387 25.9973C100.774 24.6463 103.32 19.1278 103.607 17.6089C102.769 18.2069 98.124 25.4659 97.468 26.6567C97.6106 23.2451 99.6613 20.8763 100.374 18.3147C95.7504 21.5773 94.2496 28.2078 92.6518 29.4467C91.9404 28.1425 94.63 23.8354 94.3028 22.1513C92.7389 23.2546 92.3783 26.0703 91.2656 27.5866C90.8904 25.9295 93.3773 21.6752 93.9238 19.8297C92.3062 20.775 91.2476 22.5325 90.3585 24.193C89.4969 25.802 88.9556 27.8176 87.9974 29.2754C88.0918 27.3406 89.8605 23.1545 89.5454 22.2075C88.3477 22.9588 86.9387 27.6643 86.029 29.1801C85.5989 27.9807 86.4558 26.0042 86.2583 24.7052L86.1003 24.2179C85.6646 24.5652 86.011 24.1939 85.6276 24.7494C83.8529 27.3196 83.5293 31.1695 81.7327 33.644C80.814 32.2389 83.054 27.6265 82.8145 25.5981L81.8151 26.2639C80.6023 28.1743 78.3146 33.2889 76.8331 34.1952C77.1461 32.3157 78.5378 29.6747 78.1824 27.8781C77.1302 28.3662 75.0743 32.6145 74.3003 34.0243L72.9239 35.9338C73.16 34.3089 74.4089 31.0974 73.9384 29.9928C71.4124 32.0229 70.4199 37.5501 67.9544 39.9945L69.475 34.3523C68.0501 35.1525 67.966 37.3762 66.5721 38.2709L67.7016 34.157C65.5143 35.0877 64.086 37.5819 62.0744 38.911C62.9699 34.7335 67.7076 32.4501 68.9916 29.8434L66.8601 30.7492C67.866 29.3033 69.3161 28.3104 71.3424 27.3239C72.8917 26.5696 75.6813 25.568 76.7885 24.6163C75.7865 24.0471 70.0648 27.1217 68.8422 27.4608C70.1017 24.7206 78.2257 21.8813 82.1753 20.3774L95.9436 14.3321L88.2081 16.4644C93.4683 11.9134 103.097 12.3217 110.076 9.4407C105.022 8.45547 102.206 10.3654 98.0077 10.8655C99.5948 9.60641 104.369 8.78002 104.968 7.77031L104.261 7.60031C104.185 7.5943 104.095 7.58915 104.014 7.58872L101.629 7.99483C99.7502 8.33569 94.2784 9.71459 92.6625 9.52441C91.8906 9.43383 92.5011 9.60169 92.0263 9.29131C93.1133 8.93928 94.4089 8.29577 95.4903 7.7995C96.5648 7.30624 97.9021 6.94778 98.7199 6.09477C92.8098 6.21626 90.9367 8.30693 86.8009 9.93182C87.5831 7.332 92.423 5.00694 95.3186 4.17883C89.2844 4.16809 89.8545 4.82921 89.8536 3.04463L89.8438 2.62821C77.8557 2.38866 67.3371 4.95757 57.5161 9.13848C52.7921 11.1497 48.8014 13.1708 44.7613 15.7209C36.5897 20.8788 35.2893 22.7789 28.989 28.6457C24.5067 32.8197 20.1262 40.116 17.1057 45.4582C13.688 51.5022 10.546 59.3137 9.01044 66.3803C8.3064 69.6202 7.80412 71.1283 6.92493 73.899L6.92364 73.9003Z" fill="#E6BCA4"/>
<path fill-rule="evenodd" clip-rule="evenodd" d="M68.9944 164.521L109.324 164.524C104.942 165.839 105.896 166.074 99.9654 166.786C92.7507 167.652 73.4586 168.048 68.9944 164.521ZM99.8276 161.511L61.4555 161.59C58.3281 161.59 56.7045 160.898 54.3326 159.651C53.0332 158.968 48.9132 157.46 48.4311 156.299C50.8214 155.985 121.864 156.011 128.886 156.208C126.427 158.598 120.069 161.266 116.983 161.573C112.084 162.061 104.992 161.511 99.8276 161.511V161.511ZM124.785 153.711L45.5449 153.791C43.392 153.791 42.5313 152.808 41.1945 151.88L38.4573 149.95C37.4768 149.1 37.9563 149.999 37.618 148.666L139.807 148.664C138.958 150.238 136.544 152.434 134.295 153.309C132.096 154.164 127.377 153.711 124.785 153.711V153.711ZM31.4087 143.381L146.407 143.288C145.426 144.269 145.081 145.829 142.523 146.552C140.407 147.151 53.8638 146.706 43.049 146.783C41.0507 146.798 37.3437 147.026 35.608 146.551C32.9262 145.816 32.4836 144.321 31.4087 143.381ZM27.8314 139.232H150.055C149.756 141.628 147.292 141.643 144.753 141.628L41.1773 141.565C38.5792 141.565 35.9747 141.547 33.3774 141.567C30.5316 141.589 28.3903 141.8 27.8318 139.232H27.8314ZM158.908 62.2645L153.531 54.5282C152.084 52.6479 152.067 53.3919 152.025 52.1611C153.897 52.2461 155.548 54.5664 156.515 55.9062C157.782 57.6616 158.759 59.4711 158.908 62.2645ZM148.353 28.3614C147.447 29.3968 147.048 29.9897 145.734 30.6332L144.014 26.09L148.353 28.3618V28.3614ZM115.708 24.2315C115.696 23.798 116.945 22.3182 117.922 21.6944C118.449 22.7136 118.722 23.2025 117.85 23.9117C115.753 25.6169 115.718 24.2388 115.708 24.2315ZM6.92596 73.8997C7.80473 71.1291 8.307 69.6209 9.01148 66.3811C10.5471 59.3149 13.6891 51.5034 17.1067 45.4589C20.1277 40.1163 24.5078 32.82 28.99 28.6464C35.2904 22.7797 36.5903 20.8796 44.7623 15.7216C48.8024 13.1716 52.7936 11.1501 57.5171 9.13923C67.3377 4.95832 77.8563 2.38942 89.8448 2.62897L89.8547 3.04538C89.8551 4.82996 89.2854 4.16885 95.3196 4.17958C92.424 5.00769 87.5841 7.33276 86.802 9.93257C90.9378 8.30726 92.8108 6.21702 98.7209 6.09553C97.9031 6.94897 96.5659 7.30743 95.4913 7.80026C94.4099 8.29653 93.1143 8.94004 92.0273 9.29206C92.5021 9.60244 91.8917 9.43459 92.6636 9.52517C94.2794 9.71492 99.7517 8.33602 101.63 7.99559L104.015 7.58948C104.096 7.5899 104.186 7.59506 104.262 7.60107L104.969 7.77107C104.37 8.78034 99.5958 9.60673 98.0087 10.8663C102.207 10.3662 105.023 8.45622 110.077 9.44146C103.098 12.3225 93.4689 11.9138 88.2092 16.4652L95.9447 14.3328L82.1763 20.3782C78.2268 21.882 70.1028 24.7218 68.8432 27.4616C70.0659 27.1228 75.7875 24.0478 76.7895 24.6171C75.6823 25.5692 72.8928 26.5703 71.3435 27.3246C69.3172 28.3111 67.867 29.3041 66.8612 30.75L68.9926 29.8442C67.7086 32.4508 62.9709 34.7343 62.0754 38.9117C64.0871 37.5822 65.5158 35.0884 67.7026 34.1577L66.5731 38.2716C67.967 37.377 68.0512 35.1532 69.476 34.353L67.9555 39.9953C70.4209 37.5509 71.4134 32.0237 73.9394 29.9935C74.4099 31.0981 73.1607 34.3097 72.925 35.9346L74.3013 34.0251C75.0753 32.6153 77.1312 28.3665 78.1834 27.8788C78.5384 29.6754 77.1471 32.3165 76.8341 34.1959C78.3156 33.2901 80.6034 28.1751 81.8161 26.2647L82.8155 25.5988C83.0546 27.6273 80.815 32.2396 81.7337 33.6447C83.5303 31.1702 83.854 27.3203 85.6287 24.7501C86.0121 24.1946 85.6656 24.5655 86.1014 24.2187L86.2593 24.7059C86.4568 26.005 85.6004 27.9814 86.0301 29.1809C86.9398 27.6646 88.3487 22.9595 89.5464 22.2083C89.8615 23.1553 88.0928 27.3414 87.9984 29.2762C88.9566 27.8183 89.4979 25.8032 90.3595 24.1938C91.2486 22.5333 92.3073 20.7761 93.9248 19.8304C93.3779 21.6759 90.891 25.9303 91.2666 27.5873C92.3789 26.0711 92.7395 23.2553 94.3039 22.152C94.631 23.8362 91.9415 28.1433 92.6528 29.4475C94.2507 28.2085 95.7515 21.5785 100.375 18.3154C99.6624 20.8766 97.6116 23.2455 97.4691 26.6575C98.1251 25.4666 102.77 18.2077 103.608 17.6097C103.321 19.1289 100.776 24.6471 101.388 25.9981C102.992 24.9279 106.04 18.2236 107.32 16.5982C107.947 17.4719 106.713 19.0491 106.241 20.1017C105.718 21.2694 104.957 22.7458 104.634 23.8666C105.418 23.6468 105.66 22.9265 106.129 22.1829C106.799 21.12 107.086 20.4971 107.847 20.2309C107.676 21.5321 107.323 23.0905 107.073 24.3805L106.617 28.2274C106.629 28.2828 106.655 28.391 106.692 28.4648C108.092 26.3359 109.884 19.156 111.457 17.714L109.861 28.2742C111.037 27.3281 113.025 24.6269 114.352 24.0899C114.614 27.3177 112.919 28.5606 111.912 30.8667L115.377 29.6763C113.057 31.4909 110.211 32.7762 109.153 35.6302L114.402 33.4313C114.002 34.9528 108.314 38.054 106.683 39.259C105.474 40.1533 105.962 39.645 105.659 40.656C107.474 40.2284 113.025 36.8657 114.079 37.407C113.411 38.4344 110.425 39.6184 109.331 40.3628C108.394 41.0003 108.098 41.3652 107.273 42.0383L105.268 43.8456C107.43 44.1144 112.691 40.1704 114.164 40.8388C113.884 42.1151 113.47 41.8623 112.115 42.8303L107.013 46.4617C105.871 47.2688 104.941 47.2864 104.891 48.5966C106.449 48.376 111.414 44.605 112.716 45.2142C112.589 46.5815 106.121 49.2577 105.29 50.9797L107.817 50.0301C106.613 51.7056 105.048 53.0098 103.563 54.5634C102.416 55.7642 100.242 58.2888 99.6564 59.9858C103.01 58.3893 105.093 53.0051 110.19 52.2714C108.523 55.5933 103.047 57.2779 101.31 60.5843L107.927 57.2942C107.722 58.4507 108.232 57.708 106.988 58.6108C104.364 60.5147 99.2004 63.6464 98.2427 66.4352C100.243 66.0883 103.577 62.7041 105.822 61.955C104.77 64.2157 100.021 66.5755 98.1457 70.9943C99.9633 69.9296 101.646 68.297 102.982 66.746C105.093 64.2968 105.052 66.0612 101.711 69.2333C100.501 70.3817 99.464 71.2634 99.252 73.6632C100.399 73.0171 100.94 71.9293 101.855 70.9346C102.363 70.3812 102.753 70.1331 103.289 69.5669C103.982 68.8345 103.805 68.5872 104.676 68.4344C104.898 70.3439 99.1 73.4202 98.3788 78.1888L101.782 74.6046C102.518 73.7284 102.143 73.7795 103.175 73.6838C102.485 77.1598 98.429 77.9179 98.6952 83.1914C99.6658 82.2877 100.522 80.2765 101.557 79.0431C101.61 80.647 99.9942 84.7528 99.5907 86.6455C100.461 86.509 100.675 85.6118 101.036 84.7935C101.41 83.9448 101.621 83.1674 102.215 82.4779C102.869 85.1486 101.544 88.2429 101.496 90.9848C101.48 91.8872 101.24 91.1175 101.699 92.0654C102.966 91.2257 103.31 87.7789 103.697 86.1862C103.99 84.9799 103.785 84.9249 104.6 84.2616C105.283 85.8311 105.69 88.8066 106.691 90.1194C107.261 89.3707 106.917 88.5932 106.689 87.3491C106.5 86.3227 106.303 85.1868 106.123 84.1509C105.786 82.2045 105.261 79.9064 105.131 78.0025C106.547 79.4252 106.765 83.5756 107.938 85.4229C107.968 85.3671 108.001 85.2078 108.005 85.2456C108.009 85.2842 108.057 85.0992 108.061 85.0627C108.173 84.1204 108.152 85.2791 108.098 84.4055C107.898 81.19 106.959 77.9252 106.604 74.7103C107.712 75.7423 108.016 77.881 108.472 79.3007C108.732 80.1099 108.98 80.8011 109.245 81.6447C109.328 81.91 109.549 82.6982 109.61 82.8342C110.31 84.4119 109.501 83.4331 110.554 83.8684L108.644 71.412C110.135 71.7709 109.298 71.178 110.395 73.6344C111.505 76.1209 113.063 78.9349 113.773 81.4622C114.566 80.5014 113.571 78.1197 113.298 76.9825C113.117 76.2295 112.929 75.4516 112.73 74.7248C112.698 74.6089 112.474 73.7503 112.47 73.71L112.704 72.4406C113.185 73.9294 115.064 77.714 116.426 78.3631L112.238 67.4766C113.463 68.1283 114.055 71.6846 115.592 71.5863C115.013 70.2709 112.41 64.4926 112.388 63.4146C115.261 65.4697 116.729 69.8588 119.525 72.1259C119.224 69.4102 117.824 66.7627 116.692 64.8364C116.083 63.8001 115.431 62.8239 114.776 61.7687C114.277 60.9659 113.066 59.6523 113.554 58.6864C114.47 59.0083 114.686 59.7519 115.309 60.6122C115.856 61.3656 116.383 61.9791 116.929 62.7273L119.274 65.9925C120.08 66.8954 119.285 66.4828 120.517 66.8056C119.537 63.3146 115.671 58.7405 114.672 55.1374C115.527 55.5946 115.935 56.3184 116.542 57.192L121.688 64.0148C121.153 57.8711 115.692 53.7173 115.34 50.2207C116.946 50.2838 118.258 53.3408 119.103 54.6325C119.673 55.5027 120.169 56.2587 120.708 57.086L122.691 59.6918C121.936 53.8053 117.329 49.9682 116.298 46.2072C115.976 45.0292 116.07 45.7659 116.362 45.2194C116.628 45.4344 116.538 45.3194 116.834 45.677L118.122 47.8153C118.699 48.828 119.268 49.7368 119.853 50.7603C120.486 51.8661 120.831 52.48 121.463 53.5189C121.841 54.141 121.943 54.3934 122.252 54.927C122.595 55.5195 122.828 55.9269 123.414 56.0196C122.6 53.9092 121.613 51.7013 120.739 49.5677C120.323 48.5507 117.963 44.1049 118.517 43.1034C119.474 43.2742 119.179 43.0441 119.719 44.3419L123.787 53.6924C124.589 55.4469 124.987 56.7709 125.721 57.3753C126.289 56.2136 122.249 44.7441 121.971 43.2832C122.91 43.6211 123.054 44.2929 123.611 45.4306C124.064 46.3557 124.328 47.013 124.826 47.9862C125.673 49.6433 126.442 51.87 127.675 53.0111C128.356 47.6135 123.514 42.7681 122.724 37.4903C124.61 39.3831 126.033 42.7651 126.92 45.5684C127.224 46.5304 127.442 48.0081 128.217 48.6529C128.802 47.7814 128.02 46.2699 127.671 45.1254C126.751 42.1078 124.702 37.3821 124.542 34.3865C126.116 35.7654 128.693 45.1872 130.401 47.0091C130.745 46.4446 130.591 47.1564 130.583 46.1922C130.572 44.909 130.065 43.5584 129.811 42.3495L129.153 37.6865C129.78 38.421 130.154 39.484 130.666 40.5645C130.934 41.129 131.103 41.5674 131.323 42.0864L132.371 43.7705C132.564 40.4774 131.617 38.0892 130.22 35.7143C129.527 34.5359 126.642 30.3168 127.594 28.9349L128.043 29.4689C129.308 31.3287 130.067 33.4996 131.066 35.507C131.782 36.9464 132.952 40.0966 134.031 41.2484C134.69 41.952 133.872 41.5171 134.769 41.6957C135.129 40.7169 131.751 30.4417 131.298 28.3369C132.47 29.341 133.691 33.3317 134.291 34.7626C134.966 36.3759 135.983 40.1395 137.397 41.2308L134.149 25.6315C136.691 29.2221 137.7 31.6781 138.406 36.9404C140.293 34.6471 138.462 31.166 139.04 28.6756L140.323 31.5343C140.759 32.2443 140.208 31.4321 140.61 31.9554C140.667 32.0293 140.736 32.1005 140.791 32.1675L141.001 28.8306C142.102 29.8077 142.217 31.3875 143.675 31.8777C143.035 29.4634 140.501 26.1415 139.461 23.6297C140.498 24.3367 144.495 29.302 144.916 31.1681C144.2 33.215 141.669 34.7828 140.815 36.9765C142.065 36.8494 145.542 33.2042 147.235 32.2516C146.756 33.4185 145.593 34.4805 144.718 35.5096C143.743 36.6566 142.79 37.2409 142.322 38.5833C143.705 38.4386 145.333 36.5605 146.855 35.9178C146.167 37.6367 142.504 39.8467 141.568 41.7167C143.462 41.0732 146.743 38.4829 148.408 38.3858C148.323 40.6521 142.077 42.0593 141.453 44.1504L146.886 42.4569C144.779 44.663 141.017 45.8706 139.74 48.6374L146.6 45.1326C145.828 46.7266 141.781 48.6207 140.518 50.1206C142.196 50.3452 145.931 48.1029 147.925 47.6505L147.595 48.0106C145.37 50.1709 142.59 51.1127 141.056 53.871C142.45 53.3288 145.548 51.1449 146.8 51.2179L140.653 56.3931C139.902 57.0151 138.887 57.4199 138.957 58.4885C140.378 58.0064 142.236 56.6142 143.746 55.8612C143.013 57.3165 142.013 58.0308 140.874 59.1101C139.77 60.1563 139.107 61.3931 138.329 62.5852C140.033 62.4152 144.58 57.896 146.987 57.2388C145.684 60.1494 141.013 61.1879 140.125 65.434C142.298 64.2973 144.664 61.4639 146.876 60.5529C145.979 62.5062 140.99 65.5834 140.781 67.2706C142.439 66.9533 145.734 63.3408 146.278 63.995C146.569 64.7347 141.287 69.3282 140.677 70.8981C142.5 70.3229 145.637 67.2229 147.162 65.9264C145.535 69.3046 141.687 70.8758 141.111 75.7333C142.769 74.4767 144.323 72.034 145.817 70.2941C146.672 69.2981 146.632 68.5765 147.651 68.813L147.639 69.1659C147.076 71.2239 141.637 75.5572 144.191 75.8573C144.536 75.7728 144.731 75.2735 145.014 74.8223C145.613 73.8671 145.463 73.8405 146.363 73.2721C145.833 75.4066 142.975 78.188 142.665 80.0369C143.837 79.5896 144.068 78.695 145.351 77.9828L143.269 81.9937C145.281 81.3733 146.541 77.1972 148.428 77.1122C147.968 78.7306 145.985 79.8163 145.236 81.8258C147.565 80.9921 147.4 79.4969 149.504 78.8435C148.846 80.911 146.162 83.4743 145.162 85.6672C146.864 85.55 147.222 83.4992 149.103 82.7072C148.749 84.6184 147.304 86.3961 146.59 88.34C148.389 87.4865 148.518 85.5336 150.112 84.8343L147.648 90.5783L148.775 89.794C149.598 88.986 148.617 89.5227 149.819 88.8259L148.268 95.0945C149.19 94.536 149.486 93.5404 150.137 92.7471L150.881 96.3098C151.587 95.3825 151.541 93.2331 151.79 91.8653C151.996 92.168 152.538 92.7703 152.861 93.2348C153.42 94.0401 153.672 94.5257 154.454 94.894L152.705 89.9571C154.173 89.9352 153.938 91.3145 155.441 92.0259C154.789 89.9532 152.983 88.9358 152.236 86.9392C153.748 87.2131 153.979 88.871 155.543 89.0642C155.268 87.9119 153.213 85.9758 152.403 84.3951C153.765 85.0546 154.115 85.7157 155.299 86.1402C154.657 84.46 152.18 82.3882 151.876 80.7384C151.87 80.7066 151.878 80.5976 151.875 80.5723C151.873 80.547 151.872 80.4598 151.889 80.407C153.026 80.1971 154.016 83.6211 155.648 84.5072L153.707 80.5577C154.712 80.938 154.89 81.3085 155.936 81.8155L154.748 76.6756C155.763 77.3264 155.56 77.8188 156.356 77.7278C156.549 76.9486 155.335 75.808 154.657 74.9228C154.007 74.074 152.81 72.7608 152.549 71.8318C154.007 72.857 156.042 75.3718 157.524 75.7612C156.771 73.8053 154.034 72.0246 152.936 69.9511L155.271 71.3373C154.707 70.3246 154.168 69.4634 153.535 68.5524C152.801 67.4968 151.997 66.7125 151.524 65.3851C152.89 65.5942 153.343 66.7279 154.259 67.8256C155.032 68.7516 155.803 70.143 156.911 70.4585C156.395 68.2738 153.275 65.2275 152.528 62.8634C153.555 63.221 156.61 65.9376 157.294 66.6562C158.253 65.2018 156.86 65.9758 158.658 65.6015L153.41 57.7247C152.652 56.3381 152.959 57.225 153.25 56.7781C153.636 56.697 155.955 59.9086 156.493 60.6045C157.198 61.5137 157.335 61.7777 158.093 62.7539C158.654 63.4764 159.353 64.5523 160.131 64.9889C159.213 62.6028 158.706 63.874 159.234 61.002C159.53 59.3977 159.138 58.1403 158.54 56.6962C157.505 54.1951 156.171 53.2305 154.862 51.3003L154.665 50.3907C155.727 50.5491 158.539 54.6772 159.302 55.6173C159.431 55.7757 160.041 56.5283 160.141 56.6326C161.158 57.7011 160.082 57.0559 161.349 57.5002C159.986 54.0122 156.553 50.7925 155.355 47.2972C156.706 47.6234 158.57 50.9135 159.392 52.0838C160.015 52.9716 159.985 53.2137 161.032 53.7761C160.522 52.3401 159.148 50.5594 159.137 49.3342C160.636 49.9953 161.353 51.4991 162.704 51.3076C162.325 50.4168 161.223 49.5668 160.496 48.8006C159.423 47.6702 159.103 47.3156 158.188 46.1192C156.92 44.4621 155.276 41.8756 154.86 39.3565C155.881 41.1029 159.028 45.953 160.261 46.9675C160.827 46.0853 160.046 45.4705 159.381 44.3144C158.947 43.5597 158.095 42.0563 157.892 41.2188C159.067 41.427 158.866 41.9919 159.498 43.2562C159.947 44.1569 160.329 44.8287 160.789 45.6976C161.645 47.3156 162.54 48.8546 163.38 50.595C166.923 57.9428 169.256 66.0157 170.335 74.2384C171.018 79.4411 172.002 83.3369 168.772 86.7361C168.211 86.4682 168.654 86.734 168.181 86.3661C168.031 86.2493 167.814 86.0531 167.677 85.9209C165.23 83.5494 161.38 82.1405 159.82 86.5536C161.73 85.6852 164.058 85.1387 165.09 87.4054C160.352 87.0752 161.138 87.098 159.708 90.7389C158.722 93.252 157.2 93.9174 156.556 96.4094C157.795 96.0055 158.684 95.553 159.881 94.9751C160.451 94.6991 164.736 92.6728 162.329 94.8627C161.681 95.4529 161.749 95.2301 161.195 95.9775C160.561 96.8336 160.194 97.8265 160.125 99.1788L164.077 95.7595C163.822 97.089 163.332 98.0691 162.993 99.3299C162.623 100.706 162.666 102.622 163.469 103.512C164.471 102.098 164.75 100.037 165.864 99.0088C166.568 99.8876 166.594 102.322 166.711 103.747C167.933 102.521 168.123 100.366 168.704 98.795C169.317 97.1371 168.811 97.8411 169.708 97.5926C170.781 100.255 164.365 121.722 160.573 123.422C158.208 124.483 153.608 125.849 150.705 125.073C150.25 121.9 150.751 119.075 149.976 115.464C149.279 112.22 148.244 110.38 147.278 107.66L152.724 108.026C152.002 106.982 150.594 106.635 149.532 105.803C150.498 105.431 151.825 105.394 152.589 104.713C149.91 103.04 149.684 103.928 146.812 104.817C147.202 103.501 148.029 102.717 148.026 101.533C145.695 101.403 146.339 102.544 145.308 104.425C143.08 104.39 141.723 103.099 140.399 105.107L143.566 105.888C141.779 106.677 139.035 107.71 141.007 110.219C141.854 108.886 140.753 108.639 142.969 108.464L142.508 114.342C143.59 113.847 144.061 111.09 144.52 110.221C144.876 110.823 145.254 111.553 145.649 112.307C145.873 112.733 145.95 112.941 146.159 113.346L147.086 114.071C147.442 111.785 147.034 115.875 147.165 113.558L147.084 110.822C147.099 110.744 147.145 110.632 147.16 110.569C147.174 110.507 147.205 110.399 147.246 110.322C149.017 112.834 150.174 121.332 149.143 123.882C148.408 125.696 145.047 125.291 142.982 125.551C140.32 125.886 138.57 126.677 135.753 125.653C132.873 124.605 127.682 121.793 125.307 120.177C122.788 118.464 120.897 116.291 119.134 114.181C118.227 113.096 117.3 113.056 117.915 112.025C118.253 111.672 117.749 111.324 120.026 112.351C121.088 112.831 121.479 113.07 122.625 113.203C121.872 111.346 119.91 109.955 119.272 108.34L125.474 108.307C123.486 104.848 121.087 107.32 118.926 105.732C119.333 104.724 120.385 104.692 121.621 104.132C122.658 103.662 123.612 103.248 124.458 102.718L118.199 102.705C118.444 101.658 119.039 100.93 118.544 99.9837C117.247 100.787 115.504 102.734 114.495 103.808C113.583 102.851 112.827 100.097 112.391 98.771L111.6 100.352C111.381 101.033 111.214 101.723 111.073 102.472C109.124 102.049 107.587 100.585 106.118 102.3C106.82 103.185 107.947 103.577 108.812 104.321C108.854 104.357 108.934 104.432 108.991 104.491C107.01 104.718 104.514 104.892 104.348 106.823L106.888 107.08C105.459 108.541 103.766 108.568 103.599 111.321C105.021 110.85 107.71 109.299 108.715 109.945C108.626 110.895 108.581 110.356 107.816 111.208C107.404 111.667 107.114 112.036 106.847 112.754C106.311 114.196 106.435 115.736 106.684 117.288C107.417 116.521 108.004 115.612 108.708 114.616L110.748 111.858C110.7 113.425 109.99 118.082 110.745 119.005C111.882 117.988 112.103 114.892 112.929 113.473C112.971 113.542 113.025 113.571 113.042 113.687C113.058 113.802 113.129 113.852 113.15 113.901L114.336 117.423C114.95 118.965 115.518 119.516 116.971 120.081C116.893 118.924 116.771 117.833 116.64 116.686L116.449 114.201C116.54 113.52 116.444 113.841 116.673 113.419C117.693 113.826 117.708 114.308 118.51 115.441C122.733 121.413 128.109 124.474 134.977 127.373C133.041 128.435 129.477 129.533 127.081 130.023C121.018 131.77 115.244 131.345 108.861 131.366C105.587 131.376 100.467 133.911 92.7365 134.788C78.8729 136.361 50.6403 135.661 34.625 135.599C32.5665 135.591 26.792 135.802 25.1976 135.426C20.3011 134.269 6.80447 105.14 9.53049 102.779C12.2853 101.551 15.9742 103.825 18.7303 104.236C19.3824 102.233 21.7993 99.4445 23.3512 98.5177C27.6592 95.9441 35.0555 98.4005 36.5473 104.423C37.4802 108.188 35.9596 110.061 34.6688 112.546C41.4344 109.509 40.6922 112.251 42.7361 115.709C47.0432 116.15 49.5022 115.748 51.6959 118.924C53.453 121.468 52.8357 126.441 51.8878 129.546C50.7729 129.828 45.7214 130.892 44.8667 130.875C42.2029 130.823 45.1294 128.762 38.5032 128.636C37.272 126.789 37.1548 123.291 32.6017 119.916C29.3399 117.499 25.6377 116.339 21.6405 118.689C27.7133 118.549 33.1812 119.24 35.8188 125.119C36.5705 126.795 36.8376 129.435 37.4326 130.696C42.6408 129.721 40.9339 129.991 43.984 132.983C49.0325 130.79 48.6191 130.14 55.0092 131.588C54.0467 130.274 52.2802 130.102 52.9177 127.146C53.3577 125.106 54.6984 123.724 55.9837 123.028C62.2016 119.662 63.8969 126.469 64.5323 127.35C64.2768 122.814 65.4917 119.243 70.6244 118.698C74.7113 118.263 78.3264 120.478 78.2341 125.903C79.5636 124.502 79.47 121.576 83.0194 122.849C84.7087 123.455 86.9823 125.988 88.2251 125.942C90.0595 125.872 92.5592 123.669 95.1603 125.692C97.1965 127.275 97.1484 128.705 98.5784 130.638C99.6735 128.899 102.133 118.755 111.813 124.937C113.1 125.759 113.259 126.413 114.612 125.858C118.171 124.397 119.27 126.2 121.058 127.587L120.818 126.341C119.842 125.638 119.555 124.786 118.323 124.361C116.477 123.725 115.715 124.515 114.159 124.493C113.02 124.478 109.969 122.476 107.746 122.012C101.99 121.32 101.199 124.395 98.578 126.039C92.2308 123.687 94.8203 123.68 87.3472 124.803C83.9381 120.94 85.6918 121.215 78.8518 121.954C77.7473 119.459 75.1741 117.344 71.1189 117.52C65.9811 117.742 64.7508 120.975 63.3259 122.294C58.7621 120.254 58.6024 120.813 54.1729 122.378C52.9233 116.24 50.083 114.656 43.2448 114.76C41.8951 110.313 42.0453 111.199 38.0563 109.61C36.1125 104.761 40.5261 101.451 30.6106 96.7863C22.2514 95.3066 21.8702 98.5336 17.6609 103.089C14.2721 100.189 12.7652 101.357 8.52036 101.643L7.25394 95.0099C1.84224 99.2548 12.3192 121.243 14.4867 125.563C16.716 130.007 19.9881 134.498 22.6944 137.939C24.2673 139.94 25.8836 141.682 27.4884 143.443C35.2431 151.953 47.5635 160.019 58.189 164.221C79.9045 172.809 105.421 172.028 126.157 161.404C136.744 155.98 137.145 154.966 144.659 149.008C149.169 145.433 155.747 137.395 159.071 132.535C161.609 128.824 164.403 123.92 166.411 119.286C195.776 51.521 131.325 -20.9969 58.7132 5.6555C53.7526 7.47614 48.8767 9.86818 44.8431 12.3705C40.1229 15.2992 37.108 17.5191 33.0795 21.1926C18.9917 34.0388 5.92398 55.009 5.17529 76.2351C6.46275 75.1838 6.24595 74.5673 6.92553 73.9019L6.92596 73.8997Z" fill="#694412"/>
<path fill-rule="evenodd" clip-rule="evenodd" d="M127.079 130.022C127.593 126.75 123.203 124.429 120.816 126.339L121.056 127.585C119.268 126.199 118.169 124.395 114.611 125.856C113.257 126.412 113.098 125.757 111.812 124.935C102.131 118.753 99.6719 128.897 98.5767 130.637C97.1468 128.704 97.1948 127.274 95.1587 125.69C92.5576 123.667 90.0578 125.871 88.2234 125.94C86.9802 125.987 84.7071 123.453 83.0178 122.848C79.4684 121.574 79.5615 124.5 78.2324 125.901C78.3247 120.476 74.7096 118.261 70.6228 118.696C65.4905 119.242 64.2756 122.812 64.5306 127.348C63.8953 126.467 62.2 119.661 55.9821 123.027C54.6968 123.723 53.3561 125.105 52.916 127.144C52.2785 130.101 54.0451 130.273 55.0076 131.586C48.6175 130.138 49.0309 130.789 43.9824 132.982C40.9327 129.99 42.6391 129.719 37.4309 130.695C36.8359 129.433 36.5689 126.793 35.8172 125.117C33.18 119.238 27.7121 118.548 21.6389 118.687C25.636 116.337 29.3383 117.497 32.6001 119.915C37.1532 123.29 37.2708 126.787 38.5016 128.635C45.1278 128.761 42.2012 130.821 44.865 130.873C45.7197 130.89 50.7713 129.827 51.8862 129.544C52.8345 126.44 53.4514 121.467 51.6943 118.923C49.5001 115.747 47.0416 116.148 42.7344 115.708C40.6906 112.25 41.4328 109.507 34.6671 112.544C35.958 110.06 37.4786 108.186 36.5457 104.421C35.0535 98.3988 27.6576 95.9424 23.3496 98.516C21.7973 99.4433 19.3803 102.231 18.7287 104.235C15.9726 103.824 12.2832 101.549 9.52886 102.778C6.80283 105.138 20.2995 134.267 25.196 135.424C26.7904 135.8 32.5649 135.59 34.6233 135.598C50.6386 135.66 78.8712 136.359 92.7349 134.786C100.466 133.909 105.585 131.375 108.86 131.364C115.242 131.343 121.016 131.769 127.079 130.022L127.079 130.022Z" fill="#EEECEB"/>
<path fill-rule="evenodd" clip-rule="evenodd" d="M30.6127 96.7842C40.5286 101.449 36.1146 104.758 38.0584 109.608C42.0474 111.196 41.8972 110.311 43.2469 114.758C50.0856 114.654 52.9254 116.238 54.175 122.375C58.6045 120.811 58.7642 120.252 63.3281 122.292C64.7529 120.973 65.9832 117.739 71.121 117.517C75.1762 117.342 77.7494 119.457 78.854 121.952C85.6943 121.213 83.9402 120.938 87.3493 124.801C94.8224 123.678 92.2329 123.685 98.5801 126.036C101.201 124.393 101.992 121.318 107.748 122.01C107.731 118.506 106.169 116.506 102.582 116.856C102.023 116.884 98.2469 113.335 93.8896 113.285C89.3489 113.233 87.2282 115.652 84.9216 116.584C82.5747 112.742 82.6614 112.406 77.2857 112.985C74.3734 103.425 65.6475 107.155 63.4058 107.345C63.1035 98.7689 58.0091 94.0668 50.593 95.5019C47.882 96.0265 46.592 97.2449 44.4931 97.806C43.5478 95.2422 41.968 93.9745 38.5654 93.5491C38.8488 93.2709 38.7449 93.2146 39.4665 92.9025C39.4906 92.1818 40.2199 92.4857 38.4165 92.1964C37.0771 91.9813 35.0173 92.4475 33.811 93.0532C32.4299 93.7465 31.0583 95.0997 30.6123 96.7847L30.6127 96.7842Z" fill="#EEECEB"/>
<path fill-rule="evenodd" clip-rule="evenodd" d="M7.53304 76.1658C4.96628 79.9016 2.63521 83.0247 1.24171 88.5622C0.352642 92.0949 -0.899613 102.507 0.970828 105.437L6.8247 91.7094C8.75782 86.5535 12.4841 82.6856 16.3362 80.2656C19.0382 78.5682 29.2884 74.6217 33.1603 76.3028C35.0522 77.124 36.2254 78.7111 40.4162 79.6414C43.42 80.3081 47.8718 79.7427 50.008 80.6661C52.9529 81.939 53.6068 84.647 56.1971 85.1433C59.2949 85.7366 62.1257 82.9951 62.0875 80.3519C58.7467 78.0745 48.4569 78.3256 50.7592 70.385C52.5408 64.2409 55.4295 59.3027 59.3572 56.5234C72.2669 47.3872 93.5033 53.8425 97.1918 51.3414C90.2153 49.2091 62.2678 48.8519 53.5746 50.7455C48.6677 51.8145 50.0749 56.1165 42.3047 62.8749C38.8708 65.8615 39.795 65.9649 34.3507 64.507C31.3628 63.7068 27.6412 62.7577 24.5164 62.2635L28.9867 70.6292C25.3265 71.8561 16.8582 72.8221 12.0153 73.7755C9.08709 74.3521 8.96474 74.6303 7.53304 76.1654V76.1658Z" fill="#67420E"/>
<path fill-rule="evenodd" clip-rule="evenodd" d="M124.786 153.711C127.377 153.711 132.096 154.164 134.296 153.309C136.545 152.434 138.959 150.238 139.808 148.664L37.6187 148.666C37.9569 149.999 37.4774 149.1 38.4579 149.95L41.1951 151.88C42.5319 152.808 43.3927 153.791 45.5456 153.791L124.786 153.711V153.711Z" fill="#A9D2AB"/>
<path fill-rule="evenodd" clip-rule="evenodd" d="M99.8282 161.511C104.992 161.511 112.085 162.061 116.983 161.573C120.069 161.265 126.427 158.598 128.887 156.208C121.864 156.011 50.822 155.985 48.4316 156.299C48.9137 157.459 53.0337 158.967 54.3332 159.651C56.705 160.898 58.3286 161.59 61.456 161.59L99.8282 161.511V161.511Z" fill="#A9D2AB"/>
<path fill-rule="evenodd" clip-rule="evenodd" d="M31.4087 143.381C32.4836 144.321 32.9263 145.816 35.6081 146.551C37.3433 147.027 41.0502 146.798 43.049 146.784C53.8639 146.706 140.407 147.151 142.523 146.553C145.081 145.829 145.426 144.269 146.407 143.289L31.4087 143.381Z" fill="#A9D2AB"/>
<path fill-rule="evenodd" clip-rule="evenodd" d="M27.8305 139.232C28.389 141.8 30.5303 141.589 33.3761 141.568C35.9738 141.548 38.5779 141.565 41.176 141.565L144.752 141.628C147.291 141.643 149.755 141.628 150.053 139.232H27.8301H27.8305Z" fill="#A9D2AB"/>
<path fill-rule="evenodd" clip-rule="evenodd" d="M39.4651 92.9029C38.743 93.215 38.8473 93.2713 38.564 93.5495C41.9661 93.9749 43.5464 95.2426 44.4917 97.8064C46.5905 97.2453 47.881 96.0269 50.5915 95.5023C58.008 94.0672 63.1021 98.7693 63.4043 107.346C65.6461 107.155 74.3715 103.425 77.2843 112.986C82.6595 112.407 82.5728 112.742 84.9202 116.585C87.2268 115.652 89.3475 113.233 93.8881 113.285C98.2455 113.336 102.022 116.885 102.58 116.857C98.9564 109.303 90.7856 112.238 85.3022 115.263C83.0222 112.204 82.9402 110.859 78.0098 111.887C74.9167 105.517 72.8385 104.523 64.2234 105.765C64.2049 99.9666 62.1915 96.9958 58.3094 95.1404C52.8269 92.5204 49.8574 94.3445 45.1867 96.0591C44.0332 93.6632 42.1537 92.435 39.4646 92.9029H39.4651Z" fill="#684310"/>
<path fill-rule="evenodd" clip-rule="evenodd" d="M68.9932 164.522C73.457 168.048 92.7495 167.652 99.9643 166.787C105.895 166.075 104.941 165.839 109.322 164.524L68.9932 164.522Z" fill="#A9D2AB"/>
<path fill-rule="evenodd" clip-rule="evenodd" d="M158.908 62.2641C158.76 59.4707 157.782 57.6612 156.515 55.9058C155.548 54.566 153.898 52.2452 152.025 52.1606C152.067 53.3914 152.085 52.6475 153.532 54.5278L158.908 62.2641Z" fill="#E6BCA4"/>
<path fill-rule="evenodd" clip-rule="evenodd" d="M145.736 30.6333C147.049 29.9902 147.449 29.3973 148.355 28.3614L144.016 26.0896L145.736 30.6328V30.6333Z" fill="#E6BCA4"/>
<path fill-rule="evenodd" clip-rule="evenodd" d="M115.709 24.2312C115.719 24.2385 115.754 25.6166 117.851 23.9114C118.723 23.2022 118.45 22.7132 117.923 21.6941C116.946 22.3179 115.697 23.7976 115.709 24.2312Z" fill="#E4BBA3"/>
<path fill-rule="evenodd" clip-rule="evenodd" d="M493.252 79.0603L473.495 34.9362C472.733 33.2719 467.837 21.3768 466.434 20.0961L450.353 102.407C452.674 102.78 455.796 102.541 458.171 102.562C462.743 102.603 462.396 103.488 463.093 99.1427C465.009 87.1958 468.255 66.8788 470.561 56.2575C473.347 60.2388 490.897 103.942 493.008 105.865C494.014 102.505 496.799 96.9131 498.422 93.4778L509.428 68.9344C510.434 66.756 511.273 65.0118 512.208 62.8515C512.725 61.6587 513.09 60.8 513.636 59.62L515.34 56.4711L522.966 102.548L534.999 102.56L520.612 19.8242C516.696 27.5266 494.513 77.7522 493.254 79.0603H493.252Z" fill="white"/>
<path fill-rule="evenodd" clip-rule="evenodd" d="M289.168 36.2936C300.274 36.2936 309.132 36.6528 316.688 43.2491C325.888 51.2816 329.593 74.7778 314.303 86.199C307.431 91.3324 299.089 91.4808 289.152 91.4808L289.168 36.293V36.2936ZM277.232 102.476C283.558 103.031 294.87 102.758 301.148 102.224C320.782 100.556 337.07 87.1467 337.088 64.2223C337.105 42.564 323.389 27.5136 301.793 25.5681C296.456 25.0872 282.193 24.6413 277.228 25.3731L277.231 102.475L277.232 102.476Z" fill="white"/>
<path fill-rule="evenodd" clip-rule="evenodd" d="M197.989 101.023L198.106 102.562L240.492 102.554L240.595 91.5359L209.912 91.4654V65.9696L239.721 65.8712L239.741 54.9681L209.997 54.7958L209.907 36.3748L240.611 36.284V25.3431C236.021 24.9094 205.106 25.2139 197.988 25.2185L197.989 101.023V101.023Z" fill="white"/>
<path fill-rule="evenodd" clip-rule="evenodd" d="M373.291 102.46L415.734 102.561L415.759 91.4701L385.293 91.4771L385.242 65.8852H415.012L415.063 54.8075H385.398C384.982 51.2593 385.233 40.5489 385.241 36.2963H415.963L415.909 25.2197L373.287 25.2302L373.291 102.46H373.291Z" fill="white"/>
<path d="M197.988 127.009V123.243H213.989V127.009H207.923V147.43H204.022V127.009H197.988Z" fill="white"/>
<path d="M228.25 135.889H232.447L240.218 147.43H235.562L228.25 135.889ZM223.528 123.243H227.397V147.43H223.528V123.243ZM225.823 126.767V123.243H230.611C232.272 123.243 233.715 123.554 234.939 124.176C236.185 124.798 237.147 125.673 237.824 126.802C238.502 127.908 238.841 129.221 238.841 130.741C238.841 132.261 238.502 133.586 237.824 134.715C237.147 135.843 236.185 136.719 234.939 137.341C233.715 137.963 232.272 138.274 230.611 138.274H225.823V134.922H230.447C231.321 134.922 232.086 134.761 232.742 134.438C233.42 134.116 233.944 133.655 234.316 133.056C234.687 132.434 234.873 131.697 234.873 130.845C234.873 129.969 234.687 129.232 234.316 128.633C233.944 128.034 233.42 127.574 232.742 127.251C232.086 126.929 231.321 126.767 230.447 126.767H225.823Z" fill="white"/>
<path d="M252.505 141.211L253.226 137.755H263.883L264.637 141.211H252.505ZM258.505 130.084L254.899 138.965L254.833 139.863L251.652 147.43H247.291L258.505 121.895L269.719 147.43H265.358L262.243 140.07L262.145 139.068L258.505 130.084Z" fill="white"/>
<path d="M284.6 140.243L291.354 123.243H295.814L284.6 148.778L273.386 123.243H277.845L284.6 140.243Z" fill="white"/>
<path d="M307.599 147.43V143.837H319.174V147.43H307.599ZM307.599 126.836V123.243H319.174V126.836H307.599ZM307.599 136.235V132.711H318.518V136.235H307.599ZM305.206 123.243H309.009V147.43H305.206V123.243Z" fill="white"/>
<path d="M330.66 123.243H334.529V143.768H343.644V147.43H330.66V123.243Z" fill="white"/>
<path d="M372.474 141.211L373.195 137.755H383.852L384.606 141.211H372.474ZM378.475 130.084L374.868 138.965L374.802 139.863L371.622 147.43H367.261L378.475 121.895L389.688 147.43H385.327L382.213 140.07L382.114 139.068L378.475 130.084Z" fill="white"/>
<path d="M409.007 138.239V134.784H420.057C420.1 136.557 419.882 138.239 419.401 139.829C418.92 141.395 418.198 142.789 417.237 144.01C416.275 145.23 415.073 146.198 413.63 146.912C412.209 147.603 410.591 147.949 408.777 147.949C407.05 147.949 405.454 147.649 403.99 147.05C402.525 146.428 401.246 145.553 400.153 144.424C399.082 143.295 398.252 141.959 397.661 140.416C397.071 138.873 396.776 137.179 396.776 135.337C396.776 133.494 397.071 131.812 397.661 130.292C398.273 128.748 399.115 127.424 400.186 126.318C401.279 125.189 402.558 124.326 404.023 123.727C405.509 123.128 407.116 122.828 408.843 122.828C410.351 122.828 411.717 123.047 412.941 123.485C414.165 123.899 415.258 124.51 416.22 125.316C417.204 126.099 418.035 127.055 418.712 128.184L415.564 130.395C414.93 129.244 414.045 128.322 412.908 127.631C411.794 126.94 410.438 126.595 408.843 126.595C407.356 126.595 406.012 126.963 404.809 127.7C403.607 128.414 402.645 129.428 401.924 130.741C401.203 132.031 400.842 133.563 400.842 135.337C400.842 137.087 401.192 138.631 401.891 139.967C402.613 141.28 403.574 142.305 404.777 143.042C405.979 143.779 407.334 144.148 408.843 144.148C409.87 144.148 410.788 143.998 411.597 143.699C412.406 143.399 413.105 142.973 413.695 142.42C414.286 141.867 414.777 141.234 415.171 140.52C415.564 139.806 415.859 139.045 416.056 138.239H409.007Z" fill="white"/>
<path d="M433.14 147.43V143.837H444.715V147.43H433.14ZM433.14 126.836V123.243H444.715V126.836H433.14ZM433.14 136.235V132.711H444.059V136.235H433.14ZM430.746 123.243H434.55V147.43H430.746V123.243Z" fill="white"/>
<path d="M472.956 123.243H476.759V148.64L460.004 131.19V147.43H456.2V122.033L472.956 139.483V123.243Z" fill="white"/>
<path d="M491.423 135.337C491.423 137.041 491.784 138.539 492.506 139.829C493.249 141.119 494.211 142.121 495.391 142.835C496.593 143.526 497.894 143.871 499.293 143.871C500.386 143.871 501.37 143.722 502.244 143.422C503.118 143.123 503.905 142.72 504.605 142.213C505.326 141.683 505.949 141.096 506.474 140.451V145.288C505.512 146.117 504.474 146.751 503.359 147.188C502.244 147.626 500.845 147.845 499.162 147.845C497.479 147.845 495.905 147.545 494.44 146.947C492.997 146.348 491.74 145.484 490.669 144.355C489.598 143.226 488.757 141.902 488.145 140.381C487.554 138.838 487.259 137.156 487.259 135.337C487.259 133.517 487.554 131.847 488.145 130.326C488.757 128.783 489.598 127.447 490.669 126.318C491.74 125.189 492.997 124.326 494.44 123.727C495.905 123.128 497.479 122.828 499.162 122.828C500.845 122.828 502.244 123.047 503.359 123.485C504.474 123.922 505.512 124.556 506.474 125.385V130.223C505.949 129.578 505.326 129.002 504.605 128.495C503.905 127.965 503.118 127.551 502.244 127.251C501.37 126.952 500.386 126.802 499.293 126.802C497.894 126.802 496.593 127.159 495.391 127.873C494.211 128.564 493.249 129.555 492.506 130.845C491.784 132.112 491.423 133.609 491.423 135.337Z" fill="white"/>
<path d="M529.595 123.243H534.021L526.217 137.237V147.43H522.283V137.272L514.512 123.243H518.905L524.25 133.609L529.595 123.243Z" fill="white"/>
</svg>
