<svg width="50" height="50" viewBox="0 0 50 50" fill="none" xmlns="http://www.w3.org/2000/svg">
<path fill-rule="evenodd" clip-rule="evenodd" d="M17 21.1667C17 18.8655 18.8655 17 21.1667 17H27.8333C30.1345 17 32 18.8655 32 21.1667V27.8333C32 30.1345 30.1345 32 27.8333 32H21.1667C18.8655 32 17 30.1345 17 27.8333V21.1667ZM30.3335 19.4999C30.3335 19.0416 29.9585 18.6666 29.5001 18.6666C29.0418 18.6666 28.6668 19.0416 28.6668 19.4999C28.6668 19.9583 29.0418 20.3333 29.5001 20.3333C29.9585 20.3333 30.3335 19.9583 30.3335 19.4999ZM24.4999 20.3332C26.801 20.3332 28.6665 22.1987 28.6665 24.4999C28.6665 26.801 26.801 28.6665 24.4999 28.6665C22.1987 28.6665 20.3332 26.801 20.3332 24.4999C20.3332 22.1987 22.1987 20.3332 24.4999 20.3332ZM22.3346 23.2511C22.7811 22.4772 23.6065 22.0003 24.5 22C25.8812 21.9995 27.0012 23.1188 27.0017 24.5C27.0021 25.8812 25.8828 27.0012 24.5017 27.0017C23.6082 27.002 22.7825 26.5256 22.3355 25.752C21.8885 24.9784 21.8882 24.025 22.3346 23.2511Z" fill="#67420E"/>
</svg>
