<svg width="15" height="15" viewBox="0 0 15 15" fill="none" xmlns="http://www.w3.org/2000/svg">
<g id="instagram">
<path id="surface1" fill-rule="evenodd" clip-rule="evenodd" d="M0 4.16667C0 1.86548 1.86548 0 4.16667 0H10.8333C13.1345 0 15 1.86548 15 4.16667V10.8333C15 13.1345 13.1345 15 10.8333 15H4.16667C1.86548 15 0 13.1345 0 10.8333V4.16667ZM13.3335 2.49993C13.3335 2.04159 12.9585 1.66659 12.5001 1.66659C12.0418 1.66659 11.6668 2.04159 11.6668 2.49993C11.6668 2.95826 12.0418 3.33326 12.5001 3.33326C12.9585 3.33326 13.3335 2.95826 13.3335 2.49993ZM7.49985 3.33319C9.80104 3.33319 11.6665 5.19867 11.6665 7.49985C11.6665 9.80104 9.80104 11.6665 7.49985 11.6665C5.19867 11.6665 3.33319 9.80104 3.33319 7.49985C3.33319 5.19867 5.19867 3.33319 7.49985 3.33319ZM5.33463 6.25114C5.7811 5.47723 6.60654 5.0003 7.5 5C8.88117 4.99954 10.0012 6.11883 10.0017 7.5C10.0021 8.88117 8.88284 10.0012 7.50167 10.0017C6.6082 10.002 5.78245 9.52558 5.33546 8.75197C4.88848 7.97836 4.88816 7.02505 5.33463 6.25114Z" fill="white"/>
</g>
</svg>
