<svg width="116" height="140" viewBox="0 0 116 140" fill="none" xmlns="http://www.w3.org/2000/svg">
<g clip-path="url(#clip0_483_2782)">
<path fill-rule="evenodd" clip-rule="evenodd" d="M19.5432 34.7814C20.0057 34.7022 19.8794 35.4511 19.8267 35.848C20.4948 35.1253 20.5521 34.9943 21.9189 34.7232C24.1794 34.2744 28.132 33.8199 29.8405 33.2424L27.7539 29.3052C29.2125 29.5375 30.9496 29.9845 32.3442 30.3611C34.8854 31.0472 34.4542 30.9985 36.0568 29.5929C39.6837 26.4121 39.0269 24.3874 41.3172 23.8844C45.3749 22.9931 58.4198 23.1612 61.6761 24.1648C59.9545 25.3419 50.0421 22.3038 44.0163 26.6037C42.183 27.9117 40.8347 30.236 40.0031 33.1274C38.9285 36.8646 43.7312 36.7463 45.2907 37.8183C45.3088 39.0623 43.9875 40.3525 42.5413 40.0733C41.3322 39.8397 41.0273 38.5652 39.6525 37.9662C38.6552 37.5316 36.5774 37.7977 35.1754 37.4839C33.2195 37.0461 32.6716 36.2991 31.7886 35.9126C29.9813 35.1214 25.1971 36.9788 23.9357 37.7777C22.1377 38.9164 20.3986 40.737 19.4961 43.1636C19.5165 43.1939 19.5392 43.2078 19.5454 43.2617C19.5618 43.4086 19.7788 43.4636 19.6967 44.7161L20.2878 47.8378C22.2693 47.7033 22.9725 47.1533 24.5543 48.5185C26.519 46.3744 26.6967 44.8557 30.5987 45.5521C30.8069 44.7591 31.4471 44.1225 32.0917 43.7959C32.6548 43.5109 33.6164 43.2914 34.2414 43.3927C35.0832 43.5288 34.7428 43.3858 34.7315 43.725C35.9867 43.5048 36.864 44.0831 37.4024 45.2105C39.5823 44.4037 40.9683 43.545 43.5276 44.7781C45.3396 45.6511 46.2794 47.0495 46.288 49.7783C50.3092 49.1937 51.2791 49.6617 52.723 52.6598C55.0243 52.1759 55.0626 52.8087 56.1268 54.2487C58.6861 52.8253 62.4999 51.4437 64.1915 54.9987C65.8661 54.8336 66.5949 55.7749 66.6029 57.424C67.6406 57.6424 69.0649 58.5847 69.5965 58.592C70.3227 58.6019 70.6784 58.2303 71.54 58.5298C72.1151 58.7296 72.249 59.1306 72.7046 59.4614C73.8187 58.5623 75.8676 59.6545 75.6278 61.1947C76.7461 60.9642 78.4094 60.447 79.3131 59.9473C76.1079 58.5831 73.5983 57.1425 71.627 54.3319C71.2529 53.7987 71.2457 53.5718 70.7696 53.3799C70.663 53.5789 70.7076 53.4274 70.665 53.7482L70.7541 54.9176C70.8152 55.4577 70.8722 55.9709 70.9088 56.5154C70.2303 56.2499 69.9652 55.9903 69.6789 55.2645L69.1254 53.607C69.1156 53.584 69.0822 53.5603 69.0747 53.5064C69.0673 53.4518 69.0417 53.4381 69.022 53.4053C68.6367 54.0733 68.5335 55.5306 68.0027 56.0089C67.6502 55.5747 67.9817 53.3831 68.0039 52.6455L67.0521 53.9436C66.7229 54.4123 66.4492 54.8398 66.1071 55.2009C65.9907 54.4707 65.9328 53.7458 66.1833 53.0671C66.3079 52.7293 66.443 52.5553 66.6355 52.3394C66.993 51.9383 67.0138 52.1921 67.0553 51.7452C66.5862 51.4411 65.3311 52.1711 64.6672 52.3929C64.7454 51.097 65.535 51.0843 66.2023 50.3965L65.0167 50.2757C65.0944 49.3669 66.2594 49.2847 67.1842 49.1784C67.1575 49.1505 67.1198 49.115 67.1004 49.0982C66.6968 48.748 66.1707 48.5634 65.8428 48.147C66.5287 47.3398 67.2459 48.0288 68.156 48.228C68.2215 47.8754 68.2993 47.5507 68.4017 47.2303L68.7708 46.4862C68.9744 47.1101 69.3272 48.4062 69.7532 48.8567C70.2241 48.3514 71.0377 47.4352 71.643 47.0569C71.8742 47.5024 71.5965 47.8449 71.4819 48.3377L74.4034 48.344C74.0085 48.5935 73.5632 48.7884 73.0793 49.0093C72.5022 49.2727 72.0109 49.2877 71.8213 49.7621C72.8299 50.5095 73.9494 49.3459 74.8775 50.9742L71.9829 50.9895C72.2806 51.7502 73.1964 52.4044 73.5476 53.2785C73.0128 53.2156 72.8305 53.1035 72.3345 52.8776C71.2721 52.3939 71.507 52.558 71.3495 52.7241C71.0621 53.2092 71.4951 53.2281 71.9185 53.7389C72.7415 54.7322 73.6238 55.7545 74.7996 56.5609C75.9083 57.3214 78.3311 58.6445 79.6754 59.1377C80.9905 59.62 81.8076 59.2476 83.0498 59.0898C84.0138 58.9674 85.5824 59.1581 85.9252 58.3043C86.4068 57.1044 85.8667 53.1049 85.04 51.9225C85.0205 51.9587 85.0065 52.0096 84.9997 52.0389C84.9927 52.0682 84.9714 52.121 84.9644 52.1579L85.0021 53.4458C84.941 54.5358 85.1315 52.6111 84.9652 53.6868L84.5326 53.3459C84.4352 53.1552 84.3992 53.0568 84.2948 52.8568C84.1098 52.5018 83.9337 52.1583 83.7676 51.8751C83.5536 52.2838 83.3337 53.5817 82.8286 53.8143L83.0438 51.0481C82.0094 51.1305 82.523 51.2467 82.1279 51.8739C81.2075 50.6933 82.4883 50.207 83.3221 49.8358L81.8441 49.4683C82.4621 48.523 83.0955 49.1307 84.1355 49.1473C84.6166 48.2615 84.3162 47.7251 85.4043 47.7859C85.4055 48.3431 85.0191 48.7119 84.8374 49.3315C86.1781 48.9133 86.2833 48.4955 87.5341 49.2826C87.1776 49.6033 86.5578 49.6205 86.1072 49.7956C86.6027 50.1874 87.26 50.3506 87.5968 50.8418L85.0548 50.6697C85.5063 51.9494 85.9894 52.8156 86.3144 54.3426C86.6763 56.0418 86.442 57.3715 86.6544 58.8652C88.0098 59.2303 90.1565 58.587 91.2606 58.0881C93.0307 57.288 96.0254 47.1844 95.5246 45.9316C95.1058 46.0485 95.3421 45.7172 95.0559 46.4975C94.7848 47.237 94.696 48.251 94.1258 48.8282C94.0711 48.1573 94.0586 47.0119 93.73 46.5981C93.2104 47.082 93.0802 48.0518 92.6121 48.7175C92.2372 48.2985 92.2174 47.3968 92.3903 46.7492C92.5486 46.1558 92.7772 45.6946 92.896 45.0688L91.0516 46.6781C91.0836 46.0417 91.2549 45.5743 91.5511 45.1715C91.8096 44.8197 91.7775 44.9246 92.0803 44.6468C93.2038 43.6159 91.204 44.5698 90.9373 44.6997C90.3789 44.9716 89.9639 45.1846 89.3856 45.3747C89.6864 44.2021 90.3965 43.8889 90.857 42.7059C91.524 40.9924 91.1576 40.9817 93.3691 41.1371C92.8874 40.0705 91.8006 40.3275 90.9093 40.7362C91.6375 38.6592 93.4343 39.3223 94.5766 40.4384C94.6405 40.5008 94.7417 40.5932 94.8117 40.6479C95.0327 40.8211 94.8261 40.696 95.0876 40.8221C96.5952 39.2223 96.136 37.3887 95.8172 34.9402C95.3134 31.0704 94.2246 27.2708 92.5706 23.8126C92.1789 22.9935 91.7611 22.2694 91.3613 21.5077C91.1467 21.0988 90.9686 20.7826 90.7586 20.3587C90.464 19.7637 90.5574 19.4978 90.0092 19.3998C90.104 19.7942 90.5017 20.5017 90.7043 20.8567C91.0147 21.4006 91.3792 21.6902 91.1151 22.1054C90.5392 21.6277 89.0702 19.345 88.5941 18.5233C88.7881 19.7089 89.5557 20.926 90.1474 21.7061C90.5744 22.269 90.7239 22.4361 91.2245 22.9681C91.5639 23.3287 92.0785 23.7288 92.255 24.148C91.625 24.2381 91.29 23.5304 90.5903 23.2192C90.5953 23.7959 91.2367 24.6339 91.4748 25.3098C90.986 25.0449 91.0001 24.9311 90.7093 24.5133C90.3258 23.9623 89.4559 22.4139 88.8251 22.2605C89.384 23.9056 90.9866 25.4209 91.6226 27.0625C91.0313 26.8534 91.5335 27.1571 91.059 26.6542C91.0125 26.6051 90.7271 26.2509 90.6672 26.1763C90.3113 25.7339 88.9983 23.791 88.5029 23.7165L88.5949 24.1446C89.2061 25.053 89.8282 25.507 90.3118 26.6841C90.5909 27.364 90.7736 27.9557 90.6358 28.7106C90.3889 30.0622 90.6253 29.4638 91.0542 30.587C90.6915 30.3815 90.3649 29.8752 90.103 29.5351C89.7493 29.0759 89.685 28.9514 89.3563 28.5235C89.1047 28.196 88.0226 26.6845 87.8425 26.7227C87.7066 26.933 87.5638 26.5156 87.9172 27.1682L90.3667 30.8753C89.5277 31.0517 90.1777 30.6872 89.7299 31.3717C89.4108 31.0333 87.9849 29.7549 87.5052 29.5866C87.8543 30.6993 89.3103 32.133 89.5515 33.1612C89.0339 33.0127 88.674 32.3581 88.3134 31.9221C87.8858 31.4054 87.6744 30.8718 87.0369 30.7734C87.2578 31.3982 87.6331 31.7673 87.9755 32.2641C88.2709 32.6926 88.5226 33.0982 88.7859 33.5748L87.6958 32.9224C88.2084 33.8982 89.486 34.7363 89.8375 35.6568C89.1457 35.4736 88.1961 34.29 87.5153 33.8075C87.6371 34.2447 88.1959 34.863 88.4991 35.2622C88.8153 35.6789 89.3822 36.2155 89.292 36.5824C88.9211 36.6252 89.0153 36.3937 88.5418 36.0872L89.0962 38.5062C88.6081 38.2676 88.5248 38.0933 88.0557 37.9143L88.9616 39.7731C88.1998 39.3562 87.7381 37.7445 87.2073 37.8433C87.1995 37.8682 87.1999 37.909 87.2009 37.9211C87.2021 37.9331 87.1982 37.9844 87.2011 37.9993C87.3429 38.7758 88.4989 39.7508 88.7987 40.5416C88.2462 40.342 88.0829 40.0307 87.4469 39.7203C87.8252 40.4643 88.7843 41.3755 88.9127 41.9178C88.1825 41.8268 88.0749 41.0467 87.3692 40.9176C87.7176 41.8573 88.5606 42.3364 88.865 43.3116C88.1635 42.9769 88.2733 42.3277 87.588 42.338L88.4043 44.6615C88.0396 44.4884 87.9216 44.2598 87.6607 43.8806C87.5103 43.662 87.2572 43.3785 87.1608 43.2361C87.0448 43.8798 87.0658 44.8914 86.7368 45.3278L86.3895 43.6511C86.0857 44.0245 85.9475 44.493 85.5171 44.7559L86.2408 41.8056C85.68 42.1333 86.1378 41.881 85.7535 42.2612L85.2277 42.6304L86.3779 39.927C85.6339 40.2561 85.5732 41.175 84.7336 41.5769C85.067 40.6621 85.7415 39.8254 85.9066 38.9259C85.029 39.2989 84.8616 40.264 84.0673 40.319C84.534 39.2869 85.7868 38.0805 86.0942 37.1075C85.1121 37.415 85.1887 38.1187 84.1016 38.5111C84.4517 37.5653 85.3768 37.0544 85.5918 36.2927C84.711 36.3327 84.1226 38.2983 83.1839 38.5901L84.1557 36.7024C83.5566 37.0376 83.449 37.4587 82.9019 37.6692C83.0466 36.799 84.3807 35.4901 84.6278 34.4854C84.208 34.7529 84.2777 34.7656 83.998 35.215C83.866 35.4273 83.775 35.6623 83.6141 35.7021C82.4218 35.5611 84.9606 33.5214 85.2233 32.5528L85.2291 32.3868C84.7534 32.2754 84.7719 32.6151 84.3729 33.0838C83.6758 33.9029 82.9504 35.0523 82.1763 35.6437C82.4453 33.3576 84.2415 32.6181 85.0009 31.0282C84.2894 31.6384 82.825 33.0973 81.974 33.3681C82.2585 32.6292 84.724 30.4673 84.5881 30.1192C84.3342 29.8111 82.7963 31.5115 82.0223 31.6608C82.1198 30.8668 84.4489 29.4185 84.8672 28.4992C83.8349 28.9282 82.7304 30.2615 81.7163 30.7965C82.1307 28.7981 84.3112 28.3093 84.9193 26.9395C83.7958 27.2488 81.6734 29.3755 80.8777 29.4557C81.241 28.8946 81.5502 28.3125 82.0659 27.8202C82.5977 27.3122 83.0644 26.976 83.4065 26.2911C82.7013 26.6455 81.8341 27.3007 81.1711 27.5276C81.1384 27.0247 81.6121 26.8342 81.9627 26.5414L84.8318 24.1058C84.2477 24.0715 82.8013 25.0992 82.1507 25.3544C82.8669 24.0563 84.1645 23.6132 85.2031 22.5963L85.3572 22.4268C84.4262 22.6398 82.6827 23.695 81.8994 23.5894C82.4887 22.8834 84.3777 21.9918 84.7386 21.2418L81.5363 22.8913C82.1325 21.5891 83.8884 21.0208 84.872 19.9825L82.336 20.7796C82.6274 19.7952 85.5425 19.1329 85.5826 18.0665C84.8053 18.1122 83.2736 19.3313 82.3898 19.6342C82.8268 18.7541 84.5364 17.714 84.8574 16.905C84.1471 17.2076 83.387 18.0914 82.7418 18.1595C82.96 17.5277 83.4051 17.2527 83.8601 16.7128C84.2683 16.2285 84.8111 15.7287 85.0348 15.1795C84.2449 15.6279 82.6216 17.3434 82.0383 17.4032C82.437 16.3708 83.6181 15.6329 83.9525 14.6696C83.7557 13.7915 81.8902 11.4546 81.4063 11.1217C81.8916 12.3038 83.0744 13.8672 83.3734 15.0035C82.6927 14.7728 82.6388 14.0293 82.1251 13.5694L82.0271 15.1399C82.0012 15.1084 81.9692 15.0749 81.9427 15.0401C81.7551 14.7938 82.012 15.1761 81.8085 14.8419L81.2097 13.4965C80.94 14.6685 81.795 16.3069 80.914 17.3862C80.5843 14.9096 80.1134 13.7537 78.927 12.0638L80.4431 19.4055C79.783 18.8919 79.3081 17.1205 78.9929 16.3613C78.7134 15.6879 78.1435 13.8097 77.5963 13.3371C77.8079 14.3277 79.3845 19.1636 79.2161 19.6243C78.7976 19.5402 79.1795 19.7449 78.8717 19.4137C78.3679 18.8719 77.8219 17.3893 77.4877 16.7116C77.0214 15.7667 76.6671 14.7449 76.0768 13.8699L75.8672 13.6185C75.4228 14.2687 76.7695 16.2544 77.0931 16.8092C77.7452 17.9269 78.187 19.0509 78.097 20.6007L77.6079 19.8081C77.5049 19.5639 77.426 19.3576 77.3011 19.0919C77.0625 18.5833 76.8877 18.0831 76.595 17.7374L76.902 19.932C77.0206 20.5009 77.257 21.1366 77.2622 21.7405C77.2663 22.1943 77.338 21.8595 77.1773 22.125C76.38 21.2675 75.1773 16.8332 74.4425 16.1843C74.5173 17.5941 75.4735 19.8182 75.9033 21.2384C76.0662 21.7773 76.4311 22.4884 76.158 22.8986C75.7961 22.5949 75.6943 21.8997 75.5524 21.4469C75.1386 20.1274 74.4744 18.5359 73.5941 17.6451C73.9628 20.129 76.2229 22.4094 75.9051 24.9497C75.3296 24.4127 74.9707 23.3647 74.5752 22.5848C74.3429 22.1268 74.2195 21.8175 74.0081 21.3821C73.7482 20.8468 73.6807 20.5306 73.2424 20.3714C73.3723 21.0588 75.2581 26.4568 74.9932 27.0037C74.6505 26.7192 74.4648 26.0961 74.0904 25.2704L72.1912 20.8697C71.9398 20.2589 72.0772 20.3672 71.6306 20.2868C71.3719 20.7579 72.4732 22.8505 72.6675 23.3291C73.0755 24.3333 73.536 25.3724 73.9163 26.3657C73.6428 26.322 73.534 26.1303 73.3737 25.8515C73.2292 25.6003 73.1817 25.4815 73.0054 25.1888C72.7106 24.6998 72.5493 24.4109 72.2542 23.8904C71.9811 23.409 71.7151 22.9812 71.4458 22.5044L70.8447 21.498C70.7066 21.3297 70.7487 21.3839 70.6245 21.2826C70.488 21.5398 70.4441 21.1931 70.5948 21.7475C71.0757 23.5177 73.2262 25.3233 73.5789 28.0939L72.6531 26.8675C72.4016 26.4782 72.1698 26.1226 71.9039 25.7129C71.5094 25.1049 70.897 23.6662 70.1474 23.6365C70.3117 25.2821 72.8609 27.2371 73.1104 30.1285L70.7086 26.9174C70.4253 26.5063 70.2345 26.1656 69.8356 25.9505C70.3021 27.6462 72.1067 29.799 72.5638 31.442C71.9887 31.2901 72.36 31.4842 71.9839 31.0593L70.8892 29.5226C70.6341 29.1706 70.3882 28.8819 70.1332 28.5271C69.8422 28.1224 69.7414 27.7725 69.3138 27.6208C69.0862 28.0753 69.6514 28.6936 69.8841 29.0714C70.1899 29.5682 70.4942 30.0275 70.7786 30.5152C71.307 31.4218 71.9602 32.6676 72.1009 33.9459C70.7958 32.8789 70.1109 30.813 68.7698 29.8461C68.7798 30.3532 69.9945 33.0729 70.2652 33.692C69.5478 33.7382 69.2713 32.0645 68.6994 31.7578L70.6545 36.8814C70.0187 36.5757 69.1419 34.7945 68.917 34.094L68.808 34.6915C68.8096 34.7105 68.9142 35.1145 68.9291 35.1691C69.0218 35.5112 69.1098 35.8773 69.1944 36.2316C69.322 36.7669 69.7863 37.8878 69.4162 38.34C69.085 37.1505 68.3576 35.8261 67.8394 34.6559C67.3274 33.4998 67.7178 33.7788 67.0221 33.6099L67.9137 39.4724C67.4222 39.2678 67.7997 39.7284 67.4727 38.9857C67.4445 38.9216 67.3411 38.5507 67.3024 38.4258C67.179 38.0288 67.0629 37.7035 66.9417 37.3227C66.7289 36.6543 66.587 35.6477 66.0699 35.1622C66.2356 36.6755 66.6738 38.2121 66.767 39.7252C66.7922 40.1363 66.8018 39.591 66.7499 40.0345C66.7479 40.0517 66.7257 40.1388 66.7237 40.1206C66.7217 40.1026 66.7065 40.1778 66.6926 40.204C66.1446 39.3346 66.0432 37.3815 65.3822 36.7117C65.4429 37.6078 65.6879 38.6891 65.8454 39.6054C65.9292 40.0929 66.0214 40.6275 66.1093 41.1106C66.2159 41.6959 66.3764 42.062 66.1103 42.4144C65.6431 41.7967 65.4533 40.3964 65.1343 39.6575C64.754 39.9699 64.8498 39.9955 64.7129 40.5633C64.5323 41.3128 64.3714 42.9352 63.7803 43.3302C63.5661 42.8841 63.6781 43.2464 63.6855 42.8217C63.7082 41.5312 64.3264 40.0749 64.0212 38.818C63.7439 39.1427 63.6455 39.5086 63.4709 39.9078C63.3026 40.2927 63.2026 40.715 62.7963 40.7794C62.9848 39.8884 63.7392 37.9563 63.714 37.2015C63.2307 37.7819 62.8311 38.7285 62.3783 39.1538C62.254 36.6719 64.1472 36.3151 64.4692 34.6791C63.9875 34.7242 64.1626 34.7 63.819 35.1125L62.2306 36.7994C62.567 34.5551 65.2736 33.1072 65.17 32.2086C64.7632 32.2805 64.8461 32.3969 64.5225 32.7415C64.2723 33.008 64.0903 33.1248 63.8531 33.3853C63.4263 33.8534 63.1734 34.3654 62.6382 34.6694C62.7372 33.54 63.2211 33.125 63.7857 32.5846C65.3455 31.0917 65.3643 30.2613 64.3793 31.4139C63.7553 32.1441 62.97 32.9123 62.1218 33.4133C62.997 31.3337 65.2136 30.2231 65.7048 29.1591C64.6568 29.5119 63.1004 31.1044 62.1671 31.2676C62.6141 29.955 65.0247 28.4813 66.2492 27.5852C66.8297 27.1605 66.5916 27.51 66.6874 26.9655L63.5988 28.514C64.4095 26.9578 66.9658 26.1648 67.7438 24.6016C65.3647 24.9469 64.3921 27.4809 62.8269 28.2323C63.1004 27.4337 64.115 26.2454 64.6506 25.6803C65.3435 24.9489 66.0739 24.3351 66.6361 23.5467L65.4565 23.9937C65.844 23.1833 68.8631 21.9237 68.9225 21.2802C68.3149 20.9935 65.9975 22.7683 65.2701 22.8721C65.2934 22.2555 65.7278 22.2472 66.2606 21.8674L68.6421 20.1583C69.2745 19.7027 69.4677 19.8217 69.5987 19.221C68.911 18.9066 66.4554 20.7626 65.4463 20.6361L66.3821 19.7855C66.7672 19.4687 66.9052 19.297 67.3427 18.9969C67.8532 18.6468 69.2469 18.0893 69.5591 17.6059C69.0671 17.3511 66.476 18.9339 65.6286 19.1349C65.7703 18.6591 65.5423 18.8983 66.1069 18.4775C66.8678 17.9103 69.523 16.4508 69.7097 15.7347L67.2597 16.7696C67.7534 15.4264 69.082 14.8215 70.1648 13.9675L68.5473 14.5277C69.0174 13.4423 69.8083 12.8574 69.6861 11.3383C69.0667 11.591 68.1388 12.8621 67.5899 13.3076L68.3351 8.33752C67.6008 9.01598 66.7644 12.3954 66.1109 13.3973C66.0935 13.3623 66.0811 13.3114 66.0761 13.2856L66.2887 11.475C66.4055 10.8679 66.5704 10.1343 66.65 9.5221C66.2949 9.64716 66.1608 9.94033 65.848 10.4408C65.6292 10.7907 65.5164 11.1298 65.1503 11.2332C65.3012 10.7059 65.6565 10.0108 65.9005 9.46128C66.1206 8.96587 66.6966 8.22356 66.4039 7.8124C65.8068 8.57754 64.3837 11.7327 63.6353 12.2364C63.3493 11.6005 64.5376 9.00325 64.6716 8.28842C64.2801 8.56987 62.1122 11.9862 61.806 12.5467C61.8725 10.941 62.8297 9.82617 63.1624 8.62058C61.0043 10.1561 60.3037 13.2767 59.5579 13.8598C59.2259 13.246 60.4813 11.2189 60.3286 10.4262C59.5986 10.9455 59.4303 12.2707 58.9109 12.9843C58.7358 12.2044 59.8966 10.2022 60.1517 9.33359C59.3966 9.77849 58.9025 10.6057 58.4875 11.3872C58.0853 12.1444 57.8327 13.093 57.3854 13.7792C57.4295 12.8685 58.2551 10.8984 58.108 10.4527C57.5489 10.8063 56.8913 13.0209 56.4667 13.7343C56.2659 13.1698 56.6659 12.2396 56.5737 11.6282L56.4999 11.3989C56.2966 11.5623 56.4583 11.3876 56.2793 11.649C55.451 12.8586 55.2999 14.6706 54.4613 15.8351C54.0325 15.1739 55.0781 13.0031 54.9662 12.0484L54.4998 12.3618C53.9337 13.2609 52.8659 15.6681 52.1744 16.0946C52.3204 15.21 52.9701 13.9671 52.8041 13.1215C52.313 13.3512 51.3534 15.3506 50.9921 16.0142L50.3497 16.9128C50.4599 16.1481 51.0428 14.6366 50.8232 14.1168C49.6442 15.0722 49.1809 17.6735 48.0301 18.824L48.7399 16.1685C48.0748 16.5451 48.0355 17.5917 47.3849 18.0128L47.9121 16.0766C46.8912 16.5146 46.2245 17.6885 45.2855 18.314C45.7035 16.3479 47.9149 15.2733 48.5142 14.0465L47.5193 14.4728C47.9888 13.7923 48.6657 13.325 49.6115 12.8607C50.3347 12.5057 51.6367 12.0343 52.1535 11.5864C51.6858 11.3185 49.0152 12.7655 48.4445 12.9251C49.0324 11.6355 52.8244 10.2992 54.6679 9.5914L61.0944 6.74622L57.4838 7.74977C59.9391 5.60791 64.4332 5.80005 67.6909 4.44414C65.3321 3.98045 64.0176 4.87934 62.0579 5.11472C62.7987 4.52213 65.0271 4.13319 65.3068 3.65799L64.9768 3.57798C64.9413 3.57515 64.899 3.57272 64.8614 3.57252L63.7481 3.76365C62.8712 3.92408 60.3172 4.57304 59.5629 4.48354C59.2027 4.4409 59.4876 4.5199 59.266 4.37383C59.7733 4.20815 60.3781 3.90529 60.8828 3.67172C61.3844 3.43958 62.0086 3.27087 62.3903 2.86941C59.6317 2.92659 58.7574 3.91054 56.827 4.67527C57.1921 3.4517 59.4511 2.35743 60.8027 1.96769C57.9862 1.96264 58.2523 2.27379 58.2519 1.43389L58.2473 1.23791C52.6517 1.12517 47.742 2.3342 43.1579 4.3019C40.9529 5.24847 39.0902 6.19969 37.2044 7.39983C33.3902 9.82738 32.7832 10.7216 29.8425 13.4828C27.7503 15.4472 25.7056 18.8812 24.2958 21.3954C22.7006 24.24 21.234 27.9163 20.5172 31.2422C20.1886 32.767 19.9542 33.4768 19.5438 34.7808L19.5432 34.7814Z" fill="#E6BCA4"/>
<path fill-rule="evenodd" clip-rule="evenodd" d="M48.5142 77.4314L67.3385 77.4324C65.2934 78.0512 65.7384 78.1621 62.9704 78.4971C59.6028 78.9046 50.598 79.0909 48.5142 77.4314ZM62.9061 76.0144L44.9954 76.0518C43.5356 76.0518 42.7778 75.7261 41.6707 75.1392C41.0641 74.8175 39.1411 74.1077 38.916 73.5616C40.0318 73.4139 73.1917 73.426 76.4695 73.5186C75.3216 74.6436 72.3539 75.899 70.9134 76.0437C68.6271 76.2732 65.3164 76.0146 62.9061 76.0146V76.0144ZM74.5553 72.3437L37.5689 72.3811C36.564 72.3811 36.1622 71.9184 35.5383 71.482L34.2606 70.5734C33.803 70.1735 34.0268 70.5966 33.8689 69.9693L81.567 69.9683C81.1708 70.7092 80.0439 71.7426 78.9943 72.1542C77.9676 72.5568 75.765 72.3435 74.5553 72.3435V72.3437ZM30.9706 67.4817L84.6474 67.4383C84.1897 67.8997 84.0284 68.634 82.8348 68.9744C81.8471 69.2561 41.4518 69.0467 36.4039 69.0831C35.4711 69.0898 33.7409 69.1975 32.9307 68.9736C31.679 68.6277 31.4724 67.9242 30.9706 67.4817ZM29.3008 65.5292H86.3502C86.211 66.6568 85.0606 66.6638 83.8755 66.657L35.5302 66.6271C34.3175 66.6271 33.1018 66.6188 31.8895 66.6283C30.5612 66.6384 29.5617 66.7376 29.301 65.5292H29.3008ZM90.4825 29.3052L87.9729 25.6642C87.2972 24.7792 87.2894 25.1293 87.2698 24.5501C88.1436 24.5901 88.9141 25.6821 89.3655 26.3127C89.9569 27.1389 90.4131 27.9905 90.4825 29.3052ZM85.5559 13.349C85.1331 13.8363 84.9466 14.1153 84.3336 14.4182L83.5305 12.28L85.5559 13.3492V13.349ZM70.3185 11.4053C70.3129 11.2013 70.896 10.5048 71.3517 10.2113C71.5979 10.6909 71.7254 10.921 71.3182 11.2548C70.3393 12.0573 70.3229 11.4088 70.3185 11.4053ZM19.543 34.7812C19.9532 33.4772 20.1876 32.7674 20.5164 31.2426C21.2332 27.9169 22.6998 24.2406 24.295 21.3958C25.705 18.8814 27.7495 15.4474 29.8417 13.4832C32.7824 10.722 33.3892 9.82778 37.2036 7.40023C39.0894 6.20009 40.9523 5.24867 43.1571 4.30229C47.741 2.33459 52.6506 1.12556 58.2464 1.2383L58.251 1.43429C58.2513 2.27418 57.9853 1.96303 60.8019 1.96808C59.4503 2.35783 57.1912 3.45209 56.8261 4.67567C58.7566 3.91073 59.6309 2.92698 62.3895 2.8698C62.0078 3.27147 61.3836 3.44017 60.882 3.67212C60.3773 3.90568 59.7725 4.20855 59.2652 4.37422C59.4868 4.5203 59.2018 4.4413 59.5621 4.48393C60.3164 4.57323 62.8706 3.92427 63.7473 3.76405L64.8606 3.57292C64.8982 3.57312 64.9405 3.57554 64.976 3.57837L65.306 3.65838C65.0263 4.13339 62.7979 4.52232 62.0571 5.11511C64.0168 4.87973 65.3313 3.98084 67.6901 4.44453C64.4324 5.80045 59.938 5.6081 57.483 7.75017L61.0936 6.74662L54.6671 9.59179C52.8236 10.2996 49.0316 11.6361 48.4437 12.9255C49.0144 12.7661 51.685 11.3189 52.1527 11.5868C51.6359 12.0349 50.3339 12.5061 49.6107 12.8611C48.6649 13.3254 47.988 13.7927 47.5185 14.4732L48.5134 14.0469C47.9141 15.2737 45.7027 16.3483 45.2847 18.3144C46.2237 17.6887 46.8905 16.515 47.9113 16.077L47.3841 18.0132C48.0347 17.5921 48.074 16.5455 48.739 16.1689L48.0293 18.8244C49.1801 17.6739 49.6434 15.0726 50.8224 14.1172C51.042 14.637 50.4589 16.1485 50.3489 16.9132L50.9913 16.0146C51.3526 15.351 52.3122 13.3514 52.8033 13.1219C52.969 13.9675 52.3196 15.2104 52.1735 16.095C52.8651 15.6687 53.9329 13.2613 54.4989 12.3622L54.9654 12.0488C55.077 13.0035 54.0317 15.1743 54.4605 15.8355C55.2991 14.671 55.4501 12.859 56.2785 11.6494C56.4575 11.388 56.2957 11.5625 56.4991 11.3993L56.5729 11.6286C56.665 12.24 56.2653 13.1702 56.4659 13.7347C56.8905 13.0211 57.5481 10.8067 58.1072 10.4531C58.2543 10.8988 57.4287 12.8689 57.3846 13.7796C57.8319 13.0934 58.0845 12.145 58.4867 11.3876C58.9017 10.6061 59.3958 9.77909 60.1508 9.33399C59.8956 10.2026 58.7348 12.2048 58.9101 12.9847C59.4293 12.2711 59.5976 10.9459 60.3278 10.4266C60.4805 11.2193 59.2251 13.2464 59.5571 13.8602C60.3029 13.2771 61.0035 10.1567 63.1615 8.62097C62.8289 9.82637 61.8717 10.9412 61.8052 12.5471C62.1114 11.9866 64.2793 8.57026 64.6708 8.28881C64.5367 9.00385 63.3485 11.6009 63.6344 12.2367C64.3829 11.7331 65.8058 8.57774 66.4031 7.8128C66.6958 8.22396 66.1197 8.96627 65.8997 9.46168C65.6557 10.0112 65.3004 10.7061 65.1495 11.2336C65.5156 11.1302 65.6284 10.7911 65.8472 10.4412C66.16 9.94093 66.2939 9.64776 66.6491 9.52249C66.5696 10.1349 66.4047 10.8683 66.2879 11.4754L66.0753 13.286C66.0805 13.312 66.0927 13.3629 66.1101 13.3977C66.7636 12.3958 67.5999 9.01658 68.3343 8.33791L67.5891 13.308C68.138 12.8627 69.0659 11.5914 69.6853 11.3387C69.8077 12.8578 69.0166 13.4427 68.5465 14.5281L70.164 13.9679C69.0812 14.8219 67.7526 15.4268 67.2589 16.77L69.7089 15.7351C69.5222 16.4512 66.867 17.9107 66.1061 18.4779C65.5415 18.8987 65.7695 18.6595 65.6278 19.1353C66.4752 18.9341 69.0663 17.3515 69.5583 17.6063C69.2463 18.0897 67.8524 18.647 67.3419 18.9973C66.9044 19.2974 66.7664 19.4691 66.3812 19.7859L65.4455 20.6365C66.4546 20.763 68.91 18.9068 69.5979 19.2214C69.4669 19.8221 69.2737 19.7031 68.6413 20.1587L66.2598 21.8678C65.727 22.2476 65.2926 22.2559 65.2693 22.8725C65.9967 22.7687 68.3141 20.9939 68.9216 21.2806C68.8625 21.9241 65.8434 23.1837 65.4557 23.9941L66.6353 23.5471C66.0731 24.3357 65.3427 24.9495 64.6498 25.6807C64.1141 26.2458 63.0996 27.4341 62.8261 28.2327C64.3913 27.4813 65.3639 24.9473 67.743 24.602C66.9649 26.1654 64.4087 26.9582 63.598 28.5144L66.6866 26.9659C66.591 27.5102 66.8289 27.1607 66.2484 27.5856C65.0237 28.4817 62.6133 29.9556 62.1663 31.268C63.0998 31.1048 64.6562 29.5121 65.704 29.1595C65.2128 30.2235 62.9962 31.3341 62.121 33.4137C62.9694 32.9127 63.7547 32.1443 64.3784 31.4143C65.3635 30.2617 65.3447 31.0921 63.7849 32.585C63.2203 33.1254 62.7363 33.5404 62.6373 34.6698C63.1726 34.3658 63.4254 33.8538 63.8523 33.3857C64.0897 33.1252 64.2716 33.0084 64.5217 32.7419C64.8453 32.3973 64.7624 32.2809 65.1691 32.209C65.2727 33.1076 62.5664 34.5555 62.2298 36.7998L63.8182 35.1129C64.1618 34.7006 63.9869 34.7246 64.4684 34.6795C64.1466 36.3155 62.2532 36.6723 62.3775 39.1542C62.8305 38.7289 63.2301 37.7823 63.7132 37.2019C63.7382 37.9567 62.9838 39.889 62.7955 40.7798C63.2018 40.7156 63.3018 40.2933 63.4701 39.9082C63.6447 39.5088 63.743 39.1429 64.0204 38.8184C64.3257 40.0753 63.7074 41.5316 63.6847 42.8221C63.6773 43.2468 63.5653 42.8845 63.7795 43.3306C64.3708 42.9354 64.5315 41.3132 64.7121 40.5637C64.8487 39.9959 64.7532 39.9701 65.1335 39.6579C65.4523 40.3966 65.6422 41.7969 66.1095 42.4148C66.3756 42.0624 66.2151 41.6965 66.1085 41.111C66.0206 40.6279 65.9286 40.0933 65.8446 39.6058C65.6871 38.6897 65.4421 37.6082 65.3813 36.7121C66.0424 37.3817 66.144 39.335 66.6918 40.2044C66.7057 40.1782 66.7209 40.1032 66.7229 40.121C66.7249 40.1392 66.7471 40.0521 66.7491 40.0349C66.8012 39.5914 66.7916 40.1367 66.7662 39.7256C66.6728 38.2123 66.2348 36.6757 66.069 35.1626C66.5862 35.6483 66.7281 36.6549 66.9409 37.3231C67.0621 37.7039 67.1781 38.0292 67.3016 38.4262C67.3403 38.5511 67.4438 38.9221 67.4719 38.9861C67.7989 39.7286 67.4214 39.2679 67.9129 39.4728L67.0212 33.6103C67.717 33.7792 67.3266 33.5002 67.8386 34.6563C68.3568 35.8265 69.084 37.1509 69.4154 38.3404C69.7855 37.8882 69.321 36.7673 69.1936 36.232C69.1092 35.8777 69.0212 35.5116 68.9283 35.1695C68.9134 35.1149 68.8088 34.7109 68.8072 34.6919L68.9162 34.0944C69.1409 34.7951 70.0179 36.5763 70.6537 36.8818L68.6986 31.7582C69.2705 32.0649 69.547 33.7386 70.2644 33.6924C69.9939 33.0733 68.779 30.3538 68.769 29.8465C70.1099 30.8136 70.7948 32.8793 72.1001 33.9463C71.9594 32.6682 71.3062 31.4222 70.7778 30.5156C70.4934 30.0279 70.1892 29.5684 69.8833 29.0718C69.6506 28.694 69.0854 28.0757 69.313 27.6211C69.7404 27.7727 69.8412 28.1226 70.1323 28.5275C70.3874 28.8821 70.6333 29.1708 70.8884 29.523L71.983 31.0597C72.3592 31.4846 71.9879 31.2905 72.5629 31.4424C72.1059 29.7994 70.3013 27.6466 69.8348 25.9509C70.2337 26.166 70.4245 26.5067 70.7078 26.9178L73.1096 30.1289C72.8601 27.2375 70.3109 25.2825 70.1466 23.6369C70.8962 23.6666 71.5085 25.1053 71.9031 25.7133C72.169 26.1228 72.4008 26.4786 72.6523 26.8679L73.5781 28.0943C73.2254 25.3239 71.0751 23.518 70.594 21.7479C70.4433 21.1935 70.4872 21.5402 70.6237 21.283C70.7479 21.3843 70.7058 21.3301 70.8439 21.4984L71.445 22.5048C71.7143 22.9814 71.9802 23.4091 72.2534 23.8908C72.5485 24.4113 72.7096 24.7002 73.0046 25.1891C73.1811 25.4819 73.2286 25.6007 73.3729 25.8519C73.5332 26.1307 73.6418 26.3224 73.9155 26.3661C73.5352 25.3728 73.0747 24.3337 72.6667 23.3295C72.4724 22.8509 71.3711 20.7585 71.6298 20.2872C72.0762 20.3676 71.9388 20.2593 72.1904 20.8701L74.0896 25.2708C74.4639 26.0965 74.6497 26.7196 74.9923 27.0041C75.2572 26.4574 73.3717 21.0594 73.2416 20.3718C73.6799 20.5308 73.7474 20.847 74.0073 21.3825C74.2185 21.8179 74.3421 22.1272 74.5743 22.5852C74.9699 23.3651 75.3288 24.4131 75.9043 24.9501C76.2221 22.4098 73.962 20.1294 73.5933 17.6455C74.4736 18.5363 75.1378 20.128 75.5516 21.4473C75.6937 21.9001 75.7953 22.5955 76.1571 22.899C76.4303 22.4888 76.0654 21.7774 75.9025 21.2388C75.4728 19.8186 74.5166 17.5945 74.4417 16.1847C75.1765 16.8336 76.3792 21.2679 77.1765 22.1254C77.3372 21.8597 77.2652 22.1947 77.2614 21.7409C77.2562 21.137 77.0198 20.5013 76.9012 19.9324L76.5942 17.7378C76.8869 18.0835 77.0615 18.5837 77.3003 19.0923C77.4251 19.358 77.5041 19.5643 77.6071 19.8085L78.0962 20.6011C78.1862 19.0513 77.7444 17.9273 77.0923 16.8096C76.7687 16.255 75.422 14.2693 75.8664 13.6189L76.076 13.8703C76.6663 14.7455 77.0208 15.7673 77.4869 16.712C77.8211 17.3895 78.3671 18.8721 78.8709 19.4141C79.1787 19.7453 78.7967 19.5406 79.2153 19.6247C79.3837 19.164 77.8069 14.3281 77.5955 13.3375C78.1425 13.8101 78.7124 15.6883 78.9921 16.3617C79.3073 17.1209 79.7822 18.8923 80.4423 19.4059L78.9262 12.0642C80.1126 13.7541 80.5835 14.91 80.9131 17.3866C81.794 16.3073 80.9392 14.6689 81.2089 13.4969L81.8076 14.8423C82.0112 15.1765 81.7543 14.7942 81.9419 15.0405C81.9683 15.0753 82.0004 15.1088 82.0263 15.1403L82.1242 13.5698C82.6382 14.0297 82.6919 14.7732 83.3726 15.0039C83.0736 13.8676 81.8908 12.3042 81.4055 11.1221C81.8894 11.4548 83.7549 13.7917 83.9517 14.67C83.6175 15.6333 82.4362 16.3712 82.0375 17.4036C82.6208 17.3438 84.2439 15.6282 85.0339 15.1799C84.8103 15.7291 84.2677 16.2289 83.8593 16.7132C83.4043 17.2531 82.9594 17.5281 82.741 18.1599C83.3862 18.0918 84.1465 17.2078 84.8566 16.9054C84.5354 17.7143 82.8258 18.7545 82.3889 19.6346C83.2728 19.3317 84.8045 18.1126 85.5818 18.0669C85.5417 19.1335 82.6266 19.7958 82.3352 20.78L84.8712 19.9829C83.8876 21.0212 82.1317 21.5895 81.5355 22.8917L84.7378 21.2422C84.3771 21.9924 82.4881 22.8838 81.8986 23.5898C82.6819 23.6954 84.4254 22.6402 85.3564 22.4272L85.2023 22.5967C84.1637 23.6134 82.8661 24.0567 82.1499 25.3548C82.8005 25.0996 84.2469 24.0718 84.831 24.1062L81.9619 26.5418C81.6113 26.8346 81.1374 27.0251 81.1702 27.528C81.8333 27.3011 82.7005 26.6459 83.4057 26.2915C83.0634 26.9764 82.5967 27.3126 82.0651 27.8206C81.5495 28.3129 81.2404 28.895 80.8769 29.4561C81.6726 29.3761 83.795 27.2492 84.9185 26.9399C84.3102 28.3097 82.1297 28.7985 81.7155 30.7969C82.7296 30.2619 83.8341 28.9284 84.8664 28.4996C84.448 29.4189 82.119 30.8672 82.0214 31.6612C82.7955 31.5119 84.3336 29.8117 84.5873 30.1196C84.7232 30.4677 82.2577 32.6296 81.9732 33.3685C82.824 33.0977 84.2883 31.6388 85.0001 31.0286C84.2406 32.6185 82.4446 33.358 82.1755 35.6441C82.9494 35.0527 83.675 33.9031 84.3721 33.0842C84.771 32.6155 84.7526 32.2758 85.2283 32.3872L85.2225 32.5532C84.9598 33.5218 82.421 35.5613 83.6133 35.7025C83.7744 35.6627 83.8651 35.4277 83.9972 35.2154C84.2769 34.7658 84.2072 34.7533 84.627 34.4858C84.3797 35.4903 83.0458 36.7994 82.9011 37.6696C83.4481 37.4591 83.5557 37.038 84.1549 36.7028L83.183 38.5905C84.122 38.2985 84.7103 36.3331 85.591 36.2931C85.376 37.0548 84.4508 37.5657 84.1008 38.5115C85.188 38.1191 85.1113 37.4154 86.0934 37.1079C85.786 38.0809 84.5332 39.2873 84.0665 40.3194C84.8608 40.2642 85.0281 39.2991 85.9058 38.9263C85.7407 39.8258 85.0662 40.6625 84.7328 41.5773C85.5726 41.1756 85.6331 40.2565 86.3771 39.9274L85.2269 42.6308L85.7527 42.2616C86.137 41.8814 85.6792 42.1339 86.24 41.806L85.5163 44.7563C85.9467 44.4934 86.0849 44.0249 86.3887 43.6515L86.736 45.3282C87.0652 44.8918 87.044 43.8802 87.16 43.2365C87.2564 43.3789 87.5094 43.6624 87.6599 43.881C87.9208 44.26 88.0388 44.4886 88.4035 44.6619L87.5872 42.3384C88.2723 42.3281 88.1627 42.9773 88.8642 43.3121C88.5598 42.3366 87.7168 41.8577 87.3684 40.918C88.0741 41.0469 88.1817 41.8272 88.9119 41.9182C88.7834 41.3759 87.8244 40.4647 87.4461 39.7207C88.0821 40.0311 88.2454 40.3422 88.7979 40.542C88.4983 39.7512 87.3423 38.7762 87.2002 37.9997C87.1974 37.9848 87.2012 37.9335 87.2001 37.9215C87.1988 37.9096 87.1984 37.8686 87.2065 37.8437C87.7373 37.7449 88.1991 39.3564 88.9608 39.7735L88.0549 37.9147C88.524 38.0937 88.6071 38.268 89.0954 38.5066L88.541 36.0876C89.0145 36.3939 88.9201 36.6256 89.2912 36.5828C89.3814 36.2161 88.8147 35.6793 88.4983 35.2626C88.1951 34.8632 87.6361 34.2451 87.5144 33.8079C88.1951 34.2904 89.1449 35.474 89.8366 35.6572C89.4852 34.7367 88.2076 33.8986 87.695 32.9228L88.785 33.5752C88.5218 33.0985 88.2701 32.6933 87.9747 32.2645C87.6323 31.7677 87.257 31.3986 87.0361 30.7738C87.6737 30.8722 87.8849 31.4058 88.3126 31.9225C88.6734 32.3583 89.0333 33.0131 89.5507 33.1616C89.3094 32.1334 87.8535 30.6997 87.5044 29.587C87.9839 29.7553 89.41 31.0339 89.729 31.3721C90.1769 30.6876 89.5269 31.0518 90.3658 30.8757L87.9164 27.1686C87.5627 26.516 87.7058 26.9334 87.8417 26.7231C88.022 26.6849 89.104 28.1964 89.3555 28.5239C89.6843 28.9518 89.7485 29.0761 90.1021 29.5355C90.3638 29.8755 90.6905 30.3819 91.0533 30.5874C90.6247 29.4644 90.3883 30.0626 90.6349 28.711C90.7728 27.9559 90.5901 27.3641 90.3109 26.6845C89.8276 25.5074 89.2052 25.0534 88.5941 24.145L88.5021 23.7169C88.9977 23.7914 90.3105 25.7343 90.6664 26.1767C90.7265 26.2513 91.0117 26.6055 91.0582 26.6546C91.5329 27.1575 91.0307 26.8538 91.6218 27.0629C90.9858 25.4213 89.3832 23.906 88.8243 22.2609C89.4549 22.4145 90.325 23.9629 90.7085 24.5137C90.9992 24.9315 90.9854 25.0455 91.4739 25.3102C91.2359 24.6343 90.5945 23.7963 90.5895 23.2196C91.2892 23.5308 91.624 24.2385 92.2542 24.1484C92.0777 23.7292 91.5631 23.3291 91.2237 22.9685C90.7231 22.4365 90.5736 22.2696 90.1466 21.7065C89.5549 20.9266 88.7872 19.7093 88.5933 18.5237C89.0696 19.3456 90.5386 21.6283 91.1143 22.1058C91.3782 21.6906 91.0137 21.4012 90.7035 20.8571C90.5009 20.5019 90.1029 19.7944 90.0084 19.4002C90.5566 19.4982 90.4632 19.7641 90.7578 20.3591C90.9676 20.783 91.1459 21.0992 91.3605 21.5081C91.7601 22.2696 92.1781 22.9939 92.5698 23.813C94.2237 27.2712 95.3126 31.0706 95.8164 34.9406C96.1352 37.3891 96.5944 39.2227 95.0868 40.8225C94.8251 40.6964 95.0319 40.8215 94.8109 40.6483C94.7409 40.5934 94.6397 40.501 94.5758 40.4388C93.4334 39.3227 91.6366 38.6596 90.9085 40.7366C91.7998 40.3279 92.8866 40.0707 93.3683 41.1375C91.1567 40.9821 91.5234 40.9928 90.8562 42.7063C90.3957 43.8891 89.6855 44.2023 89.3848 45.3751C89.9631 45.185 90.3781 44.972 90.9365 44.7001C91.203 44.5702 93.203 43.6165 92.0795 44.6472C91.7767 44.925 91.8086 44.8201 91.5503 45.1719C91.2543 45.5747 91.0828 46.0421 91.0507 46.6785L92.8952 45.0692C92.7762 45.695 92.5478 46.1562 92.3895 46.7496C92.2167 47.3972 92.2366 48.2989 92.6113 48.7179C93.0792 48.0522 93.2094 47.0824 93.7292 46.5985C94.0578 47.0121 94.0703 48.1577 94.125 48.8287C94.6952 48.2514 94.784 47.2374 95.0551 46.4979C95.3413 45.7176 95.105 46.0489 95.5238 45.932C96.0246 47.1848 93.0299 57.2884 91.2597 58.0885C90.1556 58.5876 88.009 59.2307 86.6536 58.8656C86.4412 57.3721 86.6752 56.0422 86.3136 54.343C85.9883 52.8162 85.5052 51.95 85.054 50.6701L87.596 50.8422C87.2592 50.351 86.6019 50.1878 86.1064 49.796C86.557 49.6209 87.1766 49.6037 87.5333 49.283C86.2825 48.4959 86.1773 48.9137 84.8366 49.3319C85.0185 48.7125 85.4046 48.3437 85.4034 47.7863C84.3154 47.7255 84.6158 48.2621 84.1346 49.1477C83.0949 49.1311 82.4615 48.5234 81.8433 49.4687L83.3213 49.8362C82.4875 50.2074 81.2067 50.6937 82.127 51.8743C82.5222 51.2471 82.0086 51.1309 83.043 51.0485L82.8278 53.8147C83.3329 53.5819 83.5527 52.2842 83.7668 51.8755C83.9329 52.1587 84.1092 52.5024 84.294 52.8572C84.3983 53.0574 84.4342 53.1556 84.5318 53.3463L84.9644 53.6872C85.1307 52.6115 84.9402 54.5362 85.0013 53.4462L84.9636 52.1583C84.9706 52.1214 84.9919 52.0688 84.9989 52.0393C85.0057 52.0102 85.0199 51.9591 85.0392 51.9229C85.8659 53.1053 86.4059 57.1048 85.9244 58.3047C85.5818 59.1585 84.013 58.9678 83.049 59.0902C81.8066 59.248 80.9895 59.6204 79.6746 59.1381C78.3303 58.6449 75.9075 57.3218 74.7988 56.5613C73.6229 55.7547 72.7407 54.7324 71.9177 53.7393C71.4943 53.2284 71.0615 53.2096 71.3486 52.7245C71.5063 52.5584 71.2713 52.3943 72.3337 52.878C72.8296 53.1039 73.012 53.216 73.5468 53.2789C73.1955 52.4048 72.2798 51.7504 71.982 50.9899L74.8767 50.9746C73.9488 49.3465 72.829 50.5099 71.8205 49.7625C72.0103 49.2881 72.5014 49.2733 73.0785 49.0097C73.5624 48.7886 74.0077 48.5937 74.4026 48.3444L71.4811 48.3381C71.5957 47.8453 71.8734 47.5028 71.6422 47.0573C71.0369 47.4356 70.2233 48.3518 69.7524 48.8571C69.3264 48.4066 68.9735 47.1105 68.77 46.4866L68.4009 47.2307C68.2987 47.5511 68.2207 47.8758 68.1552 48.2284C67.2451 48.0292 66.5279 47.3402 65.842 48.1474C66.17 48.564 66.696 48.7486 67.0996 49.0986C67.119 49.1154 67.1565 49.1509 67.1834 49.1788C66.2584 49.2853 65.0936 49.3675 65.0159 50.2761L66.2015 50.3969C65.5344 51.0849 64.7445 51.0974 64.6664 52.3933C65.33 52.1713 66.5854 51.4413 67.0545 51.7456C67.0128 52.1925 66.992 51.9389 66.6347 52.3398C66.4424 52.5557 66.3071 52.7297 66.1825 53.0675C65.9322 53.7462 65.9899 54.4711 66.1063 55.2013C66.4484 54.8403 66.7223 54.4127 67.0513 53.944L68.0031 52.6459C67.9811 53.3833 67.6494 55.5749 68.0019 56.0093C68.5327 55.531 68.6357 54.0737 69.0212 53.4057C69.0407 53.4383 69.0663 53.452 69.0739 53.5068C69.0813 53.5607 69.1148 53.5844 69.1246 53.6074L69.6781 55.265C69.9644 55.9907 70.2295 56.2501 70.908 56.5158C70.8713 55.9713 70.8144 55.4579 70.7533 54.918L70.6641 53.7486C70.7068 53.428 70.6621 53.5793 70.7687 53.3803C71.2448 53.5722 71.2521 53.7991 71.6262 54.3323C73.5975 57.1429 76.1068 58.5835 79.3123 59.9477C78.4086 60.4476 76.7451 60.9646 75.6269 61.1951C72.7968 62.0174 70.1019 61.817 67.1226 61.8269C65.5942 61.832 63.2046 63.0248 59.5962 63.4376C53.1251 64.1779 39.9472 63.8486 32.4719 63.8195C31.511 63.8156 28.8157 63.9148 28.0715 63.7376C25.786 63.1933 19.4863 49.4841 20.7587 48.373C22.0445 47.7948 23.7664 48.8654 25.0528 49.0588C25.3572 48.1158 26.4853 46.8036 27.2097 46.3674C29.2205 45.1561 32.6728 46.3122 33.3691 49.1465C33.8046 50.9186 33.0948 51.8003 32.4923 52.9695C35.6503 51.5403 35.3038 52.8309 36.2578 54.4584C38.2682 54.6659 39.416 54.4768 40.4399 55.9715C41.2601 57.1686 40.9719 59.5091 40.5295 60.9705C40.0091 61.1034 37.6513 61.6039 37.2523 61.596C36.0089 61.5715 37.3749 60.6017 34.2821 60.5423C33.7074 59.6729 33.6527 58.0269 31.5275 56.4384C30.005 55.3005 28.2769 54.7548 26.4112 55.8606C29.2457 55.7951 31.798 56.12 33.0291 58.8868C33.38 59.6756 33.5046 60.9181 33.7823 61.5119C36.2133 61.0527 35.4166 61.1802 36.8403 62.5882C39.1968 61.5562 39.0038 61.2499 41.9865 61.9314C41.5372 61.3133 40.7127 61.2323 41.0102 59.841C41.2156 58.8809 41.8414 58.2305 42.4413 57.903C45.3436 56.3188 46.1349 59.5222 46.4315 59.937C46.3122 57.802 46.8793 56.1216 49.2751 55.8648C51.1827 55.6604 52.8701 56.7027 52.827 59.2559C53.4476 58.5964 53.4039 57.2195 55.0606 57.8188C55.8491 58.1039 56.9103 59.2961 57.4904 59.2741C58.3466 59.2416 59.5134 58.2047 60.7275 59.1565C61.6779 59.9016 61.6555 60.5747 62.323 61.4847C62.8341 60.666 63.9821 55.8917 68.5005 58.8013C69.101 59.188 69.1751 59.4961 69.8069 59.2347C71.4679 58.5471 71.981 59.3959 72.8154 60.0485L72.7036 59.462C72.2479 59.1311 72.1141 58.7302 71.539 58.5304C70.6774 58.2309 70.3217 58.6025 69.5955 58.5926C69.0639 58.5853 67.6396 57.643 66.6019 57.4246C63.9152 57.0991 63.5461 58.5461 62.3228 59.3198C59.3601 58.2132 60.5688 58.2097 57.0806 58.7385C55.4894 56.9203 56.308 57.0496 53.1153 57.3973C52.5998 56.223 51.3987 55.228 49.5059 55.3104C47.1078 55.4149 46.5335 56.9367 45.8684 57.5575C43.7382 56.5974 43.6636 56.8605 41.5961 57.5967C41.0128 54.7081 39.6871 53.9626 36.4953 54.0115C35.8653 51.9189 35.9354 52.3355 34.0735 51.5878C33.1662 49.3055 35.2263 47.7481 30.5981 45.5525C26.6963 44.8561 26.5184 46.3748 24.5537 48.5189C22.9719 47.1537 22.2685 47.7037 20.2872 47.8382L19.6961 44.7165C17.1701 46.7143 22.0603 57.0629 23.0721 59.0961C24.1126 61.1875 25.6399 63.301 26.9031 64.9208C27.6373 65.8623 28.3917 66.6822 29.1407 67.511C32.7604 71.5163 38.5111 75.3125 43.4707 77.2901C53.6067 81.332 65.517 80.9643 75.1957 75.9641C80.1371 73.4113 80.3242 72.9343 83.8319 70.1301C85.9367 68.4475 89.0071 64.6644 90.5586 62.3773C91.7432 60.6308 93.0473 58.3225 93.9847 56.1416C107.691 24.2488 77.6077 -9.88096 43.7153 2.66271C41.3999 3.51958 39.124 4.64536 37.2413 5.82308C35.0381 7.20142 33.6308 8.24618 31.7505 9.97507C25.1748 16.021 19.0753 25.8904 18.7258 35.8803C19.3268 35.3855 19.2256 35.0953 19.5428 34.7822L19.543 34.7812Z" fill="#694412"/>
<path fill-rule="evenodd" clip-rule="evenodd" d="M75.6274 61.1943C75.8672 59.6541 73.8183 58.5621 72.7042 59.461L72.816 60.0475C71.9817 59.3949 71.4685 58.5461 69.8076 59.2337C69.1758 59.4951 69.1016 59.187 68.5011 58.8003C63.9827 55.8907 62.8348 60.665 62.3236 61.4837C61.6561 60.5738 61.6786 59.9008 60.7282 59.1555C59.5141 58.2035 58.3473 59.2406 57.491 59.2731C56.9107 59.2951 55.8497 58.1029 55.0612 57.8178C53.4045 57.2185 53.448 58.5954 52.8276 59.2549C52.8707 56.7017 51.1833 55.6593 49.2757 55.8638C46.8802 56.1206 46.3131 57.801 46.4321 59.936C46.1355 59.5212 45.3442 56.3178 42.442 57.902C41.842 58.2295 41.2162 58.8801 41.0108 59.84C40.7133 61.2313 41.5378 61.3123 41.9871 61.9304C39.0044 61.2487 39.1974 61.5552 36.8409 62.5872C35.4175 61.1792 36.214 61.0519 33.783 61.5109C33.5052 60.9169 33.3806 59.6746 33.0297 58.8858C31.7988 56.119 29.2466 55.7941 26.4118 55.8596C28.2775 54.7538 30.0056 55.2995 31.5281 56.4374C33.6533 58.0259 33.7082 59.6719 34.2827 60.5413C37.3756 60.6007 36.0096 61.5705 37.2529 61.595C37.6519 61.6029 40.0097 61.1024 40.5301 60.9694C40.9728 59.5083 41.2607 57.1678 40.4406 55.9705C39.4164 54.4758 38.2689 54.6649 36.2584 54.4574C35.3044 52.8299 35.6509 51.5393 32.4929 52.9685C33.0955 51.7993 33.8052 50.9176 33.3698 49.1455C32.6733 46.3112 29.2211 45.1551 27.2103 46.3664C26.4857 46.8028 25.3576 48.1148 25.0534 49.0578C23.767 48.8644 22.0449 47.7938 20.7593 48.372C19.4869 49.4829 25.7866 63.1921 28.0721 63.7366C28.8164 63.9138 31.5117 63.8146 32.4725 63.8185C39.9478 63.8476 53.1258 64.1769 59.5968 63.4366C63.2053 63.0238 65.5948 61.831 67.1233 61.8259C70.1025 61.816 72.7974 62.0164 75.6276 61.1941L75.6274 61.1943Z" fill="#EEECEB"/>
<path fill-rule="evenodd" clip-rule="evenodd" d="M101.631 113.496L94.8302 98.1822C94.5681 97.6046 92.8827 93.4762 92.3998 93.0317L86.8645 121.599C87.6636 121.728 88.7382 121.646 89.5556 121.653C91.1294 121.667 91.01 121.974 91.2498 120.466C91.9093 116.32 93.0266 109.268 93.8203 105.582C94.7795 106.964 100.82 122.132 101.547 122.799C101.893 121.633 102.852 119.692 103.41 118.5L107.199 109.982C107.545 109.226 107.834 108.62 108.156 107.871C108.333 107.457 108.459 107.159 108.647 106.749L109.233 105.656L111.858 121.648L116 121.652L111.048 92.9374C109.7 95.6106 102.065 113.042 101.631 113.496H101.631Z" fill="#67420E"/>
<path fill-rule="evenodd" clip-rule="evenodd" d="M31.3849 98.6532C35.2075 98.6532 38.2567 98.7778 40.8574 101.067C44.0242 103.855 45.2994 112.01 40.0365 115.974C37.671 117.755 34.7997 117.807 31.3795 117.807L31.3849 98.653V98.6532ZM27.2763 121.623C29.454 121.815 33.3474 121.721 35.5085 121.535C42.2667 120.956 47.8729 116.302 47.8791 108.346C47.8851 100.829 43.164 95.606 35.7303 94.9307C33.8934 94.7638 28.9841 94.6091 27.2749 94.863L27.2761 121.622L27.2763 121.623Z" fill="#67420E"/>
<path fill-rule="evenodd" clip-rule="evenodd" d="M0.000400759 121.119L0.0404766 121.653L14.6301 121.65L14.6654 117.826L4.10417 117.802V108.953L14.3648 108.919L14.3716 105.135L4.13363 105.075L4.10237 98.6817L14.671 98.6502V94.853C13.091 94.7024 2.45004 94.8081 0 94.8097L0.000400759 121.119V121.119Z" fill="#67420E"/>
<path fill-rule="evenodd" clip-rule="evenodd" d="M60.3403 121.617L74.9493 121.652L74.9579 117.803L64.4715 117.805L64.4537 108.923H74.7009L74.7185 105.079H64.5076C64.3643 103.847 64.4509 100.13 64.4535 98.6542H75.0283L75.0096 94.8099L60.3389 94.8135L60.3401 121.617H60.3403Z" fill="#67420E"/>
<path fill-rule="evenodd" clip-rule="evenodd" d="M30.5988 45.5515C35.2272 47.7471 33.1669 49.3045 34.0742 51.5867C35.9361 52.3343 35.866 51.9179 36.496 54.0105C39.688 53.9616 41.0135 54.7071 41.5969 57.5957C43.6644 56.8597 43.7389 56.5964 45.8691 57.5565C46.5342 56.9356 47.1085 55.4137 49.5066 55.3094C51.3994 55.227 52.6005 56.222 53.1161 57.3963C56.3089 57.0486 55.4902 56.9191 57.0814 58.7375C60.5696 58.2087 59.3609 58.2122 62.3235 59.3188C63.5468 58.5451 63.9159 57.0983 66.6026 57.4236C66.5946 55.7745 65.8658 54.8334 64.1912 54.9983C63.9307 55.0114 62.168 53.3409 60.1341 53.3175C58.0147 53.293 57.0249 54.4313 55.9482 54.8702C54.8528 53.0617 54.8932 52.9039 52.3841 53.1764C51.0247 48.6769 46.9518 50.4323 45.9054 50.522C45.7643 46.4856 43.3864 44.2726 39.9249 44.948C38.6595 45.1949 38.0574 45.7683 37.0777 46.0324C36.6365 44.8258 35.8991 44.2291 34.3109 44.0289C34.4431 43.898 34.3946 43.8715 34.7315 43.7246C34.7427 43.3854 35.0831 43.5284 34.2413 43.3923C33.6161 43.291 32.6547 43.5105 32.0917 43.7955C31.447 44.1218 30.8068 44.7587 30.5986 45.5517L30.5988 45.5515Z" fill="#EEECEB"/>
<path fill-rule="evenodd" clip-rule="evenodd" d="M19.8267 35.8477C18.6286 37.6059 17.5406 39.0758 16.8901 41.682C16.4751 43.3446 15.8906 48.2451 16.7637 49.6239L19.4961 43.1631C20.3984 40.7366 22.1377 38.9162 23.9357 37.7773C25.1969 36.9784 29.9813 35.121 31.7885 35.9122C32.6716 36.2987 33.2192 37.0457 35.1753 37.4835C36.5774 37.7973 38.6553 37.5312 39.6524 37.9658C41.027 38.5648 41.3322 39.8393 42.5413 40.0729C43.9872 40.3521 45.3085 39.0619 45.2907 37.8179C43.7313 36.746 38.9285 36.8642 40.0031 33.127C40.8347 30.2354 42.183 27.9113 44.0163 26.6032C50.0421 22.3034 59.9545 25.3415 61.6761 24.1644C58.4197 23.1608 45.3749 22.9927 41.3172 23.8839C39.0268 24.387 39.6837 26.4117 36.0568 29.5925C34.454 30.9981 34.8854 31.0468 32.3442 30.3606C30.9495 29.984 29.2125 29.5373 27.7539 29.3048L29.8404 33.242C28.132 33.8194 24.1793 34.274 21.9189 34.7228C20.5521 34.9941 20.495 35.125 19.8267 35.8475V35.8477Z" fill="#67420E"/>
<path fill-rule="evenodd" clip-rule="evenodd" d="M31.3794 117.807C34.7997 117.807 37.6709 117.755 40.0364 115.974C45.2991 112.01 44.0241 103.855 40.8573 101.067C38.2568 98.778 35.2074 98.6534 31.3848 98.6534L31.3794 117.807V117.807Z" fill="#EEECEB"/>
<path fill-rule="evenodd" clip-rule="evenodd" d="M74.5553 72.3437C75.765 72.3437 77.9674 72.557 78.9943 72.1544C80.0439 71.7428 81.1708 70.7091 81.567 69.9684L33.8689 69.9695C34.0268 70.5966 33.803 70.1737 34.2606 70.5736L35.5383 71.4822C36.1622 71.9186 36.564 72.3812 37.5689 72.3812L74.5553 72.3439V72.3437Z" fill="#A9D2AB"/>
<path fill-rule="evenodd" clip-rule="evenodd" d="M62.906 76.0144C65.3162 76.0144 68.6271 76.273 70.9134 76.0435C72.3539 75.8988 75.3215 74.6433 76.4695 73.5183C73.1915 73.4258 40.0317 73.4137 38.916 73.5614C39.141 74.1075 41.0641 74.8173 41.6706 75.1389C42.7777 75.7259 43.5356 76.0516 44.9953 76.0516L62.906 76.0142V76.0144Z" fill="#A9D2AB"/>
<path fill-rule="evenodd" clip-rule="evenodd" d="M30.9707 67.4817C31.4725 67.9242 31.679 68.6277 32.9308 68.9736C33.7407 69.1975 35.471 69.09 36.404 69.0831C41.4519 69.0467 81.8472 69.256 82.8349 68.9744C84.0285 68.634 84.1898 67.8997 84.6475 67.4383L30.9707 67.4817Z" fill="#A9D2AB"/>
<path fill-rule="evenodd" clip-rule="evenodd" d="M29.301 65.5292C29.5617 66.7376 30.5612 66.6384 31.8895 66.6283C33.102 66.619 34.3175 66.6271 35.5302 66.6271L83.8755 66.657C85.0605 66.6638 86.2109 66.6568 86.3502 65.5292H29.3008H29.301Z" fill="#A9D2AB"/>
<path fill-rule="evenodd" clip-rule="evenodd" d="M34.7316 43.7246C34.3946 43.8715 34.4433 43.898 34.311 44.0289C35.899 44.2291 36.6366 44.8258 37.0779 46.0324C38.0575 45.7683 38.6599 45.1949 39.9251 44.948C43.3868 44.2726 45.7645 46.4855 45.9056 50.522C46.952 50.4323 51.0247 48.6769 52.3842 53.1764C54.8932 52.9039 54.8527 53.0615 55.9484 54.8701C57.025 54.4311 58.0149 53.2928 60.1343 53.3174C62.1682 53.3411 63.9309 55.0114 64.1914 54.9982C62.5 51.4433 58.6862 52.8247 56.1267 54.2483C55.0625 52.8085 55.0242 52.1755 52.7229 52.6594C51.2792 49.6613 50.3091 49.1935 46.2879 49.7778C46.2793 47.049 45.3395 45.6509 43.5275 44.7777C40.9684 43.5446 39.5824 44.4031 37.4023 45.21C36.8639 44.0824 35.9866 43.5044 34.7314 43.7246H34.7316Z" fill="#684310"/>
<path fill-rule="evenodd" clip-rule="evenodd" d="M48.5142 77.4313C50.5977 79.0909 59.6027 78.9046 62.9703 78.4971C65.7384 78.1621 65.2933 78.0512 67.3384 77.4323L48.5142 77.4313Z" fill="#A9D2AB"/>
<path fill-rule="evenodd" clip-rule="evenodd" d="M81.0225 139.654L81.9428 139.66L82.0001 135.403L86.4776 139.962V133.422L85.5033 133.414L85.5029 137.612C84.7519 137.196 81.861 133.632 81.0285 133.076L81.0225 139.654Z" fill="#67420E"/>
<path fill-rule="evenodd" clip-rule="evenodd" d="M71.7393 136.438L69.2017 136.407L69.1824 137.283L70.6995 137.323C70.3238 139.732 66.9017 139.195 66.7023 136.818C66.4793 134.162 69.3916 133.351 70.7925 135.169L71.4982 134.526C69.1303 131.789 64.7372 133.959 65.8177 137.557C66.756 140.683 71.8411 140.751 71.7395 136.438H71.7393Z" fill="#67420E"/>
<path fill-rule="evenodd" clip-rule="evenodd" d="M22.0504 134.381C24.2239 133.919 24.1031 136.633 22.0504 136.194V134.381ZM21.0874 139.673H22.0512V137.177C22.4877 137.289 22.8339 137.987 23.0848 138.364C24.0426 139.804 23.7587 139.682 25.0561 139.666C24.7345 138.927 23.7971 137.801 23.2954 137.123L23.7881 136.734C24.4824 136.197 24.7475 135.519 24.4708 134.622C24.049 133.257 22.5943 133.398 21.0878 133.398L21.0876 139.673L21.0874 139.673Z" fill="#67420E"/>
<path fill-rule="evenodd" clip-rule="evenodd" d="M29.2698 137.252C29.4403 136.637 29.8721 135.75 30.2143 135.245L31.0367 137.253L29.2698 137.252V137.252ZM27.1211 139.651C27.9929 139.673 28.2598 139.908 28.8017 138.15H31.4942C32.0198 139.891 32.1723 139.673 33.1038 139.673C33.0197 139.347 30.6185 133.57 30.1188 133.114L27.1213 139.651H27.1211Z" fill="#67420E"/>
<path fill-rule="evenodd" clip-rule="evenodd" d="M60.6458 135.249L61.4682 137.253L59.6561 137.231L60.6458 135.249V135.249ZM57.5564 139.653C58.4358 139.673 58.6803 139.911 59.2317 138.15H61.923C62.4508 139.888 62.5909 139.673 63.5353 139.673L61.3738 134.705C61.0848 134.083 60.9518 133.487 60.5504 133.115L57.5562 139.653L57.5564 139.653Z" fill="#67420E"/>
<path fill-rule="evenodd" clip-rule="evenodd" d="M42.6205 139.673H46.042L46.0177 138.765L43.5839 138.75L43.5883 136.74L45.9876 136.686L45.9874 135.829L43.5837 135.785L43.5841 134.36L46.0169 134.299L46.0504 133.397H42.6199L42.6203 139.673L42.6205 139.673Z" fill="#67420E"/>
<path fill-rule="evenodd" clip-rule="evenodd" d="M74.656 139.673H78.0843L78.0532 138.765L75.6194 138.75L75.6238 136.74L78.0144 136.683L78.014 135.838L75.6192 135.784L75.6196 134.36L78.0524 134.299L78.0859 133.398H74.66L74.656 139.673Z" fill="#67420E"/>
<path fill-rule="evenodd" clip-rule="evenodd" d="M94.2858 139.178L94.279 138.287C93.5412 138.612 92.6914 139.169 91.6446 138.688C89.9532 137.91 89.9697 135.144 91.645 134.384C92.7569 133.879 93.5068 134.449 94.2616 134.757L94.291 133.893C93.9811 132.907 89.387 132.658 89.3814 136.536C89.3765 139.78 93.1962 140.503 94.2858 139.178Z" fill="#67420E"/>
<path fill-rule="evenodd" clip-rule="evenodd" d="M37.3187 140L40.109 133.418C39.0484 133.391 39.0929 133.257 38.7061 134.306C38.5667 134.684 38.4122 135.063 38.2537 135.463C37.9804 136.153 37.6752 137.103 37.3301 137.662C37.0015 136.904 36.752 136.257 36.4417 135.47L35.8305 133.886C35.5852 133.391 35.861 133.398 34.6318 133.398L37.3187 140Z" fill="#67420E"/>
<path fill-rule="evenodd" clip-rule="evenodd" d="M98.5473 139.654L99.365 139.678C99.7936 138.189 98.9791 137.716 99.9273 136.129C100.361 135.403 101.165 134.155 101.418 133.398C100.201 133.398 100.406 133.363 99.8802 134.321C99.6133 134.808 99.2518 135.344 99.0727 135.843C98.5998 135.445 97.7652 133.84 97.6021 133.405L96.5212 133.397C96.8202 134.202 97.5592 135.366 97.9916 136.102C99.0246 137.861 98.1922 137.842 98.5473 139.654Z" fill="#67420E"/>
<path fill-rule="evenodd" clip-rule="evenodd" d="M14.7312 134.299L16.1365 134.322L16.1361 139.673H17.0993L17.0999 134.382L18.4876 134.292L18.5204 134.039L18.52 133.397L14.7158 133.4L14.731 134.299L14.7312 134.299Z" fill="#67420E"/>
<path fill-rule="evenodd" clip-rule="evenodd" d="M48.9911 139.673C49.4564 139.673 49.9219 139.67 50.3872 139.677C50.5431 139.68 50.9907 139.695 51.1178 139.681C51.4259 139.645 51.0869 139.713 51.3931 139.633C51.7107 139.551 51.58 139.601 51.7662 139.472L51.7265 138.765L49.9554 138.761V133.398H48.9907L48.9911 139.673V139.673Z" fill="#67420E"/>
<path fill-rule="evenodd" clip-rule="evenodd" d="M90.4827 29.3052C90.4134 27.9905 89.9571 27.1389 89.3658 26.3127C88.9143 25.6821 88.1439 24.5899 87.27 24.5501C87.2897 25.1293 87.2977 24.7792 87.9731 25.6641L90.4827 29.3052Z" fill="#E6BCA4"/>
<path fill-rule="evenodd" clip-rule="evenodd" d="M22.0503 136.194C24.103 136.633 24.2238 133.919 22.0503 134.381V136.194Z" fill="#EEECEB"/>
<path fill-rule="evenodd" clip-rule="evenodd" d="M29.2698 137.252L31.0367 137.253L30.2144 135.245C29.8723 135.75 29.4403 136.637 29.2698 137.252V137.252Z" fill="#EEECEB"/>
<path fill-rule="evenodd" clip-rule="evenodd" d="M84.3339 14.418C84.9468 14.1153 85.1334 13.8363 85.5562 13.3488L83.5308 12.2796L84.3339 14.4178V14.418Z" fill="#E6BCA4"/>
<path fill-rule="evenodd" clip-rule="evenodd" d="M59.6562 137.231L61.4683 137.253L60.6459 135.249L59.6562 137.23V137.231Z" fill="#EEECEB"/>
<path fill-rule="evenodd" clip-rule="evenodd" d="M70.3186 11.4054C70.3231 11.4088 70.3395 12.0573 71.3183 11.2548C71.7255 10.9211 71.5981 10.6909 71.3518 10.2113C70.8961 10.5048 70.313 11.2013 70.3186 11.4054Z" fill="#E4BBA3"/>
</g>
<defs>
<clipPath id="clip0_483_2782">
<rect width="116" height="140" fill="white"/>
</clipPath>
</defs>
</svg>
