<svg width="170" height="55" viewBox="0 0 170 55" fill="none" xmlns="http://www.w3.org/2000/svg">
<g id="Group 2">
<path id="Vector" fill-rule="evenodd" clip-rule="evenodd" d="M2.20003 23.4823C2.51486 23.4288 2.42893 23.9345 2.39305 24.2024C2.84785 23.7144 2.88686 23.626 3.81733 23.443C5.35619 23.14 8.04706 22.8331 9.21011 22.4432L7.78965 19.7849C8.78259 19.9418 9.96515 20.2436 10.9146 20.4978C12.6446 20.9611 12.351 20.9282 13.442 19.9792C15.9111 17.8317 15.4639 16.4647 17.0231 16.125C19.7855 15.5233 28.666 15.6368 30.8829 16.3144C29.7108 17.1091 22.9628 15.0579 18.8606 17.961C17.6126 18.8441 16.6946 20.4134 16.1285 22.3656C15.3969 24.8888 18.6665 24.8089 19.7282 25.5327C19.7404 26.3726 18.8409 27.2437 17.8565 27.0552C17.0333 26.8975 16.8257 26.037 15.8898 25.6325C15.2109 25.3391 13.7964 25.5188 12.8419 25.3069C11.5104 25.0113 11.1375 24.507 10.5363 24.246C9.30601 23.7118 6.04903 24.9659 5.19032 25.5053C3.96629 26.2741 2.78237 27.5033 2.16797 29.1416C2.18188 29.1621 2.1973 29.1715 2.20153 29.2079C2.21271 29.3071 2.36045 29.3442 2.30452 30.1898L2.70693 32.2975C4.05591 32.2066 4.53458 31.8353 5.61142 32.7571C6.94894 31.3095 7.06994 30.284 9.72629 30.7543C9.86803 30.2188 10.3039 29.789 10.7427 29.5686C11.126 29.3761 11.7807 29.2279 12.2061 29.2963C12.7792 29.3882 12.5474 29.2916 12.5398 29.5207C13.3943 29.372 13.9915 29.7624 14.358 30.5236C15.8421 29.9789 16.7856 29.3991 18.5279 30.2317C19.7615 30.8211 20.4012 31.7652 20.4071 33.6076C23.1446 33.213 23.8048 33.5289 24.7878 35.5531C26.3545 35.2264 26.3806 35.6536 27.1051 36.6259C28.8473 35.6648 31.4437 34.732 32.5953 37.1322C33.7352 37.0208 34.2314 37.6563 34.2368 38.7697C34.9433 38.9172 35.9129 39.5534 36.2748 39.5583C36.7692 39.565 37.0113 39.3141 37.5979 39.5163C37.9894 39.6512 38.0805 39.922 38.3907 40.1453C39.1492 39.5382 40.544 40.2757 40.3807 41.3156C41.142 41.1599 42.2744 40.8107 42.8896 40.4734C40.7075 39.5523 38.9991 38.5797 37.6571 36.6821C37.4024 36.3221 37.3975 36.1689 37.0734 36.0393C37.0008 36.1736 37.0312 36.0713 37.0022 36.288L37.0629 37.0775C37.1045 37.4421 37.1432 37.7886 37.1682 38.1563C36.7063 37.977 36.5258 37.8017 36.3309 37.3117L35.9541 36.1926C35.9474 36.1771 35.9247 36.1611 35.9196 36.1247C35.9146 36.0878 35.8971 36.0786 35.8837 36.0565C35.6214 36.5074 35.5512 37.4914 35.1898 37.8143C34.9499 37.5211 35.1755 36.0415 35.1906 35.5434L34.5427 36.4199C34.3185 36.7363 34.1322 37.025 33.8994 37.2688C33.8201 36.7758 33.7807 36.2863 33.9512 35.8281C34.036 35.6 34.128 35.4826 34.2591 35.3368C34.5024 35.066 34.5166 35.2373 34.5449 34.9356C34.2255 34.7303 33.371 35.2231 32.9191 35.3729C32.9723 34.498 33.5099 34.4894 33.9641 34.025L33.157 33.9434C33.2099 33.3299 34.003 33.2743 34.6326 33.2026C34.6144 33.1838 34.5888 33.1598 34.5755 33.1484C34.3008 32.912 33.9426 32.7873 33.7194 32.5062C34.1864 31.9612 34.6746 32.4264 35.2942 32.5609C35.3388 32.3229 35.3917 32.1036 35.4614 31.8873L35.7127 31.3849C35.8513 31.8061 36.0915 32.6812 36.3815 32.9854C36.7021 32.6443 37.2559 32.0256 37.668 31.7703C37.8254 32.071 37.6364 32.3023 37.5583 32.635L39.5472 32.6392C39.2784 32.8077 38.9753 32.9393 38.6458 33.0884C38.2529 33.2663 37.9185 33.2764 37.7894 33.5967C38.476 34.1013 39.2381 33.3157 39.87 34.415L37.8994 34.4254C38.1021 34.939 38.7255 35.3807 38.9646 35.9708C38.6005 35.9284 38.4764 35.8527 38.1388 35.7002C37.4155 35.3736 37.5754 35.4844 37.4682 35.5965C37.2726 35.924 37.5673 35.9368 37.8556 36.2817C38.4158 36.9523 39.0164 37.6425 39.8169 38.187C40.5717 38.7004 42.221 39.5938 43.1362 39.9268C44.0315 40.2524 44.5878 40.001 45.4334 39.8944C46.0897 39.8118 47.1575 39.9405 47.3909 39.3641C47.7187 38.5539 47.3511 35.8536 46.7883 35.0553C46.775 35.0798 46.7655 35.1141 46.7608 35.1339C46.7561 35.1537 46.7416 35.1893 46.7368 35.2143L46.7625 36.0837C46.7209 36.8197 46.8506 35.5202 46.7374 36.2465L46.4429 36.0164C46.3766 35.8876 46.352 35.8212 46.2809 35.6861C46.155 35.4464 46.0351 35.2145 45.922 35.0233C45.7764 35.2992 45.6267 36.1756 45.2828 36.3326L45.4293 34.4649C44.7252 34.5206 45.0748 34.599 44.8058 35.0225C44.1792 34.2254 45.0512 33.8971 45.6188 33.6465L44.6126 33.3983C45.0333 32.7601 45.4645 33.1704 46.1725 33.1816C46.5 32.5835 46.2955 32.2214 47.0363 32.2624C47.0371 32.6387 46.7741 32.8876 46.6503 33.306C47.5631 33.0236 47.6347 32.7415 48.4862 33.273C48.2435 33.4895 47.8216 33.5011 47.5148 33.6193C47.8521 33.8838 48.2996 33.994 48.5289 34.3257L46.7984 34.2094C47.1057 35.0735 47.4346 35.6583 47.6558 36.6893C47.9022 37.8365 47.7427 38.7342 47.8873 39.7427C48.81 39.9892 50.2714 39.5549 51.023 39.2181C52.2281 38.6779 54.2668 31.8563 53.9259 31.0104C53.6408 31.0894 53.8016 30.8657 53.6068 31.3925C53.4222 31.8918 53.3618 32.5765 52.9736 32.9662C52.9364 32.5132 52.9279 31.7398 52.7042 31.4605C52.3505 31.7872 52.2618 32.442 51.9431 32.8914C51.6879 32.6085 51.6744 31.9997 51.7921 31.5625C51.8999 31.1619 52.0555 30.8504 52.1364 30.428L50.8808 31.5145C50.9026 31.0848 51.0192 30.7693 51.2208 30.4973C51.3968 30.2598 51.375 30.3306 51.5811 30.143C52.346 29.447 50.9846 30.091 50.803 30.1787C50.4228 30.3623 50.1403 30.5061 49.7466 30.6345C49.9514 29.8428 50.4348 29.6313 50.7483 28.8326C51.2024 27.6757 50.9529 27.6685 52.4585 27.7734C52.1306 27.0533 51.3907 27.2268 50.7839 27.5027C51.2796 26.1004 52.5028 26.5481 53.2805 27.3017C53.324 27.3438 53.3929 27.4062 53.4405 27.4431C53.591 27.56 53.4504 27.4756 53.6284 27.5607C54.6547 26.4806 54.3421 25.2427 54.125 23.5895C53.7821 20.9768 53.0408 18.4114 51.9149 16.0766C51.6482 15.5236 51.3638 15.0347 51.0916 14.5204C50.9456 14.2443 50.8243 14.0308 50.6813 13.7446C50.4808 13.3429 50.5444 13.1634 50.1711 13.0972C50.2357 13.3635 50.5064 13.8412 50.6444 14.0809C50.8557 14.4481 51.1038 14.6436 50.924 14.9239C50.532 14.6014 49.5319 13.0602 49.2078 12.5054C49.3398 13.3059 49.8624 14.1277 50.2653 14.6544C50.556 15.0344 50.6577 15.1472 50.9985 15.5064C51.2296 15.7499 51.5799 16.02 51.7001 16.303C51.2712 16.3639 51.0431 15.886 50.5667 15.6759C50.5701 16.0653 51.0068 16.6311 51.1689 17.0874C50.8362 16.9086 50.8457 16.8318 50.6478 16.5497C50.3867 16.1777 49.7945 15.1322 49.3651 15.0287C49.7455 16.1393 50.8366 17.1624 51.2695 18.2708C50.867 18.1296 51.2088 18.3346 50.8858 17.9951C50.8542 17.9619 50.6599 17.7228 50.6191 17.6725C50.3769 17.3737 49.4829 16.062 49.1457 16.0117L49.2083 16.3007C49.6244 16.914 50.048 17.2205 50.3771 18.0153C50.5671 18.4743 50.6916 18.8739 50.5977 19.3835C50.4296 20.2961 50.5906 19.892 50.8825 20.6503C50.6356 20.5116 50.4133 20.1698 50.235 19.9402C49.9942 19.6301 49.9504 19.5461 49.7267 19.2572C49.5554 19.036 48.8188 18.0155 48.6961 18.0413C48.6036 18.1833 48.5064 17.9015 48.747 18.3421L50.4145 20.845C49.8433 20.9641 50.2859 20.718 49.981 21.1802C49.7638 20.9517 48.7931 20.0886 48.4665 19.975C48.7042 20.7262 49.6953 21.6942 49.8596 22.3884C49.5072 22.2881 49.2622 21.8461 49.0167 21.5518C48.7256 21.203 48.5817 20.8427 48.1477 20.7763C48.2981 21.198 48.5536 21.4473 48.7867 21.7827C48.9878 22.072 49.1591 22.3458 49.3383 22.6676L48.5963 22.2271C48.9452 22.886 49.815 23.4518 50.0542 24.0733C49.5833 23.9496 48.9369 23.1505 48.4734 22.8248C48.5563 23.12 48.9367 23.5374 49.1431 23.8069C49.3584 24.0882 49.7443 24.4505 49.6829 24.6982C49.4304 24.7272 49.4945 24.5708 49.1722 24.3639L49.5496 25.9972C49.2173 25.8361 49.1606 25.7183 48.8413 25.5975L49.458 26.8525C48.9393 26.571 48.625 25.4829 48.2637 25.5496C48.2584 25.5664 48.2586 25.5939 48.2593 25.6021C48.2601 25.6102 48.2575 25.6448 48.2595 25.6549C48.356 26.1791 49.143 26.8375 49.3471 27.3714C48.971 27.2366 48.8598 27.0264 48.4268 26.8169C48.6844 27.3191 49.3373 27.9343 49.4247 28.3005C48.9276 28.2391 48.8544 27.7124 48.3739 27.6252C48.6111 28.2597 49.185 28.5831 49.3922 29.2416C48.9146 29.0156 48.9894 28.5773 48.5229 28.5842L49.0786 30.153C48.8303 30.0361 48.75 29.8818 48.5724 29.6257C48.4699 29.4781 48.2977 29.2867 48.232 29.1906C48.1531 29.6252 48.1674 30.3082 47.9434 30.6028L47.707 29.4708C47.5002 29.7228 47.4061 30.0392 47.113 30.2167L47.6058 28.2248C47.224 28.446 47.5357 28.2757 47.274 28.5324L46.9161 28.7816L47.6991 26.9564C47.1926 27.1786 47.1513 27.799 46.5797 28.0704C46.8067 27.4527 47.2658 26.8878 47.3782 26.2805C46.7808 26.5323 46.6669 27.1839 46.1261 27.2211C46.4438 26.5243 47.2967 25.7097 47.5059 25.0528C46.8374 25.2604 46.8895 25.7355 46.1494 26.0004C46.3878 25.3619 47.0176 25.0169 47.1639 24.5026C46.5643 24.5296 46.1638 25.8568 45.5247 26.0538L46.1863 24.7793C45.7784 25.0056 45.7051 25.2899 45.3327 25.432C45.4312 24.8445 46.3395 23.9608 46.5077 23.2824C46.2219 23.463 46.2693 23.4716 46.0789 23.775C45.989 23.9184 45.9271 24.077 45.8175 24.1039C45.0059 24.0087 46.7342 22.6316 46.9131 21.9776L46.917 21.8655C46.5932 21.7903 46.6057 22.0197 46.3341 22.3361C45.8596 22.8891 45.3657 23.6652 44.8388 24.0645C45.0219 22.521 46.2447 22.0217 46.7617 20.9483C46.2773 21.3602 45.2804 22.3453 44.701 22.5281C44.8947 22.0292 46.5731 20.5696 46.4806 20.3346C46.3078 20.1265 45.2608 21.2746 44.7339 21.3754C44.8003 20.8393 46.3858 19.8615 46.6707 19.2408C45.9679 19.5304 45.216 20.4306 44.5256 20.7918C44.8077 19.4426 46.2921 19.1126 46.7061 18.1877C45.9413 18.3965 44.4964 19.8324 43.9547 19.8866C44.202 19.5078 44.4125 19.1148 44.7636 18.7823C45.1257 18.4394 45.4434 18.2124 45.6762 17.75C45.1962 17.9892 44.6058 18.4316 44.1544 18.5848C44.1322 18.2453 44.4547 18.1166 44.6934 17.919L46.6465 16.2745C46.2489 16.2513 45.2643 16.9453 44.8213 17.1175C45.3089 16.2411 46.1923 15.9419 46.8993 15.2554L47.0042 15.1409C46.3704 15.2847 45.1835 15.9972 44.6503 15.9258C45.0515 15.4492 46.3374 14.8472 46.5831 14.3409L44.4031 15.4545C44.8089 14.5754 46.0043 14.1916 46.6739 13.4906L44.9475 14.0288C45.1459 13.3642 47.1304 12.917 47.1577 12.197C46.6285 12.2279 45.5858 13.051 44.9841 13.2554C45.2816 12.6612 46.4454 11.959 46.664 11.4128C46.1804 11.6171 45.663 12.2138 45.2237 12.2598C45.3723 11.8332 45.6753 11.6476 45.9851 11.2831C46.2629 10.9561 46.6325 10.6186 46.7847 10.2478C46.247 10.5505 45.1419 11.7088 44.7448 11.7492C45.0163 11.0521 45.8203 10.5539 46.048 9.90352C45.914 9.31068 44.644 7.73293 44.3146 7.50813C44.645 8.30627 45.4502 9.36183 45.6537 10.129C45.1903 9.97323 45.1536 9.47123 44.8039 9.16076L44.7372 10.2211C44.7196 10.1998 44.6977 10.1772 44.6797 10.1537C44.552 9.98742 44.7269 10.2455 44.5883 10.0199L44.1807 9.11151C43.9971 9.90284 44.5792 11.009 43.9794 11.7377C43.755 10.0656 43.4344 9.28517 42.6267 8.14422L43.6588 13.101C43.2095 12.7543 42.8862 11.5583 42.6716 11.0457C42.4813 10.591 42.0934 9.32295 41.7208 9.00389C41.8649 9.67271 42.9382 12.9377 42.8236 13.2488C42.5386 13.192 42.7986 13.3302 42.5891 13.1066C42.2461 12.7408 41.8744 11.7398 41.6469 11.2822C41.3295 10.6442 41.0883 9.9544 40.6864 9.3636L40.5437 9.19391C40.2412 9.63288 41.158 10.9735 41.3783 11.3481C41.8222 12.1028 42.123 12.8616 42.0617 13.908L41.7287 13.3729C41.6586 13.208 41.6049 13.0687 41.5199 12.8893C41.3574 12.546 41.2385 12.2082 41.0392 11.9748L41.2481 13.4565C41.3289 13.8407 41.4899 14.2698 41.4934 14.6775C41.4961 14.9839 41.545 14.7579 41.4356 14.9371C40.8928 14.3582 40.0741 11.3644 39.5738 10.9262C39.6247 11.8781 40.2757 13.3797 40.5683 14.3386C40.6792 14.7024 40.9276 15.1825 40.7416 15.4595C40.4953 15.2544 40.426 14.785 40.3294 14.4793C40.0477 13.5884 39.5955 12.5139 38.9963 11.9125C39.2473 13.5895 40.7858 15.1292 40.5695 16.8443C40.1777 16.4817 39.9334 15.7742 39.6641 15.2476C39.506 14.9384 39.422 14.7295 39.2781 14.4355C39.1012 14.0742 39.0552 13.8607 38.7569 13.7532C38.8452 14.2173 40.129 17.8618 39.9487 18.2311C39.7154 18.039 39.589 17.6183 39.3341 17.0608L38.0412 14.0896C37.87 13.6772 37.9636 13.7503 37.6596 13.6961C37.4834 14.0142 38.2332 15.427 38.3655 15.7501C38.6432 16.4281 38.9567 17.1297 39.2156 17.8003C39.0294 17.7708 38.9553 17.6414 38.8462 17.4531C38.7478 17.2836 38.7155 17.2033 38.5955 17.0057C38.3948 16.6756 38.285 16.4805 38.0841 16.1291C37.8981 15.804 37.7171 15.5152 37.5338 15.1933L37.1245 14.5138C37.0306 14.4002 37.0592 14.4368 36.9746 14.3684C36.8817 14.5421 36.8519 14.308 36.9544 14.6823C37.2818 15.8774 38.7458 17.0965 38.9859 18.9672L38.3557 18.1391C38.1845 17.8763 38.0266 17.6362 37.8456 17.3595C37.577 16.9491 37.1601 15.9777 36.6498 15.9576C36.7617 17.0687 38.4971 18.3886 38.667 20.3408L37.0319 18.1728C36.839 17.8952 36.7092 17.6652 36.4376 17.52C36.7551 18.6649 37.9837 20.1183 38.2948 21.2276C37.9033 21.1251 38.1561 21.2562 37.9 20.9693L37.1548 19.9317C36.9812 19.6941 36.8138 19.4992 36.6401 19.2596C36.4421 18.9864 36.3735 18.7501 36.0824 18.6477C35.9274 18.9546 36.3122 19.372 36.4706 19.6271C36.6787 19.9626 36.886 20.2726 37.0795 20.6019C37.4392 21.214 37.8839 22.0551 37.9797 22.9182C37.0913 22.1978 36.625 20.803 35.712 20.1501C35.7188 20.4925 36.5457 22.3288 36.73 22.7467C36.2417 22.778 36.0534 21.6479 35.6641 21.4409L36.9951 24.9001C36.5623 24.6937 35.9653 23.4911 35.8123 23.0182L35.738 23.4216C35.7391 23.4344 35.8103 23.7072 35.8204 23.744C35.8836 23.975 35.9435 24.2222 36.0011 24.4614C36.0879 24.8228 36.404 25.5796 36.1521 25.8849C35.9266 25.0818 35.4314 24.1877 35.0786 23.3976C34.7301 22.617 34.9958 22.8054 34.5222 22.6913L35.1292 26.6495C34.7946 26.5113 35.0516 26.8223 34.829 26.3209C34.8098 26.2776 34.7394 26.0272 34.7131 25.9429C34.629 25.6748 34.55 25.4552 34.4675 25.1981C34.3226 24.7468 34.2261 24.0672 33.874 23.7394C33.9868 24.7611 34.2851 25.7985 34.3486 26.8201C34.3657 27.0977 34.3723 26.7296 34.337 27.029C34.3356 27.0406 34.3205 27.0994 34.3191 27.0871C34.3177 27.075 34.3074 27.1257 34.2979 27.1434C33.9249 26.5564 33.8558 25.2378 33.4058 24.7855C33.4471 25.3905 33.614 26.1206 33.7212 26.7392C33.7782 27.0684 33.841 27.4294 33.9009 27.7555C33.9734 28.1507 34.0827 28.3979 33.9015 28.6358C33.5834 28.2188 33.4542 27.2733 33.2371 26.7744C32.9782 26.9853 33.0434 27.0027 32.9502 27.386C32.8273 27.8921 32.7177 28.9875 32.3153 29.2541C32.1695 28.9529 32.2458 29.1975 32.2508 28.9108C32.2662 28.0395 32.6871 27.0563 32.4793 26.2076C32.2905 26.4269 32.2235 26.6739 32.1047 26.9435C31.9901 27.2033 31.9221 27.4884 31.6454 27.5319C31.7738 26.9304 32.2874 25.6258 32.2702 25.1162C31.9412 25.5081 31.6691 26.1472 31.3609 26.4344C31.2763 24.7587 32.5651 24.5178 32.7843 23.4132C32.4564 23.4437 32.5756 23.4273 32.3417 23.7058L31.2603 24.8447C31.4894 23.3295 33.3319 22.352 33.2614 21.7452C32.9844 21.7938 33.0409 21.8723 32.8206 22.105C32.6502 22.285 32.5264 22.3638 32.3649 22.5397C32.0743 22.8557 31.9021 23.2014 31.5378 23.4067C31.6052 22.6441 31.9346 22.364 32.319 21.9991C33.3808 20.9911 33.3937 20.4305 32.7231 21.2087C32.2983 21.7017 31.7637 22.2203 31.1862 22.5586C31.7821 21.1545 33.2911 20.4047 33.6254 19.6863C32.912 19.9245 31.8525 20.9997 31.2171 21.1099C31.5214 20.2236 33.1625 19.2287 33.9961 18.6237C34.3913 18.3369 34.2292 18.5729 34.2944 18.2053L32.1917 19.2508C32.7437 18.2001 34.4839 17.6647 35.0136 16.6093C33.3939 16.8424 32.7318 18.5533 31.6663 19.0606C31.8525 18.5214 32.5431 17.7191 32.9078 17.3376C33.3795 16.8438 33.8767 16.4293 34.2595 15.8971L33.4564 16.1988C33.7202 15.6517 35.7756 14.8013 35.8159 14.3668C35.4023 14.1732 33.8247 15.3715 33.3296 15.4416C33.3454 15.0253 33.6411 15.0197 34.0038 14.7632L35.6251 13.6093C36.0556 13.3017 36.1871 13.382 36.2763 12.9765C35.8082 12.7642 34.1364 14.0173 33.4495 13.9319L34.0865 13.3576C34.3487 13.1437 34.4427 13.0278 34.7405 12.8252C35.088 12.5888 36.0368 12.2124 36.2493 11.886C35.9144 11.714 34.1505 12.7826 33.5736 12.9184C33.67 12.5971 33.5148 12.7586 33.8992 12.4745C34.4172 12.0916 36.2248 11.1061 36.3519 10.6227L34.684 11.3214C35.0201 10.4145 35.9245 10.0061 36.6617 9.42949L35.5606 9.80776C35.8806 9.07496 36.419 8.68004 36.3358 7.65436C35.9142 7.82501 35.2824 8.68318 34.9088 8.98397L35.4161 5.62837C34.9162 6.08644 34.3468 8.36807 33.9019 9.04454C33.8901 9.02094 33.8816 8.98656 33.8782 8.9691L34.0229 7.74671C34.1025 7.33679 34.2147 6.84148 34.2689 6.42815C34.0272 6.51259 33.9359 6.71052 33.723 7.04842C33.574 7.28468 33.4972 7.51358 33.248 7.58342C33.3507 7.22739 33.5926 6.75813 33.7587 6.38709C33.9085 6.05261 34.3007 5.55143 34.1014 5.27383C33.6949 5.79042 32.7261 7.92064 32.2166 8.26071C32.0219 7.83142 32.8308 6.07784 32.9221 5.59522C32.6555 5.78524 31.1797 8.09183 30.9713 8.47024C31.0166 7.38617 31.6682 6.63345 31.8946 5.81948C30.4255 6.85621 29.9486 8.9631 29.4409 9.35678C29.2148 8.94236 30.0694 7.57374 29.9655 7.03859C29.4685 7.38917 29.354 8.2839 29.0004 8.76571C28.8812 8.23916 29.6714 6.88731 29.845 6.30088C29.331 6.60126 28.9947 7.15973 28.7121 7.68737C28.4384 8.19864 28.2663 8.8391 27.9619 9.30235C27.9919 8.68755 28.5539 7.35739 28.4538 7.05646C28.0732 7.29519 27.6255 8.7904 27.3364 9.27207C27.1997 8.89094 27.472 8.26289 27.4093 7.85011L27.3591 7.69528C27.2206 7.80564 27.3307 7.68764 27.2089 7.86416C26.645 8.68086 26.5421 9.90421 25.9712 10.6905C25.6793 10.244 26.3911 8.7784 26.315 8.13385L25.9974 8.34542C25.612 8.95246 24.8851 10.5777 24.4143 10.8656C24.5138 10.2684 24.956 9.42922 24.8431 8.85833C24.5087 9.01343 23.8555 10.3634 23.6095 10.8113L23.1722 11.4181C23.2472 10.9018 23.644 9.88129 23.4945 9.5303C22.6919 10.1754 22.3765 11.9317 21.5931 12.7084L22.0762 10.9156C21.6235 11.1698 21.5967 11.8765 21.1538 12.1607L21.5127 10.8535C20.8177 11.1492 20.3639 11.9418 19.7246 12.3641C20.0092 11.0367 21.5146 10.3111 21.9226 9.48283L21.2453 9.77066C21.565 9.31122 22.0258 8.9957 22.6696 8.68223C23.1619 8.44255 24.0483 8.1243 24.4002 7.82187C24.0818 7.64099 22.2637 8.61797 21.8752 8.72574C22.2754 7.85502 24.8569 6.95279 26.1119 6.47494L30.4869 4.55398L28.0289 5.23154C29.7003 3.78544 32.7598 3.91516 34.9776 2.9997C33.3717 2.68664 32.4768 3.29353 31.1427 3.45245C31.6471 3.05236 33.1641 2.78976 33.3545 2.46892L33.1299 2.4149C33.1057 2.41299 33.0769 2.41136 33.0513 2.41122L32.2934 2.54027C31.6964 2.64858 29.9577 3.08673 29.4443 3.0263C29.199 2.99752 29.393 3.05086 29.2421 2.95223C29.5875 2.84037 29.9992 2.63589 30.3428 2.4782C30.6843 2.32146 31.1092 2.20756 31.369 1.93651C29.4911 1.97511 28.8959 2.63944 27.5817 3.15576C27.8302 2.32965 29.3681 1.59084 30.2882 1.3277C28.3708 1.32429 28.552 1.53436 28.5517 0.967297L28.5486 0.834977C24.7393 0.758859 21.3969 1.57515 18.2762 2.90367C16.7751 3.54276 15.507 4.18499 14.2233 4.99528C11.6267 6.63427 11.2135 7.23803 9.21148 9.10224C7.7872 10.4286 6.39525 12.747 5.43545 14.4445C4.34947 16.3651 3.35107 18.8473 2.86312 21.0927C2.63941 22.1222 2.47981 22.6014 2.20043 23.4819L2.20003 23.4823Z" fill="#E6BCA4"/>
<path id="Vector_2" fill-rule="evenodd" clip-rule="evenodd" d="M21.9236 52.278L34.7385 52.2787C33.3463 52.6966 33.6493 52.7715 31.7649 52.9976C29.4723 53.2728 23.3421 53.3985 21.9236 52.278ZM31.7211 51.3214L19.528 51.3466C18.5343 51.3466 18.0184 51.1267 17.2647 50.7305C16.8518 50.5133 15.5426 50.0341 15.3894 49.6653C16.149 49.5656 38.7233 49.5738 40.9547 49.6363C40.1732 50.3958 38.1529 51.2435 37.1723 51.3412C35.6158 51.4961 33.362 51.3215 31.7211 51.3215V51.3214ZM39.6516 48.8431L14.4723 48.8683C13.7882 48.8683 13.5147 48.5559 13.0899 48.2613L12.2202 47.6478C11.9086 47.3778 12.061 47.6635 11.9535 47.2399L44.4249 47.2393C44.1552 47.7395 43.388 48.4372 42.6735 48.7151C41.9745 48.987 40.4751 48.8429 39.6516 48.8429V48.8431ZM9.98041 45.5604L46.522 45.5311C46.2104 45.8427 46.1006 46.3384 45.288 46.5682C44.6156 46.7584 17.1157 46.6171 13.6792 46.6416C13.0442 46.6461 11.8663 46.7188 11.3148 46.5677C10.4626 46.3342 10.322 45.8592 9.98041 45.5604ZM8.84368 44.2421H47.6812C47.5864 45.0035 46.8032 45.0082 45.9965 45.0036L13.0845 44.9834C12.2589 44.9834 11.4313 44.9778 10.606 44.9842C9.70172 44.991 9.02129 45.058 8.84382 44.2421H8.84368ZM50.4943 19.7851L48.7859 17.3268C48.3259 16.7293 48.3206 16.9657 48.3072 16.5746C48.9021 16.6016 49.4266 17.3389 49.7339 17.7647C50.1365 18.3225 50.4471 18.8974 50.4943 19.7851ZM47.1405 9.01206C46.8526 9.34109 46.7256 9.52947 46.3083 9.73395L45.7616 8.2903L47.1405 9.0122V9.01206ZM36.7673 7.69977C36.7634 7.562 37.1604 7.09178 37.4706 6.89358C37.6383 7.21742 37.725 7.37279 37.4478 7.59815C36.7814 8.13998 36.7703 7.70209 36.7673 7.69977ZM2.20082 23.4823C2.48006 22.6019 2.63966 22.1226 2.86351 21.0931C3.35146 18.8478 4.34986 16.3656 5.43583 14.4449C6.39577 12.7473 7.78758 10.4288 9.21186 9.10264C11.2138 7.23843 11.6269 6.63467 14.2236 4.99567C15.5074 4.18539 16.7756 3.54302 18.2766 2.90407C21.3972 1.57555 24.7395 0.759258 28.549 0.835376L28.5521 0.967696C28.5522 1.53476 28.3712 1.32469 30.2886 1.3281C29.3685 1.59124 27.8306 2.33004 27.5821 3.15616C28.8963 2.6397 29.4914 1.97551 31.3694 1.9369C31.1096 2.20809 30.6846 2.322 30.3432 2.4786C29.9996 2.63629 29.5879 2.84077 29.2425 2.95263C29.3934 3.05126 29.1994 2.99792 29.4447 3.0267C29.9581 3.087 31.697 2.64884 32.2938 2.54066L33.0517 2.41162C33.0773 2.41176 33.1061 2.41339 33.1302 2.4153L33.3549 2.46932C33.1645 2.79003 31.6474 3.05262 31.1431 3.45285C32.4772 3.29393 33.3721 2.68703 34.9779 3.0001C32.7602 3.91556 29.7006 3.7857 28.0292 5.23194L30.4873 4.55438L26.1122 6.47534C24.8572 6.95319 22.2758 7.85556 21.8756 8.72614C22.2641 8.61851 24.0822 7.64139 24.4005 7.82227C24.0487 8.12483 23.1623 8.44295 22.67 8.68262C22.0262 8.9961 21.5653 9.31162 21.2457 9.77106L21.923 9.48323C21.515 10.3115 20.0096 11.0371 19.725 12.3645C20.3642 11.9421 20.8182 11.1496 21.5131 10.8539L21.1542 12.1611C21.5971 11.8769 21.6239 11.1702 22.0766 10.916L21.5934 12.7088C22.3769 11.9321 22.6923 10.1758 23.4949 9.5307C23.6444 9.88169 23.2474 10.9022 23.1726 11.4185L23.6099 10.8117C23.8558 10.3638 24.5091 9.0137 24.8435 8.85873C24.9563 9.42962 24.5142 10.2688 24.4147 10.866C24.8855 10.5782 25.6124 8.95286 25.9978 8.34582L26.3154 8.13425C26.3913 8.77879 25.6797 10.2444 25.9716 10.6909C26.5425 9.9046 26.6453 8.68126 27.2093 7.86456C27.3311 7.68804 27.221 7.8059 27.3595 7.69568L27.4097 7.85051C27.4724 8.26329 27.2003 8.89133 27.3368 9.27247C27.6259 8.79066 28.0736 7.29558 28.4542 7.05686C28.5543 7.35779 27.9923 8.68794 27.9623 9.30275C28.2667 8.8395 28.4388 8.19918 28.7125 7.68777C28.995 7.16013 29.3314 6.60179 29.8454 6.30128C29.6716 6.88771 28.8814 8.23956 29.0008 8.76611C29.3542 8.2843 29.4688 7.38957 29.9659 7.03899C30.0698 7.57414 29.2152 8.94276 29.4412 9.35718C29.949 8.9635 30.4259 6.85675 31.895 5.81988C31.6686 6.63371 31.0169 7.38644 30.9717 8.47064C31.1801 8.09223 32.6559 5.78564 32.9225 5.59562C32.8312 6.07838 32.0223 7.83182 32.217 8.26111C32.7265 7.92103 33.6951 5.79069 34.1018 5.27423C34.3011 5.55183 33.9089 6.05301 33.7591 6.38749C33.5929 6.75853 33.3511 7.22765 33.2484 7.58382C33.4976 7.51398 33.5744 7.28508 33.7234 7.04881C33.9363 6.71106 34.0274 6.51312 34.2693 6.42855C34.2151 6.84201 34.1029 7.33719 34.0233 7.74711L33.8786 8.9695C33.8821 8.9871 33.8905 9.02147 33.9023 9.04493C34.3472 8.36847 34.9166 6.08697 35.4165 5.62876L34.9092 8.98437C35.2828 8.68371 35.9145 7.82541 36.3362 7.65476C36.4195 8.68044 35.881 9.07535 35.561 9.80816L36.6621 9.42989C35.9249 10.0065 35.0205 10.4149 34.6844 11.3218L36.3523 10.6231C36.2252 11.1065 34.4176 12.092 33.8996 12.4749C33.5152 12.759 33.6704 12.5975 33.574 12.9188C34.1509 12.7829 35.9148 11.7144 36.2497 11.8864C36.0373 12.2128 35.0884 12.5891 34.7409 12.8256C34.4431 13.0282 34.3491 13.1441 34.0869 13.358L33.4499 13.9323C34.1368 14.0177 35.8084 12.7645 36.2767 12.9769C36.1875 13.3824 36.056 13.3021 35.6255 13.6097L34.0042 14.7636C33.6415 15.0201 33.3458 15.0257 33.3299 15.442C33.8251 15.3719 35.4027 14.1736 35.8163 14.3672C35.7761 14.8017 33.7208 15.6521 33.4568 16.1992L34.2599 15.8975C33.8771 16.4299 33.3799 16.8443 32.9082 17.338C32.5435 17.7195 31.8529 18.5218 31.6667 19.061C32.7322 18.5537 33.3943 16.8428 35.014 16.6097C34.4843 17.6652 32.7441 18.2005 32.1921 19.2512L34.2948 18.2057C34.2297 18.5732 34.3916 18.3372 33.9965 18.6241C33.1627 19.2291 31.5218 20.2242 31.2175 21.1103C31.853 21.0001 32.9125 19.9248 33.6258 19.6867C33.2915 20.4051 31.7825 21.1549 31.1866 22.559C31.7642 22.2207 32.2988 21.7019 32.7235 21.2091C33.3941 20.4308 33.3812 20.9915 32.3194 21.9995C31.935 22.3644 31.6056 22.6445 31.5382 23.4071C31.9025 23.2018 32.0747 22.8561 32.3652 22.5401C32.5269 22.3642 32.6507 22.2854 32.821 22.1054C33.0413 21.8727 32.9848 21.7942 33.2617 21.7456C33.3323 22.3524 31.4899 23.3299 31.2607 24.8451L32.3421 23.7062C32.576 23.4278 32.4569 23.4441 32.7847 23.4136C32.5656 24.5182 31.2767 24.7591 31.3612 26.4348C31.6697 26.1476 31.9417 25.5085 32.2706 25.1166C32.2876 25.6262 31.774 26.9309 31.6458 27.5323C31.9224 27.489 31.9905 27.2039 32.1051 26.9438C32.2239 26.6742 32.2909 26.4271 32.4797 26.208C32.6876 27.0567 32.2666 28.0399 32.2512 28.9112C32.2462 29.1979 32.1699 28.9533 32.3157 29.2545C32.7183 28.9877 32.8277 27.8925 32.9506 27.3864C33.0436 27.0031 32.9785 26.9856 33.2375 26.7748C33.4545 27.2736 33.5838 28.219 33.9019 28.6362C34.0831 28.3983 33.9738 28.1512 33.9012 27.7559C33.8414 27.4298 33.7787 27.0688 33.7216 26.7396C33.6144 26.1211 33.4475 25.3909 33.4062 24.7859C33.8562 25.238 33.9254 26.5568 34.2983 27.1438C34.3078 27.1261 34.3181 27.0755 34.3195 27.0875C34.3208 27.0998 34.336 27.041 34.3373 27.0294C34.3728 26.73 34.3663 27.0981 34.3489 26.8205C34.2854 25.7988 33.9872 24.7614 33.8744 23.7398C34.2264 24.0677 34.323 24.7473 34.4679 25.1985C34.5504 25.4556 34.6294 25.6752 34.7134 25.9433C34.7398 26.0276 34.8103 26.278 34.8294 26.3213C35.052 26.8226 34.795 26.5116 35.1296 26.6499L34.5226 22.6917C34.9962 22.8058 34.7305 22.6174 35.079 23.398C35.4318 24.1881 35.9268 25.0822 36.1525 25.8853C36.4044 25.58 36.0882 24.8232 36.0014 24.4618C35.944 24.2226 35.8841 23.9754 35.8208 23.7444C35.8107 23.7076 35.7395 23.4348 35.7384 23.422L35.8126 23.0186C35.9656 23.4917 36.5626 24.6943 36.9955 24.9005L35.6645 21.4413C36.0538 21.6483 36.2421 22.7784 36.7304 22.7471C36.5463 22.3292 35.7192 20.4931 35.7124 20.1505C36.6253 20.8035 37.0915 22.1982 37.9801 22.9186C37.8843 22.0557 37.4396 21.2144 37.0799 20.6023C36.8863 20.273 36.6793 19.9628 36.471 19.6275C36.3126 19.3724 35.9278 18.955 36.0827 18.6481C36.3737 18.7504 36.4423 18.9867 36.6405 19.26C36.8142 19.4994 36.9816 19.6944 37.1552 19.9321L37.9004 20.9697C38.1565 21.2566 37.9037 21.1255 38.2952 21.228C37.9841 20.1187 36.7555 18.6653 36.438 17.5204C36.7096 17.6656 36.8394 17.8956 37.0323 18.1732L38.6673 20.3412C38.4975 18.389 36.7621 17.0691 36.6502 15.958C37.1605 15.9781 37.5774 16.9495 37.846 17.3599C38.027 17.6364 38.1849 17.8767 38.3561 18.1395L38.9863 18.9676C38.7462 17.0971 37.2824 15.8778 36.9548 14.6827C36.8522 14.3084 36.8821 14.5425 36.975 14.3688C37.0596 14.4372 37.0309 14.4006 37.1249 14.5142L37.5342 15.1937C37.7175 15.5155 37.8985 15.8043 38.0845 16.1295C38.2854 16.4809 38.3951 16.676 38.5959 17.0061C38.716 17.2037 38.7484 17.284 38.8466 17.4535C38.9557 17.6418 39.0297 17.7712 39.216 17.8007C38.9571 17.1301 38.6436 16.4285 38.3659 15.7505C38.2336 15.4274 37.4838 14.0147 37.6599 13.6965C37.9639 13.7507 37.8703 13.6776 38.0416 14.09L39.3345 17.0612C39.5894 17.6187 39.7158 18.0394 39.9491 18.2315C40.1294 17.8623 38.8458 14.2178 38.7572 13.7536C39.0556 13.861 39.1015 14.0745 39.2785 14.4359C39.4223 14.7299 39.5064 14.9388 39.6645 15.248C39.9338 15.7746 40.1781 16.4821 40.5699 16.8447C40.7862 15.1296 39.2476 13.5899 38.9966 11.9129C39.5959 12.5143 40.0481 13.589 40.3298 14.4797C40.4265 14.7854 40.4957 15.255 40.742 15.4599C40.928 15.1829 40.6796 14.7026 40.5687 14.339C40.2762 13.3801 39.6252 11.8785 39.5742 10.9266C40.0744 11.3648 40.8932 14.3586 41.436 14.9375C41.5454 14.7581 41.4964 14.9843 41.4938 14.6779C41.4903 14.2702 41.3293 13.8411 41.2485 13.4569L41.0396 11.9752C41.2389 12.2086 41.3577 12.5464 41.5203 12.8897C41.6053 13.0691 41.659 13.2084 41.7291 13.3733L42.0621 13.9084C42.1233 12.862 41.8226 12.1032 41.3787 11.3485C41.1584 10.9741 40.2415 9.63342 40.5441 9.19431L40.6868 9.364C41.0887 9.95494 41.33 10.6448 41.6473 11.2826C41.8748 11.74 42.2465 12.741 42.5895 13.107C42.799 13.3306 42.539 13.1924 42.824 13.2492C42.9385 12.9381 41.8651 9.67311 41.7212 9.00428C42.0936 9.32335 42.4816 10.5914 42.672 11.0461C42.8866 11.5587 43.2099 12.7547 43.6592 13.1014L42.6271 8.14461C43.4348 9.28557 43.7554 10.066 43.9798 11.7381C44.5795 11.0094 43.9975 9.90324 44.1811 9.11191L44.5887 10.0203C44.7273 10.2459 44.5524 9.98781 44.6801 10.1541C44.6981 10.1776 44.72 10.2002 44.7376 10.2215L44.8043 9.16116C45.1542 9.47163 45.1907 9.97363 45.6541 10.1294C45.4506 9.36223 44.6453 8.30667 44.3149 7.50852C44.6444 7.73319 45.9144 9.31094 46.0483 9.90392C45.8208 10.5543 45.0167 11.0525 44.7452 11.7496C45.1423 11.7092 46.2472 10.5509 46.7851 10.2482C46.6329 10.619 46.2635 10.9565 45.9854 11.2835C45.6757 11.648 45.3728 11.8336 45.2241 12.2602C45.6634 12.2142 46.1809 11.6174 46.6644 11.4132C46.4457 11.9594 45.2818 12.6616 44.9845 13.2558C45.5862 13.0514 46.6289 12.2282 47.1581 12.1974C47.1308 12.9175 45.1462 13.3647 44.9479 14.0292L46.6743 13.491C46.0047 14.192 44.8093 14.5758 44.4035 15.4549L46.5835 14.3413C46.3379 14.8478 45.052 15.4496 44.6507 15.9262C45.1839 15.9976 46.3708 15.2851 47.0046 15.1413L46.8997 15.2558C46.1927 15.9422 45.3093 16.2415 44.8217 17.1179C45.2647 16.9457 46.2493 16.2517 46.6469 16.2749L44.6938 17.9194C44.455 18.117 44.1324 18.2457 44.1548 18.5852C44.6062 18.432 45.1966 17.9896 45.6766 17.7504C45.4436 18.2128 45.1259 18.4398 44.764 18.7827C44.413 19.1152 44.2025 19.5082 43.9551 19.887C44.4968 19.833 45.9417 18.3969 46.7065 18.1881C46.2924 19.113 44.8079 19.443 44.526 20.7922C45.2164 20.431 45.9683 19.5307 46.6711 19.2412C46.3862 19.8619 44.8007 20.8397 44.7343 21.3758C45.2612 21.275 46.3083 20.1271 46.481 20.335C46.5735 20.57 44.8951 22.0296 44.7014 22.5285C45.2806 22.3457 46.2775 21.3606 46.762 20.9487C46.245 22.0221 45.0224 22.5214 44.8392 24.0649C45.366 23.6656 45.86 22.8894 46.3345 22.3365C46.6061 22.0201 46.5936 21.7907 46.9174 21.8659L46.9135 21.978C46.7346 22.632 45.0063 24.0089 45.8179 24.1043C45.9276 24.0774 45.9894 23.9188 46.0793 23.7754C46.2697 23.4719 46.2223 23.4634 46.508 23.2828C46.3397 23.9611 45.4316 24.8449 45.3331 25.4324C45.7055 25.2903 45.7788 25.006 46.1867 24.7797L45.5251 26.0542C46.1643 25.8571 46.5648 24.53 47.1643 24.503C47.018 25.0173 46.3881 25.3623 46.1498 26.0008C46.89 25.7359 46.8378 25.2608 47.5063 25.0532C47.2971 25.7101 46.4442 26.5247 46.1265 27.2214C46.6672 27.1842 46.7811 26.5326 47.3786 26.2809C47.2662 26.8882 46.8071 27.4531 46.5801 28.0708C47.1518 27.7996 47.193 27.179 47.6995 26.9568L46.9165 28.782L47.2744 28.5328C47.536 28.2761 47.2243 28.4466 47.6062 28.2252L47.1134 30.2171C47.4065 30.0396 47.5006 29.7232 47.7074 29.4712L47.9438 30.6032C48.1679 30.3086 48.1535 29.6256 48.2324 29.191C48.298 29.2871 48.4703 29.4785 48.5728 29.6261C48.7504 29.882 48.8307 30.0363 49.079 30.1534L48.5233 28.5846C48.9897 28.5777 48.915 29.016 49.3926 29.242C49.1854 28.5834 48.6115 28.2601 48.3743 27.6256C48.8547 27.7127 48.928 28.2395 49.4251 28.3009C49.3376 27.9347 48.6848 27.3195 48.4272 26.8173C48.8602 27.0268 48.9714 27.2369 49.3475 27.3718C49.1435 26.8379 48.3566 26.1795 48.2598 25.6553C48.2579 25.6452 48.2605 25.6106 48.2597 25.6025C48.2589 25.5945 48.2586 25.5668 48.2641 25.55C48.6254 25.4833 48.9399 26.5713 49.4584 26.8529L48.8417 25.5979C49.161 25.7187 49.2176 25.8365 49.55 25.9976L49.1726 24.3643C49.4949 24.5711 49.4307 24.7276 49.6833 24.6986C49.7447 24.4511 49.3589 24.0886 49.1435 23.8073C48.9371 23.5376 48.5565 23.1204 48.4737 22.8252C48.9371 23.1509 49.5837 23.95 50.0546 24.0737C49.8154 23.4522 48.9456 22.8864 48.5967 22.2275L49.3387 22.668C49.1595 22.3462 48.9882 22.0726 48.7871 21.7831C48.554 21.4477 48.2985 21.1984 48.1481 20.7767C48.5822 20.8431 48.726 21.2034 49.0171 21.5522C49.2628 21.8464 49.5078 22.2885 49.86 22.3888C49.6957 21.6946 48.7046 20.7266 48.4669 19.9754C48.7934 20.089 49.7642 20.9522 49.9814 21.1806C50.2863 20.7184 49.8437 20.9644 50.4149 20.8454L48.7474 18.3425C48.5066 17.9019 48.604 18.1837 48.6965 18.0417C48.8193 18.0159 49.5559 19.0364 49.7271 19.2576C49.951 19.5465 49.9946 19.6304 50.2354 19.9406C50.4135 20.1702 50.6359 20.512 50.8829 20.6507C50.5911 19.8926 50.4302 20.2965 50.5981 19.3839C50.6919 18.8741 50.5675 18.4746 50.3775 18.0157C50.0485 17.2209 49.6248 16.9144 49.2087 16.3011L49.1461 16.0121C49.4835 16.0624 50.3772 17.3741 50.6195 17.6729C50.6604 17.7232 50.8545 17.9623 50.8862 17.9955C51.2094 18.335 50.8675 18.13 51.2699 18.2712C50.837 17.1628 49.7459 16.1397 49.3655 15.0291C49.7948 15.1327 50.3871 16.1782 50.6482 16.5501C50.8461 16.8322 50.8367 16.9091 51.1693 17.0878C51.0072 16.6315 50.5705 16.0657 50.5671 15.6763C51.0435 15.8864 51.2714 16.3643 51.7004 16.3034C51.5803 16.0204 51.23 15.7503 50.9989 15.5068C50.6581 15.1476 50.5564 15.0349 50.2657 14.6547C49.8628 14.1282 49.3402 13.3063 49.2082 12.5058C49.5324 13.0608 50.5325 14.602 50.9244 14.9243C51.104 14.644 50.8559 14.4486 50.6447 14.0813C50.5068 13.8415 50.2359 13.3637 50.1715 13.0976C50.5448 13.1638 50.4812 13.3433 50.6817 13.745C50.8245 14.0312 50.9459 14.2447 51.092 14.5208C51.364 15.0349 51.6486 15.524 51.9153 16.077C53.0412 18.4118 53.7825 20.977 54.1254 23.5899C54.3425 25.2431 54.6551 26.481 53.6288 27.5611C53.4506 27.476 53.5914 27.5604 53.4409 27.4435C53.3933 27.4064 53.3244 27.3441 53.2809 27.3021C52.5032 26.5485 51.28 26.1008 50.7843 27.5031C51.3911 27.2272 52.131 27.0535 52.4589 27.7738C50.9533 27.6689 51.2029 27.6761 50.7487 28.833C50.4352 29.6316 49.9518 29.843 49.747 30.6349C50.1407 30.5065 50.4232 30.3627 50.8034 30.1791C50.9848 30.0914 52.3463 29.4476 51.5815 30.1434C51.3754 30.331 51.3971 30.2602 51.2212 30.4977C51.0197 30.7697 50.903 31.0852 50.8811 31.5149L52.1368 30.4284C52.0558 30.8508 51.9003 31.1623 51.7925 31.5629C51.6749 32.0001 51.6884 32.6089 51.9435 32.8918C52.262 32.4424 52.3507 31.7876 52.7046 31.4609C52.9283 31.7401 52.9367 32.5136 52.974 32.9666C53.3622 32.5769 53.4226 31.8922 53.6072 31.3929C53.802 30.8661 53.6412 31.0898 53.9263 31.0108C54.2672 31.8567 52.2285 38.6783 51.0234 39.2185C50.2718 39.5554 48.8104 39.9896 47.8877 39.7431C47.7431 38.7348 47.9025 37.8369 47.6562 36.6897C47.4348 35.6588 47.1059 35.074 46.7987 34.2098L48.5293 34.3261C48.3 33.9944 47.8525 33.8842 47.5152 33.6197C47.822 33.5015 48.2438 33.4899 48.4866 33.2734C47.6351 32.7419 47.5635 33.024 46.6507 33.3064C46.7746 32.8881 47.0375 32.6392 47.0366 32.2628C46.2959 32.2218 46.5004 32.5841 46.1729 33.182C45.465 33.1708 45.0338 32.7605 44.613 33.3987L45.6192 33.6469C45.0516 33.8975 44.1796 34.2258 44.8062 35.0229C45.0752 34.5994 44.7255 34.521 45.4297 34.4653L45.2832 36.333C45.6271 36.1758 45.7767 35.2996 45.9224 35.0237C46.0355 35.2149 46.1556 35.447 46.2813 35.6865C46.3524 35.8217 46.3768 35.888 46.4432 36.0168L46.7378 36.2469C46.851 35.5206 46.7213 36.8201 46.7629 36.0842L46.7372 35.2147C46.742 35.1897 46.7565 35.1542 46.7612 35.1343C46.7659 35.1147 46.7756 35.0802 46.7887 35.0557C47.3515 35.854 47.7191 38.5543 47.3913 39.3645C47.1581 39.9409 46.0901 39.8122 45.4338 39.8948C44.588 40.0014 44.0318 40.2528 43.1366 39.9272C42.2214 39.5942 40.5721 38.7008 39.8173 38.1874C39.0168 37.6428 38.4162 36.9525 37.856 36.2821C37.5677 35.9371 37.2731 35.9244 37.4686 35.5969C37.5759 35.4848 37.4159 35.374 38.1392 35.7006C38.4768 35.8531 38.6009 35.9288 38.965 35.9712C38.7259 35.3811 38.1025 34.9392 37.8998 34.4258L39.8704 34.4154C39.2386 33.3162 38.4764 34.1017 37.7898 33.5971C37.919 33.2768 38.2533 33.2668 38.6462 33.0888C38.9756 32.9396 39.2787 32.8079 39.5476 32.6396L37.5587 32.6354C37.6368 32.3027 37.8258 32.0714 37.6684 31.7707C37.2563 32.026 36.7025 32.6447 36.3819 32.9858C36.0919 32.6816 35.8517 31.8065 35.7131 31.3853L35.4618 31.8877C35.3922 32.104 35.3392 32.3233 35.2946 32.5613C34.675 32.4268 34.1868 31.9616 33.7198 32.5066C33.9431 32.7879 34.3012 32.9126 34.5759 33.1488C34.5892 33.1602 34.6147 33.1842 34.633 33.203C34.0033 33.2749 33.2103 33.3304 33.1574 33.9438L33.9645 34.0254C33.5104 34.4899 32.9727 34.4984 32.9195 35.3733C33.3713 35.2234 34.2259 34.7305 34.5452 34.936C34.5169 35.2377 34.5027 35.0665 34.2595 35.3372C34.1285 35.483 34.0364 35.6004 33.9516 35.8285C33.7812 36.2867 33.8205 36.7762 33.8997 37.2692C34.1326 37.0254 34.3191 36.7367 34.5431 36.4203L35.191 35.5438C35.176 36.0417 34.9502 37.5214 35.1902 37.8147C35.5516 37.4918 35.6217 36.5078 35.8841 36.0569C35.8974 36.0788 35.9148 36.0881 35.92 36.1251C35.9251 36.1615 35.9478 36.1775 35.9545 36.193L36.3313 37.3121C36.5262 37.8021 36.7067 37.9773 37.1686 38.1567C37.1436 37.789 37.1049 37.4424 37.0633 37.0779L37.0026 36.2884C37.0316 36.0719 37.0012 36.174 37.0738 36.0397C37.3979 36.1693 37.4028 36.3225 37.6575 36.6825C38.9995 38.5801 40.7078 39.5527 42.89 40.4738C42.2748 40.8112 41.1423 41.1603 40.3811 41.316C38.4544 41.8712 36.6198 41.7358 34.5916 41.7425C33.5511 41.7459 31.9244 42.5513 29.4678 42.83C25.0625 43.3298 16.0914 43.1075 11.0024 43.0878C10.3483 43.0852 8.51343 43.1522 8.0068 43.0326C6.45088 42.6651 2.16221 33.4091 3.02843 32.659C3.90379 32.2686 5.07598 32.9914 5.95175 33.122C6.15896 32.4853 6.92696 31.5993 7.42009 31.3048C8.78898 30.487 11.1392 31.2676 11.6133 33.1812C11.9097 34.3776 11.4265 34.9729 11.0163 35.7624C13.1662 34.7974 12.9303 35.6688 13.5798 36.7676C14.9484 36.9077 15.7298 36.78 16.4268 37.7892C16.9852 38.5974 16.789 40.1776 16.4878 41.1643C16.1336 41.254 14.5284 41.5919 14.2568 41.5866C13.4104 41.5701 14.3403 40.9153 12.2348 40.8752C11.8435 40.2882 11.8063 39.1769 10.3595 38.1044C9.32304 37.3361 8.14662 36.9677 6.87649 37.7143C8.80617 37.6701 10.5437 37.8894 11.3818 39.7575C11.6206 40.29 11.7055 41.1289 11.8945 41.5299C13.5495 41.2198 13.0071 41.3059 13.9763 42.2565C15.5805 41.5597 15.4492 41.3529 17.4797 41.8131C17.1738 41.3958 16.6125 41.3411 16.8151 40.4017C16.9549 39.7535 17.3809 39.3144 17.7893 39.0933C19.7651 38.0237 20.3038 40.1865 20.5057 40.4665C20.4245 39.0251 20.8106 37.8905 22.4415 37.7171C23.7402 37.5791 24.8889 38.2828 24.8596 40.0067C25.282 39.5614 25.2523 38.6318 26.3802 39.0364C26.9169 39.2289 27.6394 40.0338 28.0343 40.019C28.6172 39.997 29.4115 39.2969 30.238 39.9396C30.885 40.4427 30.8698 40.897 31.3241 41.5114C31.6721 40.9587 32.4536 37.7353 35.5296 39.6998C35.9384 39.9608 35.9889 40.1689 36.419 39.9924C37.5497 39.5281 37.8991 40.1012 38.4671 40.5418L38.391 40.1458C38.0808 39.9224 37.9897 39.6517 37.5981 39.5168C37.0116 39.3147 36.7694 39.5655 36.2751 39.5588C35.9132 39.5539 34.9436 38.9177 34.2371 38.7702C32.4081 38.5505 32.1568 39.5275 31.324 40.0498C29.3071 39.3027 30.13 39.3003 27.7553 39.6573C26.6721 38.4298 27.2293 38.5171 25.0559 38.7518C24.7049 37.959 23.8872 37.2872 22.5987 37.3428C20.9661 37.4134 20.5751 38.4408 20.1224 38.86C18.6722 38.2118 18.6214 38.3894 17.2139 38.8865C16.8168 36.9362 15.9143 36.4328 13.7414 36.4658C13.3125 35.053 13.3603 35.3343 12.0927 34.8294C11.4751 33.2885 12.8775 32.2371 9.72682 30.7547C7.0706 30.2845 6.94946 31.3099 5.61194 32.7575C4.53511 31.8357 4.0563 32.207 2.70745 32.2979L2.30504 30.1902C0.585427 31.539 3.91457 38.5261 4.60331 39.8988C5.3117 41.3108 6.35143 42.7378 7.21138 43.8314C7.71119 44.4671 8.22478 45.0206 8.73469 45.5802C11.1988 48.2844 15.1137 50.8475 18.4901 52.1827C25.3903 54.9116 33.4986 54.6634 40.0875 51.2874C43.4515 49.5639 43.5789 49.2418 45.9668 47.3485C47.3996 46.2125 49.4899 43.6583 50.5461 42.1141C51.3526 40.935 52.2404 39.3765 52.8785 37.904C62.2096 16.3712 41.7295 -6.67193 18.6566 1.79708C17.0804 2.37561 15.531 3.13569 14.2493 3.93084C12.7494 4.86144 11.7914 5.56683 10.5113 6.73411C6.03482 10.8161 1.88243 17.4796 1.64453 24.2243C2.05363 23.8903 1.98474 23.6944 2.20068 23.4829L2.20082 23.4823Z" fill="#694412"/>
<path id="Vector_3" fill-rule="evenodd" clip-rule="evenodd" d="M40.3809 41.3155C40.5442 40.2757 39.1494 39.5384 38.391 40.1453L38.4671 40.5413C37.8991 40.1007 37.5497 39.5276 36.419 39.9918C35.9889 40.1683 35.9384 39.9603 35.5296 39.6992C32.4536 37.7347 31.6721 40.9581 31.3241 41.5109C30.8697 40.8966 30.885 40.4422 30.238 39.939C29.4115 39.2962 28.6172 39.9964 28.0343 40.0184C27.6392 40.0333 26.9169 39.2283 26.3801 39.0358C25.2523 38.6312 25.2819 39.5609 24.8596 40.0061C24.8889 38.2823 23.7402 37.5785 22.4415 37.7166C20.8107 37.89 20.4247 39.0245 20.5057 40.466C20.3038 40.1859 19.7651 38.0231 17.7893 39.0927C17.3809 39.3138 16.9549 39.7531 16.8151 40.4012C16.6125 41.3405 17.1738 41.3952 17.4797 41.8125C15.4492 41.3522 15.5805 41.5592 13.9763 42.256C13.0073 41.3053 13.5495 41.2194 11.8945 41.5293C11.7055 41.1283 11.6206 40.2895 11.3818 39.7569C10.5438 37.8889 8.8063 37.6695 6.87648 37.7137C8.14661 36.9671 9.32303 37.3356 10.3595 38.1039C11.8063 39.1763 11.8437 40.2877 12.2347 40.8747C14.3403 40.9148 13.4103 41.5695 14.2568 41.5861C14.5284 41.5914 16.1335 41.2535 16.4878 41.1637C16.7891 40.1772 16.9852 38.597 16.4268 37.7886C15.7296 36.7794 14.9484 36.9071 13.5798 36.767C12.9303 35.6682 13.1662 34.7968 11.0163 35.7618C11.4265 34.9724 11.9097 34.3771 11.6133 33.1806C11.1391 31.267 8.78898 30.4865 7.42008 31.3043C6.92681 31.5989 6.15882 32.4848 5.95174 33.1214C5.07598 32.9909 3.90365 32.268 3.02843 32.6584C2.16221 33.4084 6.45087 42.6644 8.00679 43.032C8.51342 43.1517 10.3483 43.0847 11.0024 43.0873C16.0914 43.1069 25.0625 43.3293 29.4678 42.8294C31.9243 42.5508 33.5511 41.7454 34.5916 41.742C36.6198 41.7353 38.4544 41.8706 40.3811 41.3154L40.3809 41.3155Z" fill="#EEECEB"/>
<path id="Vector_4" fill-rule="evenodd" clip-rule="evenodd" d="M9.72768 30.7538C12.8785 32.2362 11.4759 33.2877 12.0936 34.8286C13.3611 35.3333 13.3134 35.0522 13.7423 36.465C15.9153 36.432 16.8177 36.9353 17.2148 38.8856C18.6223 38.3887 18.673 38.2109 20.1232 38.8592C20.576 38.44 20.9669 37.4124 22.5995 37.342C23.8881 37.2863 24.7057 37.9582 25.0567 38.751C27.2303 38.5162 26.6729 38.4288 27.7562 39.6565C30.1308 39.2995 29.308 39.3018 31.3249 40.0489C32.1577 39.5266 32.4089 38.5498 34.2379 38.7694C34.2325 37.656 33.7364 37.0206 32.5964 37.1319C32.419 37.1408 31.219 36.0129 29.8344 35.9971C28.3916 35.9806 27.7177 36.7491 26.9848 37.0454C26.239 35.8244 26.2666 35.7179 24.5584 35.9019C23.633 32.864 20.8603 34.0491 20.1479 34.1097C20.0519 31.3845 18.4331 29.8903 16.0766 30.3464C15.2151 30.5131 14.8052 30.9002 14.1383 31.0785C13.8379 30.2638 13.3359 29.861 12.2547 29.7258C12.3447 29.6374 12.3117 29.6196 12.541 29.5204C12.5487 29.2913 12.7804 29.3879 12.2074 29.296C11.7818 29.2276 11.1273 29.3758 10.7439 29.5683C10.3051 29.7886 9.86927 30.2185 9.72754 30.754L9.72768 30.7538Z" fill="#EEECEB"/>
<path id="Vector_5" fill-rule="evenodd" clip-rule="evenodd" d="M2.39369 24.2024C1.57808 25.3895 0.837358 26.3819 0.394565 28.1415C0.112055 29.264 -0.285859 32.5727 0.308489 33.5035L2.16861 29.1415C2.78287 27.5032 3.96693 26.2741 5.19095 25.5051C6.04953 24.9658 9.30665 23.7117 10.5369 24.2459C11.1381 24.5069 11.5109 25.0112 12.8426 25.3068C13.7971 25.5187 15.2117 25.339 15.8904 25.6324C16.8262 26.0369 17.034 26.8974 17.8571 27.0551C18.8414 27.2436 19.7409 26.3725 19.7288 25.5326C18.6672 24.8089 15.3976 24.8887 16.1292 22.3655C16.6953 20.4132 17.6132 18.844 18.8612 17.9609C22.9634 15.0577 29.7115 17.109 30.8835 16.3142C28.6667 15.6367 19.7861 15.5232 17.0238 16.1249C15.4646 16.4646 15.9117 17.8316 13.4427 19.9791C12.3515 20.9281 12.6452 20.961 10.9152 20.4977C9.96579 20.2435 8.78323 19.9419 7.79029 19.7848L9.21075 22.4431C8.0477 22.833 5.35683 23.1399 3.81796 23.4429C2.8875 23.6261 2.84862 23.7145 2.39369 24.2023V24.2024Z" fill="#67420E"/>
<path id="Vector_6" fill-rule="evenodd" clip-rule="evenodd" d="M39.6512 48.8432C40.4747 48.8432 41.974 48.9872 42.6732 48.7153C43.3877 48.4375 44.1549 47.7396 44.4245 47.2395L11.9531 47.2402C12.0606 47.6636 11.9082 47.3781 12.2198 47.6481L13.0896 48.2615C13.5144 48.5562 13.7879 48.8685 14.472 48.8685L39.6512 48.8433V48.8432Z" fill="#A9D2AB"/>
<path id="Vector_7" fill-rule="evenodd" clip-rule="evenodd" d="M31.7213 51.3216C33.3621 51.3216 35.616 51.4962 37.1725 51.3413C38.1532 51.2436 40.1734 50.3959 40.9549 49.6364C38.7234 49.5739 16.1492 49.5657 15.3896 49.6654C15.5428 50.0342 16.852 50.5134 17.2649 50.7306C18.0186 51.1268 18.5345 51.3467 19.5283 51.3467L31.7213 51.3215V51.3216Z" fill="#A9D2AB"/>
<path id="Vector_8" fill-rule="evenodd" clip-rule="evenodd" d="M9.97949 45.5606C10.3211 45.8593 10.4617 46.3343 11.3139 46.5678C11.8653 46.719 13.0432 46.6464 13.6783 46.6418C17.1148 46.6172 44.6147 46.7586 45.2871 46.5684C46.0997 46.3385 46.2095 45.8428 46.521 45.5312L9.97949 45.5606Z" fill="#A9D2AB"/>
<path id="Vector_9" fill-rule="evenodd" clip-rule="evenodd" d="M8.84291 44.2422C9.02038 45.0581 9.70081 44.9911 10.6051 44.9843C11.4305 44.978 12.258 44.9834 13.0836 44.9834L45.9956 45.0036C46.8023 45.0083 47.5855 45.0035 47.6803 44.2422H8.84277H8.84291Z" fill="#A9D2AB"/>
<path id="Vector_10" fill-rule="evenodd" clip-rule="evenodd" d="M12.5402 29.5207C12.3108 29.6199 12.3439 29.6378 12.2539 29.7262C13.335 29.8613 13.8371 30.2642 14.1375 31.0788C14.8044 30.9005 15.2145 30.5134 16.0758 30.3467C18.4324 29.8907 20.0511 31.3848 20.1471 34.11C20.8595 34.0495 23.632 32.8643 24.5576 35.9022C26.2656 35.7182 26.2381 35.8246 26.984 37.0458C27.7169 36.7493 28.3908 35.9808 29.8336 35.9974C31.2182 36.0134 32.4182 37.1411 32.5956 37.1322C31.4441 34.7321 28.8478 35.6647 27.1054 36.6259C26.3809 35.6538 26.3548 35.2264 24.7881 35.5531C23.8053 33.5289 23.1449 33.2131 20.4074 33.6076C20.4015 31.7652 19.7618 30.8213 18.5282 30.2317C16.7861 29.3992 15.8425 29.9788 14.3583 30.5236C13.9918 29.7623 13.3946 29.372 12.5401 29.5207H12.5402Z" fill="#684310"/>
<path id="Vector_11" fill-rule="evenodd" clip-rule="evenodd" d="M21.9229 52.2781C23.3413 53.3986 29.4716 53.2728 31.7642 52.9977C33.6486 52.7715 33.3456 52.6966 34.7378 52.2788L21.9229 52.2781Z" fill="#A9D2AB"/>
<path id="Vector_12" fill-rule="evenodd" clip-rule="evenodd" d="M50.4947 19.7849C50.4475 18.8973 50.1369 18.3223 49.7343 17.7645C49.427 17.3388 48.9025 16.6013 48.3076 16.5745C48.321 16.9656 48.3264 16.7292 48.7863 17.3266L50.4947 19.7849Z" fill="#E6BCA4"/>
<path id="Vector_13" fill-rule="evenodd" clip-rule="evenodd" d="M46.3085 9.73407C46.7257 9.52972 46.8527 9.34134 47.1406 9.01218L45.7617 8.29028L46.3085 9.73393V9.73407Z" fill="#E6BCA4"/>
<path id="Vector_14" fill-rule="evenodd" clip-rule="evenodd" d="M36.7666 7.69975C36.7696 7.70207 36.7808 8.13995 37.4472 7.59812C37.7244 7.37277 37.6376 7.2174 37.47 6.89355C37.1598 7.09176 36.7628 7.56197 36.7666 7.69975Z" fill="#E4BBA3"/>
<g id="Group 1">
<path id="Vector_15" fill-rule="evenodd" clip-rule="evenodd" d="M156.735 25.1223L150.457 11.1015C150.215 10.5727 148.659 6.79291 148.213 6.38595L143.104 32.5409C143.841 32.6594 144.833 32.5836 145.588 32.5903C147.041 32.6032 146.93 32.8844 147.152 31.5037C147.761 27.7074 148.792 21.2515 149.525 17.8765C150.41 19.1416 155.987 33.0287 156.658 33.6398C156.977 32.5721 157.862 30.7952 158.378 29.7036L161.875 21.9047C162.195 21.2125 162.461 20.6583 162.759 19.9718C162.923 19.5928 163.039 19.32 163.212 18.945L163.754 17.9444L166.177 32.5856L170.001 32.5897L165.429 6.29956C164.185 8.74707 157.136 24.7067 156.736 25.1223H156.735Z" fill="#67420E"/>
<path id="Vector_16" fill-rule="evenodd" clip-rule="evenodd" d="M91.887 11.5327C95.4159 11.5327 98.2308 11.6468 100.632 13.7429C103.555 16.2953 104.732 23.7613 99.8738 27.3905C97.6901 29.0217 95.0394 29.0689 91.882 29.0689L91.887 11.5325V11.5327ZM88.0941 32.5626C90.1045 32.7391 93.6987 32.6524 95.6937 32.4827C101.933 31.9526 107.108 27.6917 107.114 20.4072C107.119 13.5251 102.761 8.74277 95.8985 8.12455C94.2028 7.97176 89.6707 7.83007 88.0928 8.06259L88.0939 32.5625L88.0941 32.5626Z" fill="#67420E"/>
<path id="Vector_17" fill-rule="evenodd" clip-rule="evenodd" d="M62.9125 32.1012L62.9495 32.5901L76.4181 32.5877L76.4506 29.0865L66.7009 29.0641V20.9626L76.1732 20.9313L76.1795 17.4668L66.7281 17.412L66.6993 11.5586L76.4558 11.5298V8.05321C74.9972 7.9154 65.1739 8.01214 62.9121 8.01362L62.9125 32.101V32.1012Z" fill="#67420E"/>
<path id="Vector_18" fill-rule="evenodd" clip-rule="evenodd" d="M118.617 32.5576L132.103 32.5898L132.111 29.0655L122.43 29.0678L122.414 20.9357H131.874L131.89 17.4157H122.464C122.331 16.2882 122.411 12.8849 122.414 11.5336H132.176L132.159 8.01392L118.615 8.01725L118.616 32.5576H118.617Z" fill="#67420E"/>
<g id="TRAVEL AGENCY">
<path d="M62.9121 40.3584V39.1616H67.9966V40.3584H66.0691V46.8474H64.8292V40.3584H62.9121Z" fill="#67420E"/>
<path d="M72.5279 43.1802H73.8616L76.3309 46.8474H74.8514L72.5279 43.1802ZM71.0276 39.1616H72.257V46.8474H71.0276V39.1616ZM71.7569 40.2815V39.1616H73.2781C73.806 39.1616 74.2645 39.2604 74.6534 39.4581C75.0494 39.6557 75.355 39.9338 75.5703 40.2925C75.7856 40.6439 75.8933 41.0611 75.8933 41.5442C75.8933 42.0273 75.7856 42.4482 75.5703 42.8069C75.355 43.1655 75.0494 43.4437 74.6534 43.6413C74.2645 43.8389 73.806 43.9378 73.2781 43.9378H71.7569V42.8727H73.226C73.5039 42.8727 73.747 42.8215 73.9554 42.719C74.1707 42.6165 74.3374 42.4701 74.4555 42.2798C74.5736 42.0822 74.6326 41.848 74.6326 41.5771C74.6326 41.299 74.5736 41.0647 74.4555 40.8744C74.3374 40.6841 74.1707 40.5377 73.9554 40.4352C73.747 40.3328 73.5039 40.2815 73.226 40.2815H71.7569Z" fill="#67420E"/>
<path d="M80.2352 44.871L80.4644 43.7731H83.8506L84.0903 44.871H80.2352ZM82.1419 41.3356L80.9958 44.1574L80.975 44.4428L79.9643 46.8474H78.5786L82.1419 38.7334L85.7052 46.8474H84.3195L83.3297 44.5087L83.2984 44.1903L82.1419 41.3356Z" fill="#67420E"/>
<path d="M90.4336 44.5636L92.5799 39.1616H93.9969L90.4336 47.2756L86.8703 39.1616H88.2873L90.4336 44.5636Z" fill="#67420E"/>
<path d="M97.7419 46.8474V45.7055H101.42V46.8474H97.7419ZM97.7419 40.3035V39.1616H101.42V40.3035H97.7419ZM97.7419 43.29V42.17H101.211V43.29H97.7419ZM96.9813 39.1616H98.1899V46.8474H96.9813V39.1616Z" fill="#67420E"/>
<path d="M105.069 39.1616H106.299V45.6835H109.195V46.8474H105.069V39.1616Z" fill="#67420E"/>
<path d="M118.356 44.871L118.586 43.7731H121.972L122.211 44.871H118.356ZM120.263 41.3356L119.117 44.1574L119.096 44.4428L118.086 46.8474H116.7L120.263 38.7334L123.826 46.8474H122.441L121.451 44.5087L121.42 44.1903L120.263 41.3356Z" fill="#67420E"/>
<path d="M129.965 43.9268V42.8288H133.476C133.49 43.3924 133.421 43.9268 133.268 44.4318C133.115 44.9296 132.886 45.3724 132.58 45.7604C132.274 46.1483 131.892 46.4558 131.434 46.6827C130.982 46.9023 130.468 47.0121 129.892 47.0121C129.343 47.0121 128.836 46.9169 128.371 46.7266C127.905 46.529 127.499 46.2508 127.152 45.8921C126.811 45.5335 126.547 45.1089 126.36 44.6185C126.172 44.1281 126.079 43.5901 126.079 43.0045C126.079 42.4189 126.172 41.8846 126.36 41.4015C126.554 40.911 126.822 40.4901 127.162 40.1388C127.509 39.7801 127.916 39.5056 128.381 39.3153C128.854 39.125 129.364 39.0298 129.913 39.0298C130.392 39.0298 130.826 39.0994 131.215 39.2385C131.604 39.3702 131.951 39.5642 132.257 39.8204C132.57 40.0693 132.834 40.373 133.049 40.7317L132.049 41.4344C131.847 41.0684 131.566 40.7756 131.205 40.556C130.851 40.3364 130.42 40.2266 129.913 40.2266C129.44 40.2266 129.013 40.3437 128.631 40.578C128.249 40.8049 127.944 41.127 127.714 41.5442C127.485 41.9541 127.371 42.4409 127.371 43.0045C127.371 43.5608 127.482 44.0512 127.704 44.4758C127.933 44.893 128.239 45.2187 128.621 45.453C129.003 45.6872 129.434 45.8043 129.913 45.8043C130.239 45.8043 130.531 45.7567 130.788 45.6616C131.045 45.5664 131.267 45.431 131.455 45.2553C131.642 45.0796 131.799 44.8784 131.924 44.6514C132.049 44.4245 132.142 44.183 132.205 43.9268H129.965Z" fill="#67420E"/>
<path d="M137.634 46.8474V45.7055H141.311V46.8474H137.634ZM137.634 40.3035V39.1616H141.311V40.3035H137.634ZM137.634 43.29V42.17H141.103V43.29H137.634ZM136.873 39.1616H138.082V46.8474H136.873V39.1616Z" fill="#67420E"/>
<path d="M150.285 39.1616H151.494V47.2317L146.17 41.6869V46.8474H144.961V38.7773L150.285 44.322V39.1616Z" fill="#67420E"/>
<path d="M156.154 43.0045C156.154 43.5462 156.268 44.0219 156.497 44.4318C156.734 44.8418 157.039 45.1602 157.414 45.3871C157.796 45.6067 158.21 45.7165 158.654 45.7165C159.001 45.7165 159.314 45.6689 159.592 45.5737C159.87 45.4786 160.12 45.3505 160.342 45.1894C160.571 45.0211 160.769 44.8344 160.936 44.6295V46.1666C160.63 46.4301 160.3 46.6314 159.946 46.7705C159.592 46.9096 159.147 46.9791 158.612 46.9791C158.078 46.9791 157.578 46.884 157.112 46.6937C156.654 46.5033 156.254 46.2288 155.914 45.8702C155.574 45.5115 155.306 45.0906 155.112 44.6075C154.924 44.1171 154.83 43.5827 154.83 43.0045C154.83 42.4262 154.924 41.8955 155.112 41.4124C155.306 40.922 155.574 40.4975 155.914 40.1388C156.254 39.7801 156.654 39.5056 157.112 39.3153C157.578 39.125 158.078 39.0298 158.612 39.0298C159.147 39.0298 159.592 39.0994 159.946 39.2385C160.3 39.3775 160.63 39.5788 160.936 39.8423V41.3795C160.769 41.1745 160.571 40.9915 160.342 40.8305C160.12 40.6622 159.87 40.5304 159.592 40.4352C159.314 40.3401 159.001 40.2925 158.654 40.2925C158.21 40.2925 157.796 40.406 157.414 40.6329C157.039 40.8525 156.734 41.1672 156.497 41.5771C156.268 41.9797 156.154 42.4555 156.154 43.0045Z" fill="#67420E"/>
<path d="M168.283 39.1616H169.689L167.21 43.6084V46.8474H165.959V43.6193L163.49 39.1616H164.886L166.584 42.4555L168.283 39.1616Z" fill="#67420E"/>
</g>
</g>
</g>
</svg>
