<svg width="36" height="51" viewBox="0 0 36 51" fill="none" xmlns="http://www.w3.org/2000/svg">
<g id="Group 1839">
<path id="Vector" d="M17.9297 0C8.04266 0 0 8.04266 0 17.9297C0 21.2696 0.925072 24.5293 2.67461 27.3571L16.9084 50.2931C17.4986 51.2462 18.8901 51.2317 19.4619 50.2727L33.3323 27.1149C34.9839 24.3469 35.8594 21.1704 35.8594 17.9297C35.8594 8.04266 27.8167 0 17.9297 0ZM17.9297 26.9145C12.9149 26.9145 8.94492 22.8326 8.94492 17.9297C8.94492 12.9862 12.9862 8.94492 17.9297 8.94492C22.8732 8.94492 26.9145 12.9862 26.9145 17.9297C26.9145 22.7893 22.9979 26.9145 17.9297 26.9145Z" fill="#67420E"/>
<g id="Group 1837">
<path id="Vector_2" fill-rule="evenodd" clip-rule="evenodd" d="M4.18126 15.6004C4.35021 15.5717 4.30409 15.843 4.28484 15.9868C4.52888 15.7249 4.54982 15.6775 5.0491 15.5793C5.87485 15.4167 7.31875 15.252 7.94284 15.0428L7.18063 13.6164C7.71344 13.7006 8.34799 13.8625 8.85745 13.9989C9.78575 14.2475 9.62823 14.2299 10.2137 13.7206C11.5386 12.5683 11.2986 11.8348 12.1353 11.6525C13.6175 11.3296 18.3828 11.3905 19.5723 11.7541C18.9434 12.1805 15.3225 11.0799 13.1212 12.6377C12.4516 13.1116 11.959 13.9536 11.6552 15.0012C11.2627 16.3551 13.0171 16.3122 13.5868 16.7006C13.5934 17.1513 13.1107 17.6187 12.5824 17.5176C12.1408 17.433 12.0293 16.9712 11.5271 16.7542C11.1628 16.5967 10.4038 16.6931 9.89167 16.5795C9.17718 16.4208 8.97706 16.1502 8.65447 16.0102C7.9943 15.7236 6.24662 16.3965 5.78584 16.6859C5.12903 17.0984 4.49375 17.758 4.16406 18.6371C4.17153 18.6481 4.1798 18.6532 4.18207 18.6727C4.18807 18.7259 4.26734 18.7458 4.23733 19.1996L4.45327 20.3306C5.17712 20.2818 5.43398 20.0826 6.0118 20.5772C6.72951 19.8004 6.79444 19.2502 8.21982 19.5025C8.29588 19.2152 8.52974 18.9845 8.76522 18.8662C8.97091 18.763 9.32219 18.6835 9.55049 18.7201C9.858 18.7695 9.73363 18.7177 9.72953 18.8406C10.188 18.7608 10.5085 18.9703 10.7052 19.3787C11.5015 19.0864 12.0078 18.7753 12.9427 19.2221C13.6046 19.5384 13.9479 20.045 13.9511 21.0336C15.42 20.8218 15.7743 20.9913 16.3018 22.0775C17.1425 21.9022 17.1564 22.1315 17.5452 22.6531C18.4801 22.1375 19.8733 21.6369 20.4912 22.9249C21.1029 22.8651 21.3691 23.2061 21.3721 23.8035C21.7512 23.8827 22.2714 24.2241 22.4656 24.2267C22.7309 24.2303 22.8608 24.0957 23.1756 24.2041C23.3857 24.2765 23.4346 24.4218 23.601 24.5417C24.008 24.2159 24.7564 24.6116 24.6688 25.1696C25.0773 25.0861 25.685 24.8987 26.0151 24.7177C24.8442 24.2235 23.9275 23.7016 23.2074 22.6833C23.0707 22.4901 23.0681 22.4079 22.8941 22.3384C22.8552 22.4105 22.8715 22.3556 22.8559 22.4718L22.8885 22.8955C22.9108 23.0912 22.9316 23.2771 22.945 23.4744C22.6972 23.3782 22.6003 23.2841 22.4957 23.0212L22.2935 22.4207C22.29 22.4123 22.2777 22.4038 22.275 22.3842C22.2723 22.3645 22.263 22.3595 22.2558 22.3476C22.115 22.5896 22.0773 23.1176 21.8834 23.2909C21.7547 23.1335 21.8757 22.3396 21.8839 22.0723L21.5362 22.5426C21.4159 22.7124 21.3159 22.8673 21.191 22.9981C21.1484 22.7336 21.1273 22.471 21.2188 22.2251C21.2643 22.1027 21.3136 22.0397 21.384 21.9614C21.5146 21.8161 21.5222 21.9081 21.5373 21.7462C21.366 21.636 20.9075 21.9005 20.665 21.9808C20.6935 21.5113 20.982 21.5067 21.2257 21.2576L20.7926 21.2138C20.821 20.8845 21.2466 20.8547 21.5844 20.8162C21.5747 20.8061 21.5609 20.7933 21.5538 20.7872C21.4064 20.6603 21.2142 20.5934 21.0944 20.4426C21.345 20.1501 21.607 20.3997 21.9394 20.4719C21.9634 20.3442 21.9918 20.2266 22.0292 20.1105L22.164 19.8409C22.2384 20.0669 22.3673 20.5365 22.5229 20.6997C22.6949 20.5166 22.9921 20.1847 23.2132 20.0477C23.2977 20.2091 23.1962 20.3331 23.1544 20.5117L24.2216 20.5139C24.0773 20.6043 23.9147 20.675 23.7379 20.755C23.5271 20.8504 23.3476 20.8558 23.2784 21.0277C23.6468 21.2985 24.0557 20.8769 24.3948 21.4668L23.3374 21.4724C23.4461 21.748 23.7806 21.985 23.909 22.3017C23.7136 22.2789 23.647 22.2383 23.4658 22.1564C23.0777 21.9812 23.1635 22.0406 23.106 22.1008C23.001 22.2765 23.1592 22.2834 23.3139 22.4685C23.6145 22.8283 23.9368 23.1987 24.3663 23.4908C24.7713 23.7663 25.6563 24.2457 26.1474 24.4244C26.6278 24.5991 26.9263 24.4642 27.3801 24.4071C27.7322 24.3627 28.3052 24.4318 28.4305 24.1225C28.6064 23.6877 28.4091 22.2388 28.1071 21.8104C28.1 21.8235 28.0949 21.842 28.0924 21.8526C28.0898 21.8632 28.0821 21.8823 28.0795 21.8957L28.0933 22.3623C28.0709 22.7572 28.1405 22.0599 28.0798 22.4496L27.9218 22.3261C27.8862 22.257 27.873 22.2214 27.8349 22.1489C27.7673 22.0203 27.703 21.8958 27.6423 21.7932C27.5641 21.9413 27.4838 22.4115 27.2993 22.4958L27.3779 21.4936C27 21.5235 27.1876 21.5656 27.0433 21.7928C26.7071 21.3651 27.175 21.1889 27.4796 21.0544L26.9397 20.9213C27.1654 20.5788 27.3968 20.799 27.7767 20.805C27.9524 20.4841 27.8427 20.2897 28.2402 20.3118C28.2406 20.5136 28.0995 20.6472 28.0331 20.8717C28.5229 20.7202 28.5613 20.5688 29.0182 20.854C28.888 20.9702 28.6616 20.9764 28.4969 21.0399C28.678 21.1818 28.918 21.2409 29.0411 21.4189L28.1125 21.3565C28.2774 21.8202 28.4539 22.134 28.5726 22.6872C28.7048 23.3028 28.6193 23.7845 28.6968 24.3257C29.192 24.4579 29.9761 24.2249 30.3795 24.0441C31.0261 23.7543 32.12 20.0939 31.9371 19.6399C31.7841 19.6823 31.8704 19.5623 31.7659 19.845C31.6669 20.1129 31.6344 20.4803 31.4261 20.6894C31.4061 20.4463 31.4016 20.0313 31.2815 19.8814C31.0917 20.0567 31.0442 20.4081 30.8732 20.6493C30.7362 20.4975 30.729 20.1708 30.7921 19.9362C30.85 19.7212 30.9335 19.5541 30.9769 19.3274L30.3031 19.9104C30.3148 19.6798 30.3774 19.5105 30.4856 19.3646C30.58 19.2371 30.5683 19.2751 30.6789 19.1745C31.0893 18.801 30.3588 19.1466 30.2614 19.1937C30.0574 19.2922 29.9058 19.3693 29.6945 19.4382C29.8044 19.0134 30.0638 18.8999 30.232 18.4713C30.4757 17.8505 30.3418 17.8467 31.1497 17.903C30.9737 17.5165 30.5767 17.6097 30.2511 17.7577C30.5171 17.0053 31.1735 17.2455 31.5908 17.6498C31.6142 17.6725 31.6511 17.7059 31.6767 17.7257C31.7574 17.7885 31.6819 17.7432 31.7775 17.7888C32.3282 17.2093 32.1604 16.545 32.044 15.6579C31.86 14.2559 31.4622 12.8794 30.858 11.6265C30.7149 11.3298 30.5623 11.0674 30.4163 10.7915C30.3379 10.6433 30.2728 10.5288 30.1961 10.3752C30.0885 10.1596 30.1226 10.0633 29.9223 10.0278C29.957 10.1707 30.1022 10.427 30.1763 10.5556C30.2896 10.7527 30.4228 10.8576 30.3263 11.008C30.1159 10.8349 29.5793 10.008 29.4054 9.71026C29.4763 10.1398 29.7567 10.5807 29.9728 10.8633C30.1288 11.0673 30.1834 11.1278 30.3663 11.3205C30.4903 11.4512 30.6782 11.5961 30.7427 11.748C30.5126 11.7807 30.3902 11.5243 30.1346 11.4115C30.1364 11.6204 30.3707 11.9241 30.4577 12.1689C30.2792 12.0729 30.2843 12.0317 30.1781 11.8804C30.038 11.6808 29.7202 11.1198 29.4898 11.0642C29.694 11.6602 30.2794 12.2092 30.5117 12.8039C30.2957 12.7281 30.4791 12.8382 30.3058 12.656C30.2888 12.6382 30.1846 12.5099 30.1627 12.4829C30.0327 12.3226 29.553 11.6187 29.3721 11.5917L29.4057 11.7468C29.629 12.0759 29.8562 12.2404 30.0329 12.6668C30.1348 12.9131 30.2016 13.1275 30.1512 13.401C30.061 13.8907 30.1474 13.6739 30.3041 14.0808C30.1716 14.0063 30.0523 13.8229 29.9566 13.6997C29.8274 13.5333 29.8039 13.4882 29.6838 13.3332C29.5919 13.2145 29.1966 12.667 29.1308 12.6808C29.0812 12.757 29.029 12.6058 29.1581 12.8422L30.0529 14.1852C29.7464 14.2491 29.9839 14.1171 29.8203 14.3651C29.7038 14.2425 29.1829 13.7793 29.0076 13.7184C29.1352 14.1215 29.667 14.6409 29.7551 15.0134C29.5661 14.9596 29.4346 14.7224 29.3029 14.5645C29.1466 14.3773 29.0694 14.184 28.8366 14.1483C28.9172 14.3747 29.0543 14.5084 29.1794 14.6884C29.2873 14.8436 29.3793 14.9906 29.4755 15.1632L29.0773 14.9269C29.2645 15.2804 29.7312 15.584 29.8596 15.9175C29.6069 15.8511 29.26 15.4223 29.0113 15.2476C29.0558 15.406 29.26 15.6299 29.3707 15.7746C29.4862 15.9255 29.6933 16.1199 29.6604 16.2529C29.5249 16.2684 29.5593 16.1845 29.3863 16.0734L29.5888 16.9498C29.4105 16.8634 29.3801 16.8002 29.2087 16.7354L29.5396 17.4088C29.2614 17.2578 29.0927 16.6739 28.8988 16.7097C28.8959 16.7187 28.8961 16.7335 28.8965 16.7379C28.8969 16.7422 28.8955 16.7608 28.8965 16.7662C28.9484 17.0475 29.3706 17.4007 29.4801 17.6872C29.2783 17.6149 29.2187 17.5021 28.9863 17.3897C29.1245 17.6592 29.4749 17.9893 29.5218 18.1858C29.2551 18.1529 29.2157 17.8702 28.9579 17.8235C29.0852 18.1639 29.3932 18.3375 29.5044 18.6908C29.2481 18.5695 29.2882 18.3343 29.0379 18.338L29.3361 19.1798C29.2029 19.1171 29.1598 19.0343 29.0644 18.8969C29.0095 18.8177 28.917 18.715 28.8818 18.6634C28.8394 18.8966 28.8471 19.2631 28.7269 19.4212L28.6001 18.8138C28.4891 18.949 28.4386 19.1188 28.2814 19.214L28.5458 18.1452C28.3409 18.2639 28.5081 18.1725 28.3677 18.3102L28.1757 18.444L28.5958 17.4646C28.324 17.5838 28.3019 17.9167 27.9952 18.0623C28.117 17.7309 28.3634 17.4278 28.4237 17.1019C28.1031 17.237 28.0419 17.5867 27.7518 17.6066C27.9223 17.2327 28.3799 16.7956 28.4922 16.4431C28.1334 16.5545 28.1614 16.8095 27.7643 16.9516C27.8922 16.609 28.2301 16.4238 28.3087 16.1479C27.9869 16.1624 27.772 16.8745 27.4291 16.9802L27.7841 16.2963C27.5652 16.4178 27.5259 16.5703 27.3261 16.6466C27.3789 16.3313 27.8663 15.8571 27.9565 15.4931C27.8032 15.59 27.8286 15.5947 27.7265 15.7574C27.6782 15.8344 27.645 15.9195 27.5862 15.9339C27.1507 15.8828 28.0781 15.1439 28.1741 14.793L28.1762 14.7328C28.0024 14.6925 28.0092 14.8155 27.8634 14.9854C27.6088 15.2821 27.3438 15.6985 27.061 15.9128C27.1592 15.0845 27.8154 14.8166 28.0928 14.2406C27.8329 14.4617 27.298 14.9903 26.9871 15.0883C27.091 14.8207 27.9917 14.0374 27.942 13.9113C27.8493 13.7997 27.2875 14.4157 27.0047 14.4698C27.0404 14.1822 27.8912 13.6575 28.044 13.3244C27.6669 13.4798 27.2634 13.9628 26.893 14.1567C27.0443 13.4327 27.8409 13.2556 28.063 12.7593C27.6526 12.8714 26.8773 13.6419 26.5866 13.6709C26.7193 13.4677 26.8323 13.2568 27.0207 13.0784C27.215 12.8944 27.3854 12.7726 27.5104 12.5244C27.2528 12.6528 26.936 12.8902 26.6938 12.9724C26.6819 12.7902 26.8549 12.7212 26.983 12.6151L28.031 11.7327C27.8177 11.7203 27.2893 12.0926 27.0516 12.1851C27.3133 11.7148 27.7873 11.5543 28.1667 11.1859L28.223 11.1244C27.8829 11.2016 27.246 11.5839 26.9599 11.5456C27.1751 11.2899 27.8652 10.9669 27.997 10.6951L26.8272 11.2927C27.045 10.821 27.6864 10.6151 28.0457 10.2389L27.1194 10.5277C27.2258 10.171 28.2907 9.9311 28.3053 9.54476C28.0214 9.5613 27.4618 10.003 27.139 10.1127C27.2986 9.79385 27.9231 9.41703 28.0404 9.12394C27.7809 9.23359 27.5033 9.55376 27.2676 9.57843C27.3473 9.34954 27.5099 9.24992 27.6761 9.05433C27.8252 8.87888 28.0235 8.69778 28.1052 8.49883C27.8166 8.66126 27.2237 9.28278 27.0106 9.30445C27.1562 8.93041 27.5877 8.66309 27.7098 8.31408C27.638 7.99596 26.9565 7.14935 26.7797 7.02872C26.957 7.457 27.3891 8.02341 27.4983 8.43508C27.2496 8.35148 27.23 8.08211 27.0423 7.91551L27.0065 8.48448C26.997 8.47307 26.9853 8.46091 26.9757 8.44832C26.9072 8.3591 27.001 8.49759 26.9266 8.37652L26.7079 7.88909C26.6094 8.31371 26.9217 8.90728 26.5999 9.2983C26.4795 8.40104 26.3074 7.98227 25.874 7.37004L26.4279 10.0298C26.1867 9.84377 26.0133 9.20204 25.8981 8.92697C25.796 8.683 25.5878 8.00255 25.3879 7.83134C25.4652 8.19023 26.0411 9.94222 25.9797 10.1091C25.8267 10.0787 25.9663 10.1528 25.8538 10.0328C25.6698 9.83653 25.4703 9.2994 25.3483 9.05389C25.1779 8.71154 25.0485 8.34138 24.8329 8.02436L24.7563 7.9333C24.5939 8.16885 25.0859 8.88825 25.2041 9.08925C25.4423 9.49418 25.6037 9.90138 25.5708 10.4629L25.3922 10.1757C25.3545 10.0872 25.3257 10.0125 25.2801 9.91624C25.1929 9.732 25.1291 9.55076 25.0222 9.42552L25.1343 10.2206C25.1776 10.4267 25.264 10.657 25.2659 10.8758C25.2674 11.0402 25.2936 10.9189 25.2349 11.0151C24.9436 10.7044 24.5043 9.09796 24.2359 8.86285C24.2632 9.37362 24.6125 10.1794 24.7695 10.6939C24.829 10.8891 24.9623 11.1468 24.8625 11.2954C24.7303 11.1853 24.6931 10.9335 24.6413 10.7694C24.4902 10.2914 24.2475 9.7148 23.9259 9.39207C24.0606 10.292 24.8862 11.1182 24.7701 12.0385C24.5599 11.8439 24.4288 11.4642 24.2843 11.1817C24.1995 11.0157 24.1544 10.9037 24.0772 10.7459C23.9822 10.552 23.9576 10.4375 23.7975 10.3798C23.8449 10.6288 24.5338 12.5845 24.437 12.7826C24.3118 12.6795 24.244 12.4538 24.1073 12.1546L23.4135 10.5603C23.3216 10.339 23.3718 10.3783 23.2087 10.3491C23.1142 10.5198 23.5165 11.2779 23.5875 11.4514C23.7365 11.8151 23.9047 12.1916 24.0436 12.5514C23.9437 12.5356 23.904 12.4662 23.8454 12.3652C23.7926 12.2742 23.7753 12.2311 23.7109 12.1251C23.6032 11.9479 23.5443 11.8433 23.4365 11.6547C23.3367 11.4803 23.2396 11.3253 23.1412 11.1526L22.9216 10.788C22.8712 10.727 22.8865 10.7466 22.8411 10.7099C22.7913 10.8031 22.7753 10.6775 22.8303 10.8784C23.006 11.5196 23.7915 12.1738 23.9204 13.1776L23.5822 12.7333C23.4903 12.5922 23.4056 12.4634 23.3085 12.3149C23.1644 12.0947 22.9407 11.5734 22.6669 11.5627C22.7269 12.1589 23.6581 12.8671 23.7492 13.9147L22.8719 12.7513C22.7684 12.6024 22.6987 12.479 22.553 12.401C22.7234 13.0154 23.3826 13.7953 23.5496 14.3905C23.3395 14.3355 23.4751 14.4058 23.3377 14.2519L22.9378 13.6952C22.8447 13.5677 22.7548 13.4631 22.6617 13.3345C22.5554 13.1879 22.5186 13.0611 22.3624 13.0062C22.2792 13.1708 22.4857 13.3948 22.5707 13.5317C22.6824 13.7117 22.7936 13.8781 22.8974 14.0548C23.0905 14.3832 23.3291 14.8346 23.3805 15.2977C22.9037 14.9111 22.6535 14.1627 22.1636 13.8124C22.1673 13.9961 22.611 14.9814 22.7099 15.2057C22.4479 15.2224 22.3468 14.6161 22.1379 14.505L22.8521 16.3612C22.6199 16.2504 22.2996 15.6051 22.2174 15.3513L22.1776 15.5678C22.1782 15.5747 22.2164 15.7211 22.2218 15.7408C22.2557 15.8648 22.2878 15.9974 22.3187 16.1258C22.3654 16.3197 22.535 16.7258 22.3998 16.8896C22.2788 16.4587 22.0131 15.9789 21.8238 15.5549C21.6367 15.1361 21.7793 15.2372 21.5252 15.176L21.8509 17.2999C21.6714 17.2257 21.8093 17.3926 21.6898 17.1235C21.6795 17.1003 21.6417 16.9659 21.6276 16.9207C21.5825 16.7769 21.5401 16.659 21.4958 16.5211C21.4181 16.2789 21.3663 15.9142 21.1774 15.7383C21.2379 16.2866 21.398 16.8433 21.432 17.3914C21.4412 17.5404 21.4447 17.3428 21.4258 17.5035C21.4251 17.5097 21.4169 17.5413 21.4162 17.5347C21.4155 17.5282 21.4099 17.5554 21.4049 17.5649C21.2047 17.25 21.1676 16.5424 20.9261 16.2997C20.9483 16.6243 21.0378 17.0161 21.0954 17.348C21.126 17.5247 21.1596 17.7184 21.1918 17.8934C21.2307 18.1054 21.2893 18.2381 21.1921 18.3657C21.0214 18.1419 20.9521 17.6346 20.8356 17.3669C20.6967 17.4801 20.7316 17.4894 20.6817 17.6951C20.6157 17.9666 20.5569 18.5544 20.341 18.6975C20.2627 18.5359 20.3037 18.6671 20.3064 18.5133C20.3146 18.0458 20.5405 17.5182 20.429 17.0628C20.3277 17.1804 20.2917 17.313 20.228 17.4576C20.1665 17.5971 20.13 17.75 19.9815 17.7734C20.0504 17.4506 20.326 16.7506 20.3168 16.4771C20.1402 16.6874 19.9943 17.0304 19.8288 17.1844C19.7834 16.2853 20.475 16.156 20.5926 15.5633C20.4167 15.5796 20.4807 15.5709 20.3551 15.7203L19.7749 16.3315C19.8978 15.5184 20.8865 14.9938 20.8486 14.6683C20.7 14.6943 20.7303 14.7365 20.6121 14.8614C20.5207 14.9579 20.4542 15.0002 20.3676 15.0946C20.2116 15.2642 20.1193 15.4496 19.9238 15.5598C19.9599 15.1506 20.1367 15.0003 20.343 14.8045C20.9127 14.2636 20.9196 13.9628 20.5598 14.3804C20.3318 14.6449 20.045 14.9232 19.7351 15.1047C20.0549 14.3513 20.8646 13.9489 21.044 13.5635C20.6612 13.6913 20.0926 14.2682 19.7517 14.3274C19.915 13.8518 20.7955 13.3179 21.2429 12.9933C21.4549 12.8394 21.368 12.966 21.4029 12.7688L20.2747 13.3298C20.5708 12.766 21.5046 12.4787 21.7888 11.9124C20.9198 12.0374 20.5645 12.9555 19.9927 13.2277C20.0926 12.9384 20.4632 12.5079 20.6589 12.3032C20.912 12.0382 21.1788 11.8158 21.3842 11.5302L20.9533 11.6921C21.0949 11.3985 22.1977 10.9422 22.2194 10.709C21.9975 10.6052 21.1509 11.2482 20.8852 11.2858C20.8937 11.0624 21.0524 11.0594 21.247 10.9218L22.117 10.3026C22.348 10.1375 22.4186 10.1806 22.4664 9.96301C22.2152 9.84912 21.3182 10.5215 20.9496 10.4757L21.2914 10.1675C21.4321 10.0528 21.4825 9.99054 21.6423 9.88184C21.8288 9.75498 22.3379 9.55303 22.452 9.37787C22.2722 9.28556 21.3257 9.859 21.0162 9.93183C21.0679 9.75945 20.9846 9.84612 21.1909 9.69364C21.4688 9.48818 22.4388 8.95939 22.507 8.69998L21.612 9.0749C21.7924 8.58828 22.2777 8.36912 22.6732 8.05972L22.0824 8.26269C22.2541 7.86947 22.543 7.65756 22.4984 7.10719C22.2721 7.19876 21.9331 7.65925 21.7326 7.82065L22.0049 6.02005C21.7366 6.26585 21.4311 7.49016 21.1924 7.85315C21.186 7.84049 21.1815 7.82204 21.1796 7.81267L21.2573 7.15674C21.3 6.93678 21.3602 6.671 21.3893 6.44921C21.2596 6.49452 21.2106 6.60073 21.0963 6.78204C21.0164 6.90882 20.9752 7.03165 20.8414 7.06912C20.8966 6.87808 21.0263 6.62628 21.1155 6.42718C21.1959 6.2477 21.4063 5.97877 21.2994 5.82981C21.0812 6.10701 20.5614 7.25007 20.288 7.43255C20.1835 7.2022 20.6176 6.26124 20.6666 6.00226C20.5235 6.10423 19.7316 7.34193 19.6198 7.54499C19.6441 6.96328 19.9937 6.55937 20.1152 6.1226C19.3269 6.67891 19.071 7.80945 18.7986 8.0207C18.6773 7.79833 19.1359 7.06393 19.0801 6.77677C18.8134 6.96489 18.7519 7.445 18.5622 7.70353C18.4982 7.42099 18.9223 6.6956 19.0154 6.38092C18.7396 6.5421 18.5591 6.84177 18.4075 7.1249C18.2606 7.39925 18.1683 7.74291 18.0049 7.99149C18.0211 7.66159 18.3226 6.94784 18.2689 6.78636C18.0647 6.91446 17.8244 7.71678 17.6693 7.97524C17.596 7.77073 17.7421 7.43373 17.7084 7.21223L17.6815 7.12915C17.6072 7.18836 17.6663 7.12505 17.6009 7.21977C17.2983 7.658 17.2431 8.31445 16.9368 8.73636C16.7801 8.49678 17.1621 7.71034 17.1212 7.36448L16.9508 7.47801C16.744 7.80374 16.354 8.67582 16.1014 8.83035C16.1547 8.50988 16.392 8.05957 16.3314 7.75323C16.152 7.83646 15.8015 8.56083 15.6695 8.80121L15.4348 9.1268C15.4751 8.84974 15.688 8.30215 15.6078 8.11381C15.1771 8.45996 15.0078 9.40239 14.5875 9.81918L14.8467 8.85714C14.6038 8.99358 14.5894 9.37274 14.3518 9.52529L14.5444 8.82383C14.1714 8.98252 13.9279 9.4078 13.5849 9.63443C13.7376 8.92214 14.5454 8.53279 14.7643 8.08834L14.4009 8.24278C14.5724 7.99625 14.8197 7.82695 15.1652 7.65874C15.4293 7.53013 15.905 7.35936 16.0937 7.19708C15.9229 7.10002 14.9473 7.62426 14.7388 7.68209C14.9536 7.21486 16.3388 6.73073 17.0122 6.47432L19.3598 5.44354L18.0409 5.80712C18.9378 5.03114 20.5795 5.10075 21.7695 4.60952C20.9078 4.44153 20.4277 4.76719 19.7118 4.85247C19.9824 4.63778 20.7964 4.49687 20.8986 4.32471L20.7781 4.29572C20.7651 4.2947 20.7497 4.29382 20.7359 4.29375L20.3292 4.36299C20.0089 4.42111 19.0759 4.65622 18.8004 4.6238C18.6688 4.60835 18.7729 4.63697 18.6919 4.58405C18.8772 4.52403 19.0982 4.4143 19.2825 4.32969C19.4658 4.24558 19.6938 4.18446 19.8332 4.03902C18.8255 4.05973 18.5061 4.41621 17.8009 4.69326C17.9343 4.24997 18.7595 3.85353 19.2533 3.71233C18.2244 3.7105 18.3216 3.82323 18.3215 3.51894L18.3198 3.44794C16.2757 3.4071 14.4822 3.84511 12.8077 4.55799C12.0022 4.90092 11.3217 5.24554 10.6329 5.68034C9.23955 6.55981 9.01783 6.88379 7.94357 7.88411C7.17931 8.59582 6.4324 9.83989 5.91738 10.7508C5.33465 11.7813 4.79891 13.1132 4.53708 14.3182C4.41703 14.8706 4.33139 15.1277 4.18148 15.6001L4.18126 15.6004Z" fill="#E6BCA4"/>
<path id="Vector_3" fill-rule="evenodd" clip-rule="evenodd" d="M14.7644 31.0521L21.6409 31.0525C20.8938 31.2767 21.0564 31.3169 20.0452 31.4383C18.8151 31.5859 15.5256 31.6534 14.7644 31.0521ZM20.0218 30.5388L13.479 30.5523C12.9458 30.5523 12.6689 30.4344 12.2645 30.2217C12.0429 30.1052 11.3405 29.848 11.2583 29.6502C11.6658 29.5967 23.7791 29.6011 24.9765 29.6346C24.5571 30.0422 23.473 30.497 22.9468 30.5494C22.1116 30.6326 20.9023 30.5389 20.0218 30.5389V30.5388ZM24.2772 29.2089L10.7661 29.2225C10.3991 29.2225 10.2523 29.0549 10.0244 28.8968L9.55764 28.5676C9.39046 28.4227 9.47222 28.576 9.41454 28.3487L26.8385 28.3484C26.6938 28.6168 26.2822 28.9912 25.8988 29.1403C25.5237 29.2862 24.7191 29.2089 24.2772 29.2089V29.2089ZM8.3558 27.4475L27.9638 27.4318C27.7966 27.599 27.7377 27.865 27.3017 27.9883C26.9409 28.0903 12.1846 28.0145 10.3406 28.0277C9.99983 28.0301 9.36777 28.0691 9.07183 27.988C8.61456 27.8627 8.53909 27.6078 8.3558 27.4475ZM7.74584 26.7401H28.5859C28.535 27.1486 28.1148 27.1512 27.6819 27.1487L10.0214 27.1379C9.57843 27.1379 9.13434 27.1349 8.69149 27.1383C8.20626 27.142 7.84115 27.1779 7.74592 26.7401H7.74584ZM30.0954 13.6166L29.1786 12.2975C28.9318 11.9769 28.9289 12.1037 28.9218 11.8939C29.241 11.9083 29.5224 12.304 29.6873 12.5324C29.9033 12.8317 30.07 13.1403 30.0954 13.6166ZM28.2957 7.83583C28.1413 8.01238 28.0731 8.11347 27.8492 8.22319L27.5558 7.44853L28.2957 7.8359V7.83583ZM22.7295 7.13166C22.7274 7.05773 22.9405 6.80542 23.1069 6.69906C23.1969 6.87283 23.2434 6.9562 23.0947 7.07713C22.7371 7.36787 22.7311 7.13291 22.7295 7.13166ZM4.18131 15.6005C4.33115 15.128 4.41679 14.8709 4.53691 14.3185C4.79874 13.1136 5.33448 11.7817 5.91721 10.7511C6.4323 9.84014 7.17914 8.59606 7.9434 7.88443C9.01766 6.8841 9.2393 6.56013 10.6327 5.68065C11.3216 5.24586 12.0021 4.90117 12.8075 4.55831C14.482 3.84543 16.2755 3.40741 18.3196 3.44826L18.3213 3.51926C18.3214 3.82355 18.2242 3.71082 19.2531 3.71265C18.7594 3.85385 17.9341 4.25029 17.8008 4.69358C18.506 4.41645 18.8253 4.06005 19.833 4.03933C19.6936 4.18485 19.4656 4.24597 19.2824 4.33C19.098 4.41462 18.8771 4.52434 18.6917 4.58437C18.7727 4.63729 18.6686 4.60867 18.8002 4.62411C19.0757 4.65647 20.0088 4.42135 20.329 4.36331L20.7357 4.29406C20.7495 4.29414 20.7649 4.29501 20.7779 4.29604L20.8984 4.32503C20.7963 4.49711 19.9822 4.63802 19.7116 4.85278C20.4275 4.76751 20.9077 4.44185 21.7694 4.60984C20.5793 5.10107 18.9375 5.03139 18.0407 5.80743L19.3597 5.44386L17.0121 6.47463C16.3386 6.73105 14.9534 7.21525 14.7387 7.6824C14.9471 7.62465 15.9227 7.10033 16.0936 7.19739C15.9048 7.35975 15.4292 7.53044 15.165 7.65905C14.8195 7.82726 14.5722 7.99657 14.4007 8.2431L14.7642 8.08865C14.5452 8.53311 13.7374 8.92245 13.5847 9.63474C13.9277 9.40805 14.1713 8.98284 14.5442 8.82415L14.3516 9.5256C14.5893 9.37306 14.6036 8.99389 14.8466 8.85745L14.5873 9.8195C15.0077 9.40271 15.1769 8.46028 15.6076 8.11413C15.6878 8.30246 15.4748 8.85006 15.4346 9.12711L15.6693 8.80153C15.8013 8.56115 16.1518 7.8367 16.3312 7.75355C16.3918 8.05989 16.1545 8.5102 16.1012 8.83066C16.3538 8.67621 16.7439 7.80406 16.9507 7.47833L17.1211 7.3648C17.1618 7.71066 16.78 8.4971 16.9366 8.73668C17.2429 8.31476 17.2981 7.65832 17.6007 7.22008C17.6661 7.12537 17.607 7.18861 17.6813 7.12946L17.7083 7.21254C17.7419 7.43404 17.5959 7.77105 17.6692 7.97556C17.8243 7.71703 18.0645 6.91477 18.2687 6.78668C18.3225 6.94815 18.0209 7.66191 18.0048 7.99181C18.1682 7.74323 18.2605 7.39964 18.4074 7.12522C18.559 6.84209 18.7395 6.54249 19.0153 6.38123C18.922 6.69591 18.498 7.42131 18.562 7.70385C18.7517 7.44531 18.8132 6.96521 19.0799 6.77709C19.1357 7.06425 18.6771 7.79864 18.7984 8.02102C19.0708 7.80977 19.3267 6.6793 20.1151 6.12292C19.9936 6.55962 19.6439 6.96352 19.6196 7.5453C19.7314 7.34225 20.5234 6.10454 20.6664 6.00258C20.6174 6.26163 20.1834 7.20252 20.2878 7.43287C20.5612 7.25039 21.081 6.10725 21.2992 5.83013C21.4061 5.97908 21.1957 6.24801 21.1153 6.42749C21.0262 6.62659 20.8964 6.87832 20.8413 7.06944C20.975 7.03196 21.0162 6.90914 21.0962 6.78236C21.2104 6.60112 21.2593 6.49491 21.3891 6.44953C21.36 6.67139 21.2998 6.9371 21.2571 7.15706L21.1795 7.81299C21.1814 7.82243 21.1858 7.84088 21.1922 7.85347C21.4309 7.49048 21.7364 6.26624 22.0047 6.02037L21.7325 7.82097C21.933 7.65964 22.2719 7.19908 22.4982 7.10751C22.5429 7.65788 22.2539 7.86979 22.0822 8.26301L22.6731 8.06003C22.2775 8.36944 21.7922 8.5886 21.6118 9.07522L22.5068 8.7003C22.4386 8.95971 21.4687 9.48849 21.1907 9.69396C20.9845 9.84643 21.0678 9.75977 21.016 9.93215C21.3256 9.85924 22.2721 9.28588 22.4518 9.37818C22.3378 9.55335 21.8286 9.75523 21.6421 9.88215C21.4823 9.99085 21.4319 10.0531 21.2912 10.1678L20.9494 10.476C21.318 10.5218 22.215 9.84936 22.4663 9.96333C22.4184 10.1809 22.3478 10.1378 22.1168 10.3029L21.2469 10.9221C21.0522 11.0597 20.8935 11.0627 20.885 11.2861C21.1508 11.2485 21.9973 10.6055 22.2192 10.7094C22.1976 10.9425 21.0948 11.3988 20.9531 11.6924L21.384 11.5305C21.1786 11.8162 20.9118 12.0386 20.6587 12.3035C20.4631 12.5082 20.0925 12.9387 19.9925 13.228C20.5643 12.9558 20.9196 12.0378 21.7887 11.9127C21.5045 12.4791 20.5707 12.7663 20.2745 13.3301L21.4028 12.7691C21.3679 12.9663 21.4548 12.8396 21.2427 12.9936C20.7953 13.3182 19.9148 13.8522 19.7515 14.3277C20.0925 14.2685 20.6611 13.6915 21.0438 13.5638C20.8644 13.9493 20.0547 14.3516 19.735 15.1051C20.0449 14.9235 20.3317 14.6452 20.5596 14.3807C20.9195 13.9631 20.9126 14.2639 20.3428 14.8048C20.1365 15.0006 19.9598 15.151 19.9236 15.5601C20.1191 15.45 20.2115 15.2645 20.3674 15.0949C20.4541 15.0005 20.5206 14.9582 20.6119 14.8617C20.7302 14.7368 20.6999 14.6946 20.8485 14.6686C20.8863 14.9942 19.8977 15.5187 19.7747 16.3318L20.3549 15.7207C20.4805 15.5713 20.4166 15.58 20.5925 15.5636C20.4749 16.1563 19.7833 16.2856 19.8287 17.1848C19.9942 17.0307 20.1401 16.6877 20.3166 16.4774C20.3257 16.7509 20.0502 17.451 19.9813 17.7737C20.1298 17.7504 20.1663 17.5975 20.2278 17.4579C20.2916 17.3132 20.3275 17.1807 20.4288 17.0631C20.5404 17.5185 20.3145 18.0461 20.3062 18.5136C20.3035 18.6675 20.2626 18.5362 20.3408 18.6978C20.5568 18.5547 20.6155 17.967 20.6815 17.6954C20.7314 17.4897 20.6965 17.4803 20.8354 17.3672C20.9519 17.6349 21.0213 18.1422 21.192 18.366C21.2892 18.2384 21.2305 18.1058 21.1916 17.8937C21.1595 17.7187 21.1259 17.525 21.0952 17.3484C21.0377 17.0165 20.9481 16.6247 20.926 16.3C21.1674 16.5426 21.2046 17.2503 21.4047 17.5652C21.4097 17.5557 21.4153 17.5286 21.416 17.535C21.4168 17.5416 21.4249 17.5101 21.4256 17.5038C21.4446 17.3432 21.4411 17.5407 21.4318 17.3918C21.3977 16.8435 21.2377 16.2868 21.1772 15.7387C21.3661 15.9146 21.4179 16.2793 21.4957 16.5214C21.54 16.6593 21.5823 16.7772 21.6274 16.921C21.6416 16.9663 21.6794 17.1007 21.6896 17.1239C21.8091 17.3929 21.6712 17.226 21.8508 17.3002L21.525 15.1763C21.7792 15.2375 21.6366 15.1364 21.8236 15.5552C22.0129 15.9792 22.2785 16.459 22.3996 16.8899C22.5348 16.7261 22.3651 16.32 22.3186 16.1261C22.2877 15.9977 22.2556 15.8651 22.2216 15.7411C22.2162 15.7214 22.178 15.575 22.1774 15.5681L22.2173 15.3517C22.2993 15.6055 22.6197 16.2508 22.852 16.3615L22.1378 14.5053C22.3467 14.6164 22.4477 15.2228 22.7097 15.206C22.6109 14.9817 22.1671 13.9965 22.1635 13.8127C22.6533 14.1631 22.9035 14.9114 23.3803 15.298C23.3289 14.835 23.0903 14.3835 22.8973 14.0551C22.7934 13.8784 22.6823 13.712 22.5705 13.532C22.4855 13.3951 22.279 13.1712 22.3622 13.0065C22.5183 13.0614 22.5551 13.1881 22.6615 13.3348C22.7547 13.4633 22.8445 13.5679 22.9377 13.6955L23.3376 14.2522C23.4749 14.4062 23.3393 14.3358 23.5494 14.3909C23.3824 13.7956 22.7232 13.0157 22.5528 12.4013C22.6985 12.4793 22.7682 12.6027 22.8717 12.7517L23.7491 13.915C23.6579 12.8675 22.7267 12.1592 22.6667 11.563C22.9405 11.5738 23.1642 12.095 23.3083 12.3153C23.4055 12.4636 23.4902 12.5925 23.582 12.7336L23.9202 13.1779C23.7914 12.1742 23.0059 11.52 22.8301 10.8787C22.7751 10.6778 22.7911 10.8034 22.841 10.7102C22.8864 10.7469 22.871 10.7273 22.9214 10.7883L23.141 11.1529C23.2394 11.3255 23.3365 11.4805 23.4363 11.655C23.5441 11.8436 23.603 11.9482 23.7107 12.1254C23.7752 12.2314 23.7926 12.2745 23.8453 12.3655C23.9038 12.4665 23.9435 12.5359 24.0435 12.5518C23.9045 12.1919 23.7363 11.8155 23.5873 11.4517C23.5163 11.2783 23.114 10.5202 23.2085 10.3494C23.3716 10.3786 23.3214 10.3393 23.4133 10.5606L24.1071 12.155C24.2438 12.4541 24.3117 12.6799 24.4368 12.7829C24.5336 12.5848 23.8448 10.6292 23.7973 10.3801C23.9574 10.4377 23.9821 10.5523 24.077 10.7463C24.1542 10.904 24.1993 11.0161 24.2842 11.182C24.4286 11.4645 24.5597 11.8442 24.77 12.0388C24.8861 11.1185 24.0605 10.2923 23.9258 9.39238C24.2473 9.71511 24.49 10.2918 24.6411 10.7698C24.693 10.9338 24.7301 11.1857 24.8623 11.2957C24.9621 11.1471 24.8288 10.8894 24.7693 10.6942C24.6124 10.1797 24.2631 9.37394 24.2357 8.86316C24.5041 9.09827 24.9434 10.7048 25.2347 11.0154C25.2934 10.9191 25.2671 11.0405 25.2657 10.8761C25.2638 10.6573 25.1775 10.427 25.1341 10.2209L25.022 9.42584C25.1289 9.55108 25.1927 9.73232 25.2799 9.91656C25.3255 10.0128 25.3544 10.0875 25.392 10.176L25.5707 10.4632C25.6035 9.9017 25.4421 9.4945 25.204 9.08956C25.0857 8.88863 24.5938 8.16924 24.7561 7.93362L24.8327 8.02468C25.0483 8.34177 25.1778 8.71193 25.3481 9.05421C25.4702 9.29964 25.6696 9.83677 25.8537 10.0332C25.9661 10.1531 25.8266 10.079 25.9795 10.1094C26.041 9.94254 25.465 8.19054 25.3878 7.83165C25.5876 8.00286 25.7958 8.68331 25.8979 8.92728C26.0131 9.20236 26.1866 9.84409 26.4277 10.0302L25.8739 7.37036C26.3073 7.98259 26.4793 8.40135 26.5997 9.29862C26.9215 8.90759 26.6092 8.31403 26.7077 7.88941L26.9265 8.37683C27.0008 8.4979 26.907 8.35941 26.9755 8.44864C26.9852 8.46123 26.9969 8.47338 27.0063 8.4848L27.0421 7.91583C27.2299 8.08243 27.2495 8.3518 27.4981 8.43539C27.3889 8.02373 26.9568 7.45732 26.7795 7.02904C26.9563 7.14959 27.6378 7.9962 27.7097 8.3144C27.5876 8.6634 27.1561 8.93072 27.0104 9.30477C27.2235 9.2831 27.8164 8.66157 28.105 8.49915C28.0233 8.6981 27.8251 8.87919 27.6759 9.05465C27.5097 9.25023 27.3472 9.34986 27.2674 9.57875C27.5031 9.55408 27.7808 9.23384 28.0402 9.12426C27.9229 9.41734 27.2984 9.79417 27.1388 10.113C27.4617 10.0033 28.0212 9.56162 28.3051 9.54508C28.2905 9.93149 27.2256 10.1714 27.1192 10.528L28.0456 10.2392C27.6863 10.6154 27.0448 10.8213 26.8271 11.293L27.9968 10.6955C27.8651 10.9672 27.175 11.2902 26.9597 11.5459C27.2458 11.5842 27.8827 11.2019 28.2228 11.1248L28.1665 11.1862C27.7871 11.5545 27.3131 11.7151 27.0515 12.1854C27.2892 12.093 27.8175 11.7206 28.0309 11.733L26.9828 12.6154C26.8547 12.7215 26.6816 12.7905 26.6936 12.9727C26.9358 12.8905 27.2526 12.6531 27.5102 12.5248C27.3852 12.7729 27.2147 12.8947 27.0205 13.0787C26.8322 13.2571 26.7192 13.468 26.5865 13.6713C26.8771 13.6423 27.6524 12.8717 28.0629 12.7596C27.8406 13.2559 27.0441 13.433 26.8928 14.157C27.2632 13.9632 27.6667 13.4801 28.0438 13.3247C27.891 13.6578 27.0402 14.1825 27.0046 14.4701C27.2873 14.416 27.8492 13.8001 27.9419 13.9116C27.9915 14.0378 27.0909 14.821 26.9869 15.0887C27.2977 14.9906 27.8326 14.462 28.0926 14.241C27.8152 14.8169 27.1592 15.0849 27.0608 15.9131C27.3435 15.6988 27.6086 15.2823 27.8632 14.9857C28.009 14.8159 28.0023 14.6928 28.176 14.7331L28.1739 14.7933C28.0779 15.1442 27.1505 15.8831 27.586 15.9342C27.6449 15.9198 27.6781 15.8347 27.7263 15.7578C27.8285 15.5949 27.803 15.5904 27.9564 15.4934C27.866 15.8574 27.3787 16.3316 27.3259 16.6469C27.5257 16.5706 27.565 16.4181 27.7839 16.2966L27.4289 16.9805C27.7719 16.8748 27.9868 16.1627 28.3085 16.1482C28.23 16.4242 27.892 16.6093 27.7641 16.9519C28.1613 16.8098 28.1333 16.5548 28.492 16.4434C28.3797 16.7959 27.9221 17.233 27.7516 17.6069C28.0418 17.5869 28.1029 17.2372 28.4235 17.1022C28.3632 17.4281 28.1168 17.7312 27.995 18.0626C28.3018 17.9171 28.3239 17.5841 28.5957 17.4649L28.1755 18.4443L28.3676 18.3105C28.508 18.1728 28.3407 18.2643 28.5456 18.1455L28.2812 19.2143C28.4384 19.1191 28.4889 18.9493 28.5999 18.8141L28.7268 19.4216C28.847 19.2634 28.8393 18.8969 28.8817 18.6637C28.9169 18.7153 29.0093 18.818 29.0643 18.8972C29.1596 19.0346 29.2027 19.1173 29.3359 19.1801L29.0377 18.3384C29.288 18.3346 29.2479 18.5698 29.5042 18.6911C29.393 18.3377 29.0851 18.1642 28.9578 17.8238C29.2156 17.8705 29.2549 18.1532 29.5216 18.1861C29.4747 17.9896 29.1244 17.6595 28.9862 17.39C29.2185 17.5024 29.2782 17.6152 29.48 17.6876C29.3705 17.4011 28.9483 17.0478 28.8964 16.7665C28.8953 16.7611 28.8967 16.7425 28.8963 16.7382C28.8959 16.7339 28.8957 16.719 28.8986 16.71C29.0925 16.6742 29.2613 17.258 29.5395 17.4091L29.2086 16.7357C29.3799 16.8005 29.4103 16.8637 29.5887 16.9502L29.3861 16.0738C29.5591 16.1847 29.5246 16.2687 29.6602 16.2532C29.6931 16.1203 29.4861 15.9258 29.3705 15.7749C29.2598 15.6302 29.0556 15.4063 29.0111 15.2479C29.2598 15.4227 29.6068 15.8515 29.8594 15.9178C29.731 15.5844 29.2643 15.2807 29.0771 14.9272L29.4753 15.1635C29.3791 14.9909 29.2872 14.844 29.1793 14.6887C29.0542 14.5087 28.9171 14.375 28.8364 14.1487C29.0693 14.1843 29.1465 14.3776 29.3027 14.5648C29.4345 14.7227 29.566 14.9599 29.755 15.0137C29.6668 14.6412 29.135 14.1218 29.0075 13.7187C29.1826 13.7797 29.7036 14.2429 29.8201 14.3654C29.9837 14.1174 29.7463 14.2494 30.0527 14.1855L29.158 12.8425C29.0288 12.6061 29.081 12.7573 29.1307 12.6811C29.1966 12.6673 29.5918 13.2149 29.6837 13.3335C29.8038 13.4886 29.8272 13.5336 29.9564 13.7C30.052 13.8232 30.1713 14.0066 30.3039 14.0811C30.1473 13.6743 30.0609 13.891 30.1511 13.4013C30.2014 13.1278 30.1347 12.9134 30.0327 12.6671C29.8561 12.2407 29.6288 12.0762 29.4055 11.7471L29.3719 11.592C29.553 11.619 30.0325 12.3229 30.1625 12.4832C30.1845 12.5102 30.2887 12.6385 30.3056 12.6563C30.4791 12.8385 30.2956 12.7285 30.5116 12.8042C30.2792 12.2095 29.6938 11.6605 29.4896 11.0645C29.72 11.1202 30.0378 11.6811 30.1779 11.8807C30.2841 12.0321 30.2791 12.0733 30.4575 12.1692C30.3706 11.9244 30.1363 11.6208 30.1344 11.4118C30.39 11.5246 30.5124 11.781 30.7426 11.7483C30.6781 11.5965 30.4901 11.4515 30.3661 11.3209C30.1833 11.1281 30.1287 11.0677 29.9727 10.8637C29.7565 10.5811 29.4761 10.1401 29.4052 9.71058C29.5792 10.0083 30.1158 10.8353 30.3261 11.0083C30.4225 10.8579 30.2894 10.7531 30.1761 10.5559C30.1021 10.4273 29.9567 10.1709 29.9222 10.0281C30.1224 10.0636 30.0883 10.1599 30.1959 10.3755C30.2726 10.5291 30.3377 10.6436 30.4161 10.7918C30.5621 11.0677 30.7148 11.3301 30.8579 11.6268C31.462 12.8797 31.8598 14.2562 32.0438 15.6582C32.1603 16.5453 32.328 17.2096 31.7773 17.7892C31.6817 17.7435 31.7572 17.7888 31.6765 17.7261C31.651 17.7062 31.614 17.6727 31.5906 17.6502C31.1733 17.2458 30.517 17.0056 30.251 17.758C30.5766 17.61 30.9736 17.5168 31.1495 17.9033C30.3417 17.847 30.4756 17.8509 30.2319 18.4717C30.0637 18.9002 29.8042 19.0136 29.6944 19.4385C29.9056 19.3697 30.0572 19.2925 30.2612 19.194C30.3586 19.1469 31.0892 18.8014 30.6787 19.1748C30.5681 19.2754 30.5798 19.2375 30.4854 19.3649C30.3773 19.5109 30.3146 19.6802 30.3029 19.9107L30.9767 19.3277C30.9333 19.5544 30.8498 19.7215 30.792 19.9365C30.7289 20.1711 30.7361 20.4978 30.873 20.6496C31.0439 20.4084 31.0915 20.0571 31.2814 19.8817C31.4014 20.0316 31.406 20.4466 31.4259 20.6897C31.6343 20.4806 31.6667 20.1132 31.7657 19.8453C31.8703 19.5626 31.784 19.6826 31.9369 19.6403C32.1199 20.0942 31.0259 23.7546 30.3793 24.0445C29.976 24.2253 29.1918 24.4582 28.6967 24.326C28.6191 23.7849 28.7046 23.3031 28.5725 22.6875C28.4537 22.1343 28.2772 21.8205 28.1123 21.3568L29.0409 21.4192C28.9179 21.2413 28.6778 21.1821 28.4968 21.0402C28.6614 20.9767 28.8877 20.9705 29.018 20.8543C28.5611 20.5692 28.5227 20.7205 28.0329 20.872C28.0994 20.6476 28.2404 20.514 28.24 20.3121C27.8425 20.29 27.9523 20.4845 27.7765 20.8053C27.3967 20.7993 27.1653 20.5791 26.9395 20.9216L27.4794 21.0547C27.1748 21.1892 26.7069 21.3654 27.0431 21.7931C27.1875 21.5659 26.9999 21.5238 27.3777 21.4939L27.2991 22.4961C27.4836 22.4118 27.5639 21.9416 27.6421 21.7935C27.7028 21.8962 27.7672 22.0207 27.8347 22.1492C27.8728 22.2217 27.8859 22.2573 27.9216 22.3264L28.0796 22.4499C28.1404 22.0602 28.0708 22.7575 28.0931 22.3626L28.0793 21.896C28.0819 21.8826 28.0896 21.8636 28.0922 21.8529C28.0947 21.8424 28.0999 21.8238 28.1069 21.8107C28.4089 22.2391 28.6062 23.688 28.4303 24.1228C28.3051 24.4321 27.7321 24.363 27.3799 24.4074C26.9261 24.4645 26.6276 24.5994 26.1473 24.4247C25.6562 24.246 24.7711 23.7667 24.3661 23.4911C23.9366 23.1989 23.6143 22.8286 23.3137 22.4688C23.159 22.2837 23.0009 22.2769 23.1058 22.1011C23.1634 22.0409 23.0776 21.9815 23.4657 22.1567C23.6468 22.2386 23.7134 22.2792 23.9088 22.302C23.7805 21.9853 23.446 21.7482 23.3372 21.4727L24.3946 21.4671C24.0556 20.8773 23.6466 21.2988 23.2782 21.028C23.3475 20.8562 23.5269 20.8508 23.7377 20.7553C23.9145 20.6752 24.0771 20.6046 24.2214 20.5143L23.1542 20.512C23.1961 20.3335 23.2975 20.2094 23.213 20.048C22.9919 20.185 22.6947 20.517 22.5227 20.7C22.3671 20.5368 22.2382 20.0672 22.1638 19.8412L22.029 20.1108C21.9917 20.2269 21.9632 20.3445 21.9393 20.4722C21.6068 20.4001 21.3448 20.1505 21.0943 20.4429C21.2141 20.5938 21.4062 20.6607 21.5536 20.7875C21.5607 20.7936 21.5744 20.8065 21.5842 20.8166C21.2464 20.8551 20.8209 20.8849 20.7925 21.2141L21.2256 21.2579C20.9819 21.5071 20.6933 21.5116 20.6648 21.9811C20.9072 21.9007 21.3658 21.6362 21.5372 21.7465C21.5219 21.9084 21.5143 21.8165 21.3838 21.9617C21.3136 22.04 21.2641 22.103 21.2186 22.2254C21.1272 22.4713 21.1483 22.7339 21.1908 22.9984C21.3157 22.8676 21.4158 22.7128 21.536 22.5429L21.8837 22.0726C21.8756 22.3398 21.7545 23.1338 21.8833 23.2912C22.0772 23.1179 22.1148 22.5899 22.2556 22.3479C22.2627 22.3597 22.2721 22.3647 22.2749 22.3845C22.2776 22.4041 22.2898 22.4126 22.2934 22.421L22.4956 23.0215C22.6002 23.2844 22.697 23.3784 22.9448 23.4747C22.9314 23.2774 22.9107 23.0914 22.8883 22.8958L22.8558 22.4722C22.8714 22.356 22.855 22.4108 22.894 22.3387C23.0679 22.4083 23.0705 22.4905 23.2072 22.6836C23.9273 23.7019 24.844 24.2238 26.0149 24.718C25.6848 24.8991 25.0771 25.0864 24.6687 25.1699C23.6348 25.4679 22.6504 25.3952 21.5621 25.3988C21.0037 25.4007 20.1308 25.8328 18.8127 25.9824C16.4488 26.2506 11.6349 26.1313 8.9042 26.1207C8.55322 26.1193 7.56863 26.1553 7.29677 26.0911C6.46187 25.8939 4.1606 20.9272 4.62541 20.5246C5.09512 20.3152 5.72411 20.703 6.19404 20.7731C6.30523 20.4315 6.71734 19.956 6.98195 19.798C7.71649 19.3592 8.97762 19.778 9.23198 20.8048C9.39104 21.4469 9.13178 21.7663 8.91167 22.1899C10.0653 21.6721 9.93871 22.1397 10.2872 22.7293C11.0216 22.8045 11.4409 22.736 11.8149 23.2775C12.1145 23.7112 12.0093 24.5591 11.8476 25.0885C11.6575 25.1367 10.7962 25.318 10.6505 25.3152C10.1963 25.3063 10.6953 24.955 9.56547 24.9334C9.35554 24.6185 9.33556 24.0221 8.55922 23.4466C8.00306 23.0344 7.3718 22.8367 6.69025 23.2373C7.72571 23.2136 8.65804 23.3313 9.10777 24.3337C9.23594 24.6194 9.28147 25.0696 9.38292 25.2847C10.271 25.1183 9.97992 25.1645 10.5 25.6746C11.3608 25.3007 11.2903 25.1898 12.3799 25.4367C12.2158 25.2128 11.9145 25.1834 12.0232 24.6794C12.0983 24.3315 12.3269 24.0959 12.546 23.9773C13.6062 23.4033 13.8953 24.5639 14.0036 24.7141C13.9601 23.9407 14.1672 23.3319 15.0424 23.2388C15.7392 23.1648 16.3556 23.5424 16.3399 24.4674C16.5666 24.2285 16.5506 23.7296 17.1558 23.9467C17.4439 24.05 17.8315 24.482 18.0434 24.474C18.3562 24.4622 18.7824 24.0865 19.2259 24.4314C19.5731 24.7013 19.5649 24.9452 19.8087 25.2748C19.9955 24.9782 20.4148 23.2486 22.0654 24.3027C22.2847 24.4428 22.3118 24.5544 22.5426 24.4597C23.1494 24.2106 23.3368 24.5181 23.6416 24.7545L23.6008 24.5421C23.4343 24.4222 23.3854 24.2769 23.1753 24.2045C22.8606 24.0961 22.7307 24.2307 22.4654 24.2271C22.2712 24.2244 21.7509 23.883 21.3718 23.8039C20.3904 23.686 20.2555 24.2102 19.8087 24.4905C18.7264 24.0896 19.168 24.0884 17.8937 24.2799C17.3125 23.6212 17.6115 23.6681 16.4452 23.794C16.2569 23.3686 15.8181 23.0081 15.1267 23.038C14.2507 23.0758 14.0409 23.6271 13.7979 23.8521C13.0198 23.5042 12.9925 23.5996 12.2373 23.8663C12.0242 22.8198 11.5399 22.5497 10.3739 22.5674C10.1438 21.8093 10.1694 21.9602 9.48927 21.6893C9.15783 20.8625 9.91038 20.2982 8.21973 19.5028C6.79441 19.2505 6.72941 19.8007 6.01171 20.5775C5.43388 20.0829 5.17695 20.2821 4.45317 20.3309L4.23724 19.1999C3.3145 19.9237 5.1009 23.6729 5.47048 24.4095C5.8506 25.1672 6.40851 25.9329 6.86995 26.5197C7.13815 26.8608 7.41374 27.1579 7.68736 27.4581C9.00961 28.9092 11.1103 30.2845 12.922 31.001C16.6247 32.4653 20.9755 32.3321 24.5111 30.5206C26.3162 29.5957 26.3846 29.4229 27.6659 28.407C28.4348 27.7974 29.5564 26.4268 30.1232 25.5982C30.5559 24.9655 31.0323 24.1292 31.3747 23.3391C36.3817 11.7847 25.3922 -0.580126 13.0114 3.96431C12.1656 4.27474 11.3342 4.6826 10.6465 5.10927C9.84165 5.60863 9.32758 5.98713 8.64069 6.61349C6.23862 8.80387 4.01047 12.3795 3.88281 15.9987C4.10233 15.8194 4.06537 15.7143 4.18124 15.6008L4.18131 15.6005Z" fill="#694412"/>
<path id="Vector_4" fill-rule="evenodd" clip-rule="evenodd" d="M24.668 25.1698C24.7556 24.6118 24.0072 24.2162 23.6002 24.5419L23.6411 24.7544C23.3363 24.5179 23.1488 24.2104 22.5421 24.4595C22.3113 24.5542 22.2842 24.4426 22.0648 24.3025C20.4143 23.2484 19.9949 24.9781 19.8082 25.2747C19.5644 24.945 19.5726 24.7012 19.2254 24.4312C18.7819 24.0863 18.3556 24.462 18.0429 24.4738C17.8309 24.4818 17.4433 24.0498 17.1553 23.9465C16.5501 23.7294 16.5659 24.2283 16.3393 24.4672C16.3551 23.5422 15.7387 23.1646 15.0418 23.2386C14.1667 23.3317 13.9596 23.9405 14.0031 24.714C13.8947 24.5637 13.6057 23.4031 12.5455 23.9771C12.3263 24.0957 12.0977 24.3314 12.0227 24.6792C11.914 25.1832 12.2152 25.2126 12.3793 25.4365C11.2898 25.1895 11.3602 25.3006 10.4994 25.6745C9.97943 25.1643 10.2704 25.1182 9.38235 25.2845C9.2809 25.0693 9.23537 24.6192 9.1072 24.3335C8.65755 23.3311 7.72522 23.2134 6.68969 23.2371C7.37124 22.8365 8.0025 23.0342 8.55866 23.4465C9.335 24.0219 9.35505 24.6183 9.56491 24.9333C10.6947 24.9548 10.1957 25.3061 10.6499 25.315C10.7957 25.3178 11.657 25.1365 11.8471 25.0884C12.0088 24.559 12.114 23.7111 11.8144 23.2773C11.4402 22.7358 11.021 22.8043 10.2866 22.7291C9.93815 22.1395 10.0647 21.6719 8.91111 22.1897C9.13121 21.7661 9.39048 21.4467 9.23142 20.8047C8.97698 19.7778 7.71593 19.359 6.98138 19.7978C6.7167 19.9559 6.3046 20.4313 6.19348 20.7729C5.72355 20.7028 5.09448 20.315 4.62484 20.5245C4.16004 20.9269 6.46131 25.8936 7.29621 26.0909C7.56807 26.1551 8.55265 26.1191 8.90364 26.1205C11.6344 26.1311 16.4482 26.2504 18.8121 25.9822C20.1303 25.8326 21.0031 25.4005 21.5615 25.3987C22.6498 25.3951 23.6342 25.4677 24.6681 25.1698L24.668 25.1698Z" fill="#EEECEB"/>
<path id="Vector_5" fill-rule="evenodd" clip-rule="evenodd" d="M8.2198 19.5023C9.91053 20.2977 9.15791 20.8619 9.48935 21.6888C10.1695 21.9596 10.1439 21.8088 10.374 22.5669C11.5401 22.5492 12.0243 22.8193 12.2373 23.8658C12.9926 23.5991 13.0198 23.5037 13.798 23.8516C14.041 23.6266 14.2507 23.0752 15.1268 23.0375C15.8182 23.0076 16.257 23.3681 16.4453 23.7935C17.6116 23.6676 17.3125 23.6206 17.8938 24.2794C19.168 24.0879 18.7265 24.0891 19.8087 24.49C20.2556 24.2097 20.3904 23.6856 21.3719 23.8034C21.369 23.206 21.1027 22.865 20.491 22.9247C20.3959 22.9295 19.7519 22.3243 19.009 22.3158C18.2348 22.3069 17.8732 22.7193 17.4799 22.8783C17.0797 22.2231 17.0945 22.166 16.1779 22.2647C15.6813 20.6346 14.1935 21.2705 13.8113 21.303C13.7597 19.8407 12.8911 19.0389 11.6266 19.2836C11.1643 19.3731 10.9444 19.5808 10.5865 19.6765C10.4253 19.2394 10.156 19.0232 9.57579 18.9507C9.62411 18.9032 9.60639 18.8937 9.72944 18.8404C9.73354 18.7175 9.8579 18.7694 9.55039 18.72C9.32202 18.6834 8.97081 18.7628 8.76513 18.8661C8.52965 18.9843 8.29578 19.2151 8.21973 19.5024L8.2198 19.5023Z" fill="#EEECEB"/>
<path id="Vector_6" fill-rule="evenodd" clip-rule="evenodd" d="M4.28444 15.9869C3.84679 16.6239 3.44932 17.1564 3.21172 18.1006C3.06013 18.703 2.84661 20.4784 3.16553 20.9779L4.16366 18.6372C4.49327 17.7581 5.12863 17.0986 5.78544 16.686C6.24615 16.3966 7.9939 15.7237 8.65407 16.0103C8.97666 16.1503 9.17671 16.4209 9.89127 16.5796C10.4034 16.6932 11.1625 16.5968 11.5267 16.7543C12.0289 16.9713 12.1404 17.433 12.582 17.5177C13.1102 17.6188 13.5929 17.1514 13.5864 16.7007C13.0168 16.3124 11.2623 16.3552 11.6548 15.0013C11.9586 13.9536 12.4512 13.1117 13.1208 12.6378C15.3221 11.08 18.943 12.1806 19.5719 11.7542C18.3824 11.3906 13.6171 11.3297 12.1349 11.6526C11.2982 11.8349 11.5382 12.5684 10.2133 13.7207C9.62776 14.23 9.78535 14.2476 8.85705 13.999C8.34759 13.8626 7.71304 13.7007 7.18023 13.6165L7.94244 15.0429C7.31835 15.2521 5.87445 15.4168 5.0487 15.5794C4.54942 15.6777 4.52856 15.7251 4.28444 15.9869V15.9869Z" fill="#67420E"/>
<path id="Vector_7" fill-rule="evenodd" clip-rule="evenodd" d="M24.2767 29.2092C24.7186 29.2092 25.5231 29.2864 25.8983 29.1406C26.2817 28.9915 26.6934 28.617 26.8381 28.3486L9.41406 28.349C9.47174 28.5762 9.38998 28.423 9.55717 28.5679L10.0239 28.897C10.2518 29.0551 10.3986 29.2228 10.7657 29.2228L24.2767 29.2092V29.2092Z" fill="#A9D2AB"/>
<path id="Vector_8" fill-rule="evenodd" clip-rule="evenodd" d="M20.0213 30.5386C20.9017 30.5386 22.1112 30.6323 22.9464 30.5492C23.4726 30.4968 24.5567 30.0419 24.976 29.6344C23.7786 29.6008 11.6654 29.5964 11.2578 29.6499C11.34 29.8478 12.0425 30.1049 12.2641 30.2215C12.6685 30.4341 12.9453 30.5521 13.4786 30.5521L20.0213 30.5386V30.5386Z" fill="#A9D2AB"/>
<path id="Vector_9" fill-rule="evenodd" clip-rule="evenodd" d="M8.35547 27.4474C8.53876 27.6077 8.61422 27.8626 9.07149 27.9879C9.36736 28.069 9.99943 28.03 10.3402 28.0275C12.1842 28.0144 26.9405 28.0902 27.3013 27.9882C27.7374 27.8648 27.7963 27.5988 27.9635 27.4316L8.35547 27.4474Z" fill="#A9D2AB"/>
<path id="Vector_10" fill-rule="evenodd" clip-rule="evenodd" d="M7.74519 26.7402C7.84042 27.178 8.20553 27.1421 8.69076 27.1384C9.13368 27.1351 9.5777 27.138 10.0207 27.138L27.6811 27.1488C28.114 27.1513 28.5343 27.1488 28.5851 26.7402H7.74512H7.74519Z" fill="#A9D2AB"/>
<path id="Vector_11" fill-rule="evenodd" clip-rule="evenodd" d="M9.72884 18.841C9.60572 18.8942 9.62351 18.9038 9.5752 18.9512C10.1553 19.0237 10.4247 19.2399 10.5859 19.677C10.9438 19.5814 11.1638 19.3736 11.626 19.2842C12.8906 19.0395 13.7591 19.8412 13.8107 21.3036C14.1929 21.2711 15.6806 20.6351 16.1773 22.2653C17.0938 22.1665 17.079 22.2236 17.4793 22.8789C17.8726 22.7198 18.2342 22.3074 19.0084 22.3163C19.7513 22.3249 20.3953 22.93 20.4904 22.9253C19.8726 21.6374 18.4794 22.1378 17.5444 22.6536C17.1557 22.132 17.1417 21.9026 16.301 22.0779C15.7736 20.9918 15.4193 20.8223 13.9503 21.034C13.9472 20.0454 13.6039 19.5388 12.9419 19.2225C12.0071 18.7758 11.5008 19.0868 10.7044 19.3791C10.5077 18.9706 10.1873 18.7612 9.72876 18.841H9.72884Z" fill="#684310"/>
<path id="Vector_12" fill-rule="evenodd" clip-rule="evenodd" d="M14.7637 31.0518C15.5248 31.653 18.8143 31.5855 20.0445 31.4379C21.0556 31.3165 20.8931 31.2763 21.6401 31.0521L14.7637 31.0518Z" fill="#A9D2AB"/>
<path id="Vector_13" fill-rule="evenodd" clip-rule="evenodd" d="M30.0955 13.6163C30.0701 13.14 29.9035 12.8314 29.6875 12.5321C29.5225 12.3037 29.2411 11.908 28.9219 11.8936C28.929 12.1034 28.932 11.9766 29.1787 12.2972L30.0955 13.6163Z" fill="#E6BCA4"/>
<path id="Vector_14" fill-rule="evenodd" clip-rule="evenodd" d="M27.849 8.22297C28.073 8.11332 28.1411 8.01223 28.2956 7.83561L27.5557 7.44824L27.849 8.2229V8.22297Z" fill="#E6BCA4"/>
<path id="Vector_15" fill-rule="evenodd" clip-rule="evenodd" d="M22.7295 7.13182C22.7311 7.13306 22.7371 7.36803 23.0947 7.07729C23.2434 6.95636 23.1969 6.87299 23.1069 6.69922C22.9405 6.80558 22.7275 7.05789 22.7295 7.13182Z" fill="#E4BBA3"/>
</g>
</g>
</svg>
