<svg width="38" height="52" viewBox="0 0 38 52" fill="none" xmlns="http://www.w3.org/2000/svg">
<path d="M18.9297 1C9.04266 1 1 9.04266 1 18.9297C1 22.2696 1.92507 25.5293 3.67461 28.3571L17.9084 51.2931C18.4986 52.2462 19.8901 52.2317 20.4619 51.2727L34.3323 28.1149C35.9839 25.3469 36.8594 22.1704 36.8594 18.9297C36.8594 9.04266 28.8167 1 18.9297 1ZM18.9297 27.9145C13.9149 27.9145 9.94492 23.8326 9.94492 18.9297C9.94492 13.9862 13.9862 9.94492 18.9297 9.94492C23.8732 9.94492 27.9145 13.9862 27.9145 18.9297C27.9145 23.7893 23.9979 27.9145 18.9297 27.9145Z" fill="#67420E"/>
<path fill-rule="evenodd" clip-rule="evenodd" d="M5.18126 16.6004C5.35021 16.5717 5.30409 16.843 5.28484 16.9868C5.52888 16.7249 5.54982 16.6775 6.0491 16.5793C6.87485 16.4167 8.31875 16.252 8.94284 16.0428L8.18063 14.6164C8.71344 14.7006 9.34799 14.8625 9.85745 14.9989C10.7858 15.2475 10.6282 15.2299 11.2137 14.7206C12.5386 13.5683 12.2986 12.8348 13.1353 12.6525C14.6175 12.3296 19.3828 12.3905 20.5723 12.7541C19.9434 13.1805 16.3225 12.0799 14.1212 13.6377C13.4516 14.1116 12.959 14.9536 12.6552 16.0012C12.2627 17.3551 14.0171 17.3122 14.5868 17.7006C14.5934 18.1513 14.1107 18.6187 13.5824 18.5176C13.1408 18.433 13.0293 17.9712 12.5271 17.7542C12.1628 17.5967 11.4038 17.6931 10.8917 17.5795C10.1772 17.4208 9.97706 17.1502 9.65447 17.0102C8.9943 16.7236 7.24662 17.3965 6.78584 17.6859C6.12903 18.0984 5.49375 18.758 5.16406 19.6371C5.17153 19.6481 5.1798 19.6532 5.18207 19.6727C5.18807 19.7259 5.26734 19.7458 5.23733 20.1996L5.45327 21.3306C6.17712 21.2818 6.43398 21.0826 7.0118 21.5772C7.72951 20.8004 7.79444 20.2502 9.21982 20.5025C9.29588 20.2152 9.52974 19.9845 9.76522 19.8662C9.97091 19.763 10.3222 19.6835 10.5505 19.7201C10.858 19.7695 10.7336 19.7177 10.7295 19.8406C11.188 19.7608 11.5085 19.9703 11.7052 20.3787C12.5015 20.0864 13.0078 19.7753 13.9427 20.2221C14.6046 20.5384 14.9479 21.045 14.9511 22.0336C16.42 21.8218 16.7743 21.9913 17.3018 23.0775C18.1425 22.9022 18.1564 23.1315 18.5452 23.6531C19.4801 23.1375 20.8733 22.6369 21.4912 23.9249C22.1029 23.8651 22.3691 24.2061 22.3721 24.8035C22.7512 24.8827 23.2714 25.2241 23.4656 25.2267C23.7309 25.2303 23.8608 25.0957 24.1756 25.2041C24.3857 25.2765 24.4346 25.4218 24.601 25.5417C25.008 25.2159 25.7564 25.6116 25.6688 26.1696C26.0773 26.0861 26.685 25.8987 27.0151 25.7177C25.8442 25.2235 24.9275 24.7016 24.2074 23.6833C24.0707 23.4901 24.0681 23.4079 23.8941 23.3384C23.8552 23.4105 23.8715 23.3556 23.8559 23.4718L23.8885 23.8955C23.9108 24.0912 23.9316 24.2771 23.945 24.4744C23.6972 24.3782 23.6003 24.2841 23.4957 24.0212L23.2935 23.4207C23.29 23.4123 23.2777 23.4038 23.275 23.3842C23.2723 23.3645 23.263 23.3595 23.2558 23.3476C23.115 23.5896 23.0773 24.1176 22.8834 24.2909C22.7547 24.1335 22.8757 23.3396 22.8839 23.0723L22.5362 23.5426C22.4159 23.7124 22.3159 23.8673 22.191 23.9981C22.1484 23.7336 22.1273 23.471 22.2188 23.2251C22.2643 23.1027 22.3136 23.0397 22.384 22.9614C22.5146 22.8161 22.5222 22.9081 22.5373 22.7462C22.366 22.636 21.9075 22.9005 21.665 22.9808C21.6935 22.5113 21.982 22.5067 22.2257 22.2576L21.7926 22.2138C21.821 21.8845 22.2466 21.8547 22.5844 21.8162C22.5747 21.8061 22.5609 21.7933 22.5538 21.7872C22.4064 21.6603 22.2142 21.5934 22.0944 21.4426C22.345 21.1501 22.607 21.3997 22.9394 21.4719C22.9634 21.3442 22.9918 21.2266 23.0292 21.1105L23.164 20.8409C23.2384 21.0669 23.3673 21.5365 23.5229 21.6997C23.6949 21.5166 23.9921 21.1847 24.2132 21.0477C24.2977 21.2091 24.1962 21.3331 24.1544 21.5117L25.2216 21.5139C25.0773 21.6043 24.9147 21.675 24.7379 21.755C24.5271 21.8504 24.3476 21.8558 24.2784 22.0277C24.6468 22.2985 25.0557 21.8769 25.3948 22.4668L24.3374 22.4724C24.4461 22.748 24.7806 22.985 24.909 23.3017C24.7136 23.2789 24.647 23.2383 24.4658 23.1564C24.0777 22.9812 24.1635 23.0406 24.106 23.1008C24.001 23.2765 24.1592 23.2834 24.3139 23.4685C24.6145 23.8283 24.9368 24.1987 25.3663 24.4908C25.7713 24.7663 26.6563 25.2457 27.1474 25.4244C27.6278 25.5991 27.9263 25.4642 28.3801 25.4071C28.7322 25.3627 29.3052 25.4318 29.4305 25.1225C29.6064 24.6877 29.4091 23.2388 29.1071 22.8104C29.1 22.8235 29.0949 22.842 29.0924 22.8526C29.0898 22.8632 29.0821 22.8823 29.0795 22.8957L29.0933 23.3623C29.0709 23.7572 29.1405 23.0599 29.0798 23.4496L28.9218 23.3261C28.8862 23.257 28.873 23.2214 28.8349 23.1489C28.7673 23.0203 28.703 22.8958 28.6423 22.7932C28.5641 22.9413 28.4838 23.4115 28.2993 23.4958L28.3779 22.4936C28 22.5235 28.1876 22.5656 28.0433 22.7928C27.7071 22.3651 28.175 22.1889 28.4796 22.0544L27.9397 21.9213C28.1654 21.5788 28.3968 21.799 28.7767 21.805C28.9524 21.4841 28.8427 21.2897 29.2402 21.3118C29.2406 21.5136 29.0995 21.6472 29.0331 21.8717C29.5229 21.7202 29.5613 21.5688 30.0182 21.854C29.888 21.9702 29.6616 21.9764 29.4969 22.0399C29.678 22.1818 29.918 22.2409 30.0411 22.4189L29.1125 22.3565C29.2774 22.8202 29.4539 23.134 29.5726 23.6872C29.7048 24.3028 29.6193 24.7845 29.6968 25.3257C30.192 25.4579 30.9761 25.2249 31.3795 25.0441C32.0261 24.7543 33.12 21.0939 32.9371 20.6399C32.7841 20.6823 32.8704 20.5623 32.7659 20.845C32.6669 21.1129 32.6344 21.4803 32.4261 21.6894C32.4061 21.4463 32.4016 21.0313 32.2815 20.8814C32.0917 21.0567 32.0442 21.4081 31.8732 21.6493C31.7362 21.4975 31.729 21.1708 31.7921 20.9362C31.85 20.7212 31.9335 20.5541 31.9769 20.3274L31.3031 20.9104C31.3148 20.6798 31.3774 20.5105 31.4856 20.3646C31.58 20.2371 31.5683 20.2751 31.6789 20.1745C32.0893 19.801 31.3588 20.1466 31.2614 20.1937C31.0574 20.2922 30.9058 20.3693 30.6945 20.4382C30.8044 20.0134 31.0638 19.8999 31.232 19.4713C31.4757 18.8505 31.3418 18.8467 32.1497 18.903C31.9737 18.5165 31.5767 18.6097 31.2511 18.7577C31.5171 18.0053 32.1735 18.2455 32.5908 18.6498C32.6142 18.6725 32.6511 18.7059 32.6767 18.7257C32.7574 18.7885 32.6819 18.7432 32.7775 18.7888C33.3282 18.2093 33.1604 17.545 33.044 16.6579C32.86 15.2559 32.4622 13.8794 31.858 12.6265C31.7149 12.3298 31.5623 12.0674 31.4163 11.7915C31.3379 11.6433 31.2728 11.5288 31.1961 11.3752C31.0885 11.1596 31.1226 11.0633 30.9223 11.0278C30.957 11.1707 31.1022 11.427 31.1763 11.5556C31.2896 11.7527 31.4228 11.8576 31.3263 12.008C31.1159 11.8349 30.5793 11.008 30.4054 10.7103C30.4763 11.1398 30.7567 11.5807 30.9728 11.8633C31.1288 12.0673 31.1834 12.1278 31.3663 12.3205C31.4903 12.4512 31.6782 12.5961 31.7427 12.748C31.5126 12.7807 31.3902 12.5243 31.1346 12.4115C31.1364 12.6204 31.3707 12.9241 31.4577 13.1689C31.2792 13.0729 31.2843 13.0317 31.1781 12.8804C31.038 12.6808 30.7202 12.1198 30.4898 12.0642C30.694 12.6602 31.2794 13.2092 31.5117 13.8039C31.2957 13.7281 31.4791 13.8382 31.3058 13.656C31.2888 13.6382 31.1846 13.5099 31.1627 13.4829C31.0327 13.3226 30.553 12.6187 30.3721 12.5917L30.4057 12.7468C30.6289 13.0759 30.8562 13.2404 31.0329 13.6668C31.1348 13.9131 31.2016 14.1275 31.1512 14.401C31.061 14.8907 31.1474 14.6739 31.3041 15.0808C31.1716 15.0063 31.0523 14.8229 30.9566 14.6997C30.8274 14.5333 30.8039 14.4882 30.6838 14.3332C30.5919 14.2145 30.1966 13.667 30.1308 13.6808C30.0812 13.757 30.029 13.6058 30.1581 13.8422L31.0529 15.1852C30.7464 15.2491 30.9839 15.1171 30.8203 15.3651C30.7038 15.2425 30.1829 14.7793 30.0076 14.7184C30.1352 15.1215 30.667 15.6409 30.7551 16.0134C30.5661 15.9596 30.4346 15.7224 30.3029 15.5645C30.1466 15.3773 30.0694 15.184 29.8366 15.1483C29.9172 15.3747 30.0543 15.5084 30.1794 15.6884C30.2873 15.8436 30.3793 15.9906 30.4755 16.1632L30.0773 15.9269C30.2645 16.2804 30.7312 16.584 30.8596 16.9175C30.6069 16.8511 30.26 16.4223 30.0113 16.2476C30.0558 16.406 30.26 16.6299 30.3707 16.7746C30.4862 16.9255 30.6933 17.1199 30.6604 17.2529C30.5249 17.2684 30.5593 17.1845 30.3863 17.0734L30.5888 17.9498C30.4105 17.8634 30.3801 17.8002 30.2087 17.7354L30.5397 18.4088C30.2614 18.2578 30.0927 17.6739 29.8988 17.7097C29.8959 17.7187 29.8961 17.7335 29.8965 17.7379C29.8969 17.7422 29.8955 17.7608 29.8965 17.7662C29.9484 18.0475 30.3706 18.4007 30.4801 18.6872C30.2783 18.6149 30.2187 18.5021 29.9863 18.3897C30.1245 18.6592 30.4749 18.9893 30.5218 19.1858C30.2551 19.1529 30.2157 18.8702 29.9579 18.8235C30.0852 19.1639 30.3932 19.3375 30.5044 19.6908C30.2481 19.5695 30.2882 19.3343 30.0379 19.338L30.3361 20.1798C30.2029 20.1171 30.1598 20.0343 30.0644 19.8969C30.0095 19.8177 29.917 19.715 29.8818 19.6634C29.8394 19.8966 29.8471 20.2631 29.7269 20.4212L29.6001 19.8138C29.4891 19.949 29.4386 20.1188 29.2814 20.214L29.5458 19.1452C29.3409 19.2639 29.5081 19.1725 29.3677 19.3102L29.1757 19.444L29.5958 18.4646C29.324 18.5838 29.3019 18.9167 28.9952 19.0623C29.117 18.7309 29.3634 18.4278 29.4237 18.1019C29.1031 18.237 29.0419 18.5867 28.7518 18.6066C28.9223 18.2327 29.3799 17.7956 29.4922 17.4431C29.1334 17.5545 29.1614 17.8095 28.7643 17.9516C28.8922 17.609 29.2301 17.4238 29.3087 17.1479C28.9869 17.1624 28.772 17.8745 28.4291 17.9802L28.7841 17.2963C28.5652 17.4178 28.5259 17.5703 28.3261 17.6466C28.3789 17.3313 28.8663 16.8571 28.9565 16.4931C28.8032 16.59 28.8286 16.5947 28.7265 16.7574C28.6782 16.8344 28.645 16.9195 28.5862 16.9339C28.1507 16.8828 29.0781 16.1439 29.1741 15.793L29.1762 15.7328C29.0024 15.6925 29.0092 15.8155 28.8634 15.9854C28.6088 16.2821 28.3438 16.6985 28.061 16.9128C28.1592 16.0845 28.8154 15.8166 29.0928 15.2406C28.8329 15.4617 28.298 15.9903 27.9871 16.0883C28.091 15.8207 28.9917 15.0374 28.942 14.9113C28.8493 14.7997 28.2875 15.4157 28.0047 15.4698C28.0404 15.1822 28.8912 14.6575 29.044 14.3244C28.6669 14.4798 28.2634 14.9629 27.893 15.1567C28.0443 14.4327 28.8409 14.2556 29.063 13.7593C28.6526 13.8714 27.8773 14.6419 27.5866 14.6709C27.7193 14.4677 27.8323 14.2568 28.0207 14.0784C28.215 13.8944 28.3854 13.7726 28.5104 13.5244C28.2528 13.6528 27.936 13.8902 27.6938 13.9724C27.6818 13.7902 27.8549 13.7212 27.983 13.6151L29.031 12.7327C28.8177 12.7203 28.2893 13.0926 28.0516 13.1851C28.3133 12.7148 28.7873 12.5543 29.1667 12.1859L29.223 12.1244C28.8829 12.2016 28.246 12.5839 27.9599 12.5456C28.1751 12.2899 28.8652 11.9669 28.997 11.6951L27.8272 12.2927C28.045 11.821 28.6864 11.6151 29.0457 11.2389L28.1194 11.5277C28.2258 11.171 29.2907 10.9311 29.3053 10.5448C29.0214 10.5613 28.4618 11.003 28.139 11.1127C28.2986 10.7939 28.9231 10.417 29.0404 10.1239C28.7809 10.2336 28.5033 10.5538 28.2676 10.5784C28.3473 10.3495 28.5099 10.2499 28.6761 10.0543C28.8252 9.87888 29.0235 9.69778 29.1052 9.49883C28.8166 9.66126 28.2237 10.2828 28.0106 10.3044C28.1562 9.93041 28.5877 9.66309 28.7098 9.31408C28.638 8.99596 27.9565 8.14935 27.7797 8.02872C27.957 8.457 28.3891 9.02341 28.4983 9.43508C28.2496 9.35148 28.23 9.08211 28.0423 8.91552L28.0065 9.48448C27.997 9.47307 27.9853 9.46091 27.9757 9.44832C27.9072 9.3591 28.001 9.49759 27.9266 9.37652L27.7079 8.88909C27.6094 9.31371 27.9217 9.90728 27.5999 10.2983C27.4795 9.40104 27.3074 8.98227 26.874 8.37004L27.4279 11.0298C27.1867 10.8438 27.0133 10.202 26.8981 9.92697C26.796 9.683 26.5878 9.00255 26.3879 8.83134C26.4652 9.19023 27.0411 10.9422 26.9797 11.1091C26.8267 11.0787 26.9663 11.1528 26.8538 11.0328C26.6698 10.8365 26.4703 10.2994 26.3483 10.0539C26.1779 9.71154 26.0485 9.34138 25.8329 9.02436L25.7563 8.9333C25.5939 9.16885 26.0859 9.88825 26.2041 10.0892C26.4423 10.4942 26.6037 10.9014 26.5708 11.4629L26.3922 11.1757C26.3545 11.0872 26.3257 11.0125 26.2801 10.9162C26.1929 10.732 26.1291 10.5508 26.0222 10.4255L26.1343 11.2206C26.1776 11.4267 26.264 11.657 26.2659 11.8758C26.2674 12.0402 26.2936 11.9189 26.2349 12.0151C25.9436 11.7044 25.5043 10.098 25.2359 9.86285C25.2632 10.3736 25.6125 11.1794 25.7695 11.6939C25.829 11.8891 25.9623 12.1468 25.8625 12.2954C25.7303 12.1853 25.6931 11.9335 25.6413 11.7694C25.4902 11.2914 25.2475 10.7148 24.9259 10.3921C25.0606 11.292 25.8862 12.1182 25.7701 13.0385C25.5599 12.8439 25.4288 12.4642 25.2843 12.1817C25.1995 12.0157 25.1544 11.9037 25.0772 11.7459C24.9822 11.552 24.9576 11.4375 24.7975 11.3798C24.8449 11.6288 25.5338 13.5845 25.437 13.7826C25.3118 13.6795 25.244 13.4538 25.1073 13.1546L24.4135 11.5603C24.3216 11.339 24.3718 11.3783 24.2087 11.3491C24.1142 11.5198 24.5165 12.2779 24.5875 12.4513C24.7365 12.8151 24.9047 13.1916 25.0436 13.5514C24.9437 13.5356 24.904 13.4662 24.8454 13.3652C24.7926 13.2742 24.7753 13.2311 24.7109 13.1251C24.6032 12.9479 24.5443 12.8433 24.4365 12.6547C24.3367 12.4803 24.2396 12.3253 24.1412 12.1526L23.9216 11.788C23.8712 11.727 23.8865 11.7466 23.8411 11.7099C23.7913 11.8031 23.7753 11.6775 23.8303 11.8784C24.006 12.5196 24.7915 13.1738 24.9204 14.1776L24.5822 13.7333C24.4903 13.5922 24.4056 13.4634 24.3085 13.3149C24.1644 13.0947 23.9407 12.5734 23.6669 12.5627C23.7269 13.1589 24.6581 13.8671 24.7492 14.9147L23.8719 13.7513C23.7684 13.6024 23.6987 13.479 23.553 13.401C23.7234 14.0154 24.3826 14.7953 24.5496 15.3905C24.3395 15.3355 24.4751 15.4058 24.3377 15.2519L23.9378 14.6952C23.8447 14.5677 23.7548 14.4631 23.6617 14.3345C23.5554 14.1879 23.5186 14.0611 23.3624 14.0062C23.2792 14.1708 23.4857 14.3948 23.5707 14.5317C23.6824 14.7117 23.7936 14.8781 23.8974 15.0548C24.0905 15.3832 24.3291 15.8346 24.3805 16.2977C23.9037 15.9111 23.6535 15.1627 23.1636 14.8124C23.1673 14.9961 23.611 15.9814 23.7099 16.2057C23.4479 16.2224 23.3468 15.6161 23.1379 15.505L23.8521 17.3612C23.6199 17.2504 23.2996 16.6051 23.2174 16.3513L23.1776 16.5678C23.1782 16.5747 23.2164 16.7211 23.2218 16.7408C23.2557 16.8648 23.2878 16.9974 23.3187 17.1258C23.3654 17.3197 23.535 17.7258 23.3998 17.8896C23.2788 17.4587 23.0131 16.9789 22.8238 16.5549C22.6367 16.1361 22.7793 16.2372 22.5252 16.176L22.8509 18.2999C22.6714 18.2257 22.8093 18.3926 22.6898 18.1235C22.6795 18.1003 22.6417 17.9659 22.6276 17.9207C22.5825 17.7769 22.5401 17.659 22.4958 17.5211C22.4181 17.2789 22.3663 16.9142 22.1774 16.7383C22.2379 17.2866 22.398 17.8433 22.432 18.3914C22.4412 18.5404 22.4447 18.3428 22.4258 18.5035C22.4251 18.5097 22.4169 18.5413 22.4162 18.5347C22.4155 18.5282 22.4099 18.5554 22.4049 18.5649C22.2047 18.25 22.1676 17.5424 21.9261 17.2997C21.9483 17.6243 22.0378 18.0161 22.0954 18.348C22.126 18.5247 22.1596 18.7184 22.1918 18.8934C22.2307 19.1054 22.2893 19.2381 22.1921 19.3657C22.0214 19.142 21.9521 18.6346 21.8356 18.3669C21.6967 18.4801 21.7316 18.4894 21.6817 18.6951C21.6157 18.9666 21.5569 19.5544 21.341 19.6975C21.2627 19.5359 21.3037 19.6671 21.3064 19.5133C21.3146 19.0458 21.5405 18.5182 21.429 18.0628C21.3277 18.1804 21.2917 18.313 21.228 18.4576C21.1665 18.5971 21.13 18.75 20.9815 18.7734C21.0504 18.4506 21.326 17.7506 21.3168 17.4771C21.1402 17.6874 20.9943 18.0304 20.8288 18.1844C20.7834 17.2853 21.475 17.156 21.5926 16.5633C21.4167 16.5797 21.4807 16.5709 21.3551 16.7203L20.7749 17.3315C20.8978 16.5184 21.8865 15.9938 21.8486 15.6683C21.7 15.6943 21.7303 15.7365 21.6121 15.8614C21.5207 15.9579 21.4542 16.0002 21.3676 16.0946C21.2116 16.2642 21.1193 16.4496 20.9238 16.5598C20.9599 16.1506 21.1367 16.0003 21.343 15.8045C21.9127 15.2636 21.9196 14.9628 21.5598 15.3804C21.3318 15.6449 21.045 15.9232 20.7351 16.1047C21.0549 15.3513 21.8646 14.9489 22.044 14.5635C21.6612 14.6913 21.0926 15.2682 20.7517 15.3274C20.915 14.8518 21.7955 14.3179 22.2429 13.9933C22.4549 13.8394 22.368 13.966 22.4029 13.7688L21.2747 14.3298C21.5708 13.766 22.5046 13.4787 22.7888 12.9124C21.9198 13.0374 21.5645 13.9555 20.9927 14.2277C21.0926 13.9384 21.4632 13.5079 21.6589 13.3032C21.912 13.0382 22.1788 12.8158 22.3842 12.5302L21.9533 12.6921C22.0949 12.3985 23.1977 11.9422 23.2194 11.709C22.9975 11.6052 22.1509 12.2482 21.8852 12.2858C21.8937 12.0624 22.0524 12.0594 22.247 11.9218L23.117 11.3026C23.348 11.1375 23.4186 11.1806 23.4664 10.963C23.2152 10.8491 22.3182 11.5215 21.9496 11.4757L22.2914 11.1675C22.4321 11.0528 22.4825 10.9905 22.6423 10.8818C22.8288 10.755 23.3379 10.553 23.452 10.3779C23.2722 10.2856 22.3257 10.859 22.0162 10.9318C22.0679 10.7594 21.9846 10.8461 22.1909 10.6936C22.4688 10.4882 23.4388 9.95939 23.507 9.69998L22.612 10.0749C22.7924 9.58828 23.2777 9.36912 23.6732 9.05972L23.0824 9.26269C23.2541 8.86947 23.543 8.65756 23.4984 8.10719C23.2721 8.19876 22.9331 8.65925 22.7326 8.82065L23.0049 7.02005C22.7366 7.26585 22.4311 8.49016 22.1924 8.85315C22.186 8.84049 22.1815 8.82204 22.1796 8.81267L22.2573 8.15674C22.3 7.93678 22.3602 7.671 22.3893 7.44921C22.2596 7.49452 22.2106 7.60073 22.0963 7.78204C22.0164 7.90882 21.9752 8.03165 21.8414 8.06913C21.8966 7.87808 22.0263 7.62628 22.1155 7.42718C22.1959 7.2477 22.4063 6.97877 22.2994 6.82981C22.0812 7.10701 21.5614 8.25007 21.288 8.43255C21.1835 8.2022 21.6176 7.26124 21.6666 7.00226C21.5235 7.10423 20.7316 8.34193 20.6198 8.54499C20.6441 7.96328 20.9937 7.55937 21.1152 7.1226C20.3269 7.67891 20.071 8.80945 19.7986 9.0207C19.6773 8.79832 20.1359 8.06393 20.0801 7.77677C19.8134 7.96489 19.7519 8.445 19.5622 8.70353C19.4982 8.42099 19.9223 7.6956 20.0154 7.38092C19.7396 7.5421 19.5591 7.84177 19.4075 8.1249C19.2606 8.39925 19.1683 8.74291 19.0049 8.99149C19.021 8.66159 19.3226 7.94784 19.2689 7.78636C19.0647 7.91446 18.8244 8.71678 18.6693 8.97524C18.596 8.77073 18.7421 8.43373 18.7084 8.21223L18.6815 8.12915C18.6072 8.18836 18.6663 8.12505 18.6009 8.21977C18.2983 8.658 18.2431 9.31444 17.9368 9.73636C17.7801 9.49678 18.1621 8.71034 18.1212 8.36448L17.9508 8.47801C17.744 8.80374 17.354 9.67582 17.1014 9.83035C17.1547 9.50988 17.392 9.05957 17.3314 8.75323C17.152 8.83646 16.8015 9.56083 16.6695 9.80121L16.4348 10.1268C16.4751 9.84974 16.688 9.30215 16.6078 9.11381C16.1771 9.45996 16.0078 10.4024 15.5875 10.8192L15.8467 9.85714C15.6038 9.99358 15.5894 10.3727 15.3518 10.5253L15.5444 9.82383C15.1714 9.98252 14.9279 10.4078 14.5849 10.6344C14.7376 9.92214 15.5454 9.53279 15.7643 9.08834L15.4009 9.24278C15.5724 8.99625 15.8197 8.82695 16.1652 8.65874C16.4293 8.53013 16.905 8.35936 17.0937 8.19708C16.9229 8.10002 15.9473 8.62426 15.7388 8.68209C15.9536 8.21486 17.3388 7.73073 18.0122 7.47432L20.3598 6.44354L19.0409 6.80712C19.9378 6.03114 21.5795 6.10075 22.7695 5.60952C21.9078 5.44153 21.4277 5.76719 20.7118 5.85247C20.9824 5.63778 21.7964 5.49687 21.8986 5.32471L21.7781 5.29572C21.7651 5.2947 21.7497 5.29382 21.7359 5.29375L21.3292 5.36299C21.0089 5.42111 20.0759 5.65622 19.8004 5.6238C19.6688 5.60835 19.7729 5.63697 19.6919 5.58405C19.8772 5.52403 20.0982 5.4143 20.2825 5.32969C20.4658 5.24558 20.6938 5.18446 20.8332 5.03902C19.8255 5.05973 19.5061 5.41621 18.8009 5.69326C18.9343 5.24997 19.7595 4.85353 20.2533 4.71233C19.2244 4.7105 19.3216 4.82323 19.3215 4.51894L19.3198 4.44794C17.2757 4.4071 15.4822 4.84511 13.8077 5.55799C13.0022 5.90092 12.3217 6.24554 11.6329 6.68034C10.2395 7.55981 10.0178 7.88379 8.94357 8.88411C8.17931 9.59582 7.4324 10.8399 6.91738 11.7508C6.33465 12.7813 5.79891 14.1132 5.53708 15.3182C5.41703 15.8706 5.33139 16.1277 5.18148 16.6001L5.18126 16.6004Z" fill="#E6BCA4"/>
<path fill-rule="evenodd" clip-rule="evenodd" d="M15.7644 32.0521L22.6409 32.0525C21.8938 32.2767 22.0564 32.3169 21.0452 32.4383C19.8151 32.5859 16.5256 32.6534 15.7644 32.0521ZM21.0218 31.5388L14.479 31.5523C13.9458 31.5523 13.6689 31.4344 13.2645 31.2217C13.0429 31.1052 12.3405 30.848 12.2583 30.6502C12.6658 30.5967 24.7791 30.6011 25.9765 30.6346C25.5571 31.0422 24.473 31.497 23.9468 31.5494C23.1116 31.6326 21.9023 31.5389 21.0218 31.5389V31.5388ZM25.2772 30.2089L11.7661 30.2225C11.3991 30.2225 11.2523 30.0549 11.0244 29.8968L10.5576 29.5676C10.3905 29.4227 10.4722 29.576 10.4145 29.3487L27.8385 29.3484C27.6938 29.6168 27.2822 29.9912 26.8988 30.1403C26.5237 30.2862 25.7191 30.2089 25.2772 30.2089V30.2089ZM9.3558 28.4475L28.9638 28.4318C28.7966 28.599 28.7377 28.865 28.3017 28.9883C27.9409 29.0903 13.1846 29.0145 11.3406 29.0277C10.9998 29.0301 10.3678 29.0691 10.0718 28.988C9.61456 28.8627 9.53909 28.6078 9.3558 28.4475ZM8.74584 27.7401H29.5859C29.535 28.1486 29.1148 28.1512 28.6819 28.1487L11.0214 28.1379C10.5784 28.1379 10.1343 28.1349 9.69149 28.1383C9.20626 28.142 8.84115 28.1779 8.74592 27.7401H8.74584ZM31.0953 14.6166L30.1786 13.2975C29.9318 12.9769 29.9289 13.1037 29.9218 12.8939C30.241 12.9083 30.5224 13.304 30.6873 13.5324C30.9033 13.8317 31.07 14.1403 31.0953 14.6166ZM29.2957 8.83583C29.1413 9.01238 29.0731 9.11347 28.8492 9.22319L28.5558 8.44854L29.2957 8.8359V8.83583ZM23.7295 8.13166C23.7274 8.05773 23.9405 7.80542 24.1069 7.69906C24.1969 7.87283 24.2434 7.9562 24.0947 8.07713C23.7371 8.36787 23.7311 8.1329 23.7295 8.13166ZM5.18131 16.6005C5.33115 16.128 5.41679 15.8709 5.53691 15.3185C5.79874 14.1136 6.33448 12.7817 6.91721 11.7511C7.4323 10.8401 8.17914 9.59606 8.9434 8.88443C10.0177 7.8841 10.2393 7.56013 11.6327 6.68065C12.3216 6.24586 13.0021 5.90117 13.8075 5.55831C15.482 4.84543 17.2755 4.40741 19.3196 4.44826L19.3213 4.51926C19.3214 4.82355 19.2242 4.71082 20.2531 4.71265C19.7594 4.85385 18.9341 5.25029 18.8008 5.69358C19.506 5.41645 19.8253 5.06005 20.833 5.03933C20.6936 5.18485 20.4656 5.24597 20.2824 5.33C20.098 5.41462 19.8771 5.52434 19.6917 5.58437C19.7727 5.63729 19.6686 5.60867 19.8002 5.62411C20.0757 5.65647 21.0088 5.42135 21.329 5.36331L21.7357 5.29406C21.7495 5.29414 21.7649 5.29501 21.7779 5.29604L21.8984 5.32503C21.7963 5.49711 20.9822 5.63802 20.7116 5.85278C21.4275 5.76751 21.9077 5.44185 22.7694 5.60984C21.5793 6.10107 19.9375 6.03139 19.0407 6.80743L20.3597 6.44386L18.0121 7.47463C17.3386 7.73105 15.9534 8.21525 15.7387 8.6824C15.9471 8.62465 16.9227 8.10033 17.0936 8.19739C16.9048 8.35975 16.4292 8.53044 16.165 8.65905C15.8195 8.82726 15.5722 8.99657 15.4007 9.2431L15.7642 9.08865C15.5452 9.53311 14.7374 9.92245 14.5847 10.6347C14.9277 10.408 15.1713 9.98284 15.5442 9.82415L15.3516 10.5256C15.5893 10.3731 15.6036 9.99389 15.8466 9.85745L15.5873 10.8195C16.0077 10.4027 16.1769 9.46028 16.6076 9.11413C16.6878 9.30246 16.4748 9.85006 16.4346 10.1271L16.6693 9.80153C16.8013 9.56115 17.1518 8.8367 17.3312 8.75355C17.3918 9.05989 17.1545 9.5102 17.1012 9.83066C17.3538 9.67621 17.7439 8.80406 17.9507 8.47833L18.1211 8.3648C18.1618 8.71066 17.78 9.4971 17.9366 9.73668C18.2429 9.31476 18.2981 8.65832 18.6007 8.22008C18.6661 8.12537 18.607 8.18861 18.6813 8.12946L18.7083 8.21254C18.7419 8.43404 18.5959 8.77105 18.6692 8.97556C18.8243 8.71703 19.0645 7.91477 19.2687 7.78668C19.3225 7.94815 19.0209 8.66191 19.0048 8.99181C19.1682 8.74323 19.2605 8.39964 19.4074 8.12522C19.559 7.84209 19.7395 7.54249 20.0153 7.38123C19.922 7.69591 19.498 8.42131 19.562 8.70385C19.7517 8.44531 19.8132 7.96521 20.0799 7.77709C20.1357 8.06425 19.6771 8.79864 19.7984 9.02102C20.0708 8.80977 20.3267 7.6793 21.1151 7.12292C20.9936 7.55962 20.6439 7.96352 20.6196 8.5453C20.7314 8.34225 21.5234 7.10454 21.6664 7.00258C21.6174 7.26163 21.1834 8.20252 21.2878 8.43287C21.5612 8.25039 22.081 7.10725 22.2992 6.83013C22.4061 6.97908 22.1957 7.24801 22.1153 7.42749C22.0262 7.62659 21.8964 7.87832 21.8413 8.06944C21.975 8.03196 22.0162 7.90914 22.0962 7.78236C22.2104 7.60112 22.2593 7.49491 22.3891 7.44953C22.36 7.67139 22.2998 7.9371 22.2571 8.15706L22.1795 8.81299C22.1814 8.82243 22.1858 8.84088 22.1922 8.85347C22.4309 8.49048 22.7364 7.26624 23.0047 7.02037L22.7325 8.82097C22.933 8.65964 23.2719 8.19908 23.4982 8.10751C23.5429 8.65788 23.2539 8.86979 23.0822 9.26301L23.6731 9.06003C23.2775 9.36944 22.7922 9.5886 22.6118 10.0752L23.5068 9.7003C23.4386 9.95971 22.4687 10.4885 22.1907 10.694C21.9845 10.8464 22.0678 10.7598 22.016 10.9321C22.3256 10.8592 23.2721 10.2859 23.4518 10.3782C23.3378 10.5533 22.8286 10.7552 22.6421 10.8822C22.4823 10.9909 22.4319 11.0531 22.2912 11.1678L21.9494 11.476C22.318 11.5218 23.215 10.8494 23.4663 10.9633C23.4184 11.1809 23.3478 11.1378 23.1168 11.3029L22.2469 11.9221C22.0522 12.0597 21.8935 12.0627 21.8851 12.2861C22.1508 12.2485 22.9973 11.6055 23.2192 11.7094C23.1976 11.9425 22.0948 12.3988 21.9531 12.6924L22.384 12.5305C22.1786 12.8162 21.9118 13.0386 21.6587 13.3035C21.4631 13.5082 21.0925 13.9387 20.9925 14.228C21.5643 13.9558 21.9196 13.0378 22.7887 12.9127C22.5045 13.4791 21.5707 13.7663 21.2745 14.3301L22.4028 13.7691C22.3679 13.9663 22.4548 13.8396 22.2427 13.9936C21.7953 14.3182 20.9148 14.8522 20.7515 15.3277C21.0925 15.2685 21.6611 14.6915 22.0438 14.5638C21.8644 14.9493 21.0547 15.3516 20.735 16.1051C21.0449 15.9235 21.3317 15.6452 21.5596 15.3807C21.9195 14.9631 21.9126 15.2639 21.3428 15.8048C21.1365 16.0006 20.9598 16.151 20.9236 16.5601C21.1191 16.45 21.2115 16.2645 21.3674 16.0949C21.4541 16.0005 21.5206 15.9582 21.6119 15.8617C21.7302 15.7368 21.6999 15.6946 21.8485 15.6686C21.8863 15.9942 20.8977 16.5187 20.7747 17.3318L21.355 16.7207C21.4805 16.5713 21.4166 16.58 21.5925 16.5636C21.4749 17.1563 20.7833 17.2856 20.8287 18.1848C20.9942 18.0307 21.1401 17.6877 21.3166 17.4774C21.3257 17.7509 21.0502 18.451 20.9813 18.7737C21.1298 18.7504 21.1663 18.5975 21.2278 18.4579C21.2916 18.3132 21.3275 18.1807 21.4288 18.0631C21.5404 18.5185 21.3145 19.0461 21.3062 19.5136C21.3035 19.6675 21.2626 19.5362 21.3408 19.6978C21.5568 19.5547 21.6155 18.967 21.6815 18.6954C21.7314 18.4897 21.6965 18.4803 21.8354 18.3672C21.9519 18.6349 22.0213 19.1422 22.192 19.366C22.2892 19.2384 22.2305 19.1058 22.1916 18.8937C22.1595 18.7187 22.1259 18.525 22.0952 18.3484C22.0377 18.0165 21.9481 17.6247 21.926 17.3C22.1674 17.5426 22.2046 18.2503 22.4047 18.5652C22.4097 18.5557 22.4153 18.5286 22.416 18.535C22.4168 18.5416 22.4249 18.5101 22.4256 18.5038C22.4446 18.3432 22.4411 18.5407 22.4318 18.3918C22.3977 17.8435 22.2377 17.2868 22.1772 16.7387C22.3661 16.9146 22.4179 17.2793 22.4957 17.5214C22.54 17.6593 22.5823 17.7772 22.6274 17.921C22.6416 17.9663 22.6794 18.1007 22.6896 18.1239C22.8091 18.3929 22.6712 18.226 22.8508 18.3002L22.525 16.1763C22.7792 16.2375 22.6366 16.1364 22.8236 16.5552C23.0129 16.9792 23.2785 17.459 23.3996 17.8899C23.5348 17.7261 23.3651 17.32 23.3186 17.1261C23.2877 16.9977 23.2556 16.8651 23.2216 16.7411C23.2162 16.7214 23.178 16.575 23.1774 16.5681L23.2173 16.3517C23.2993 16.6055 23.6197 17.2508 23.852 17.3615L23.1378 15.5053C23.3467 15.6164 23.4477 16.2228 23.7097 16.206C23.6109 15.9817 23.1671 14.9965 23.1635 14.8127C23.6533 15.1631 23.9035 15.9114 24.3803 16.298C24.3289 15.835 24.0903 15.3835 23.8973 15.0551C23.7934 14.8784 23.6823 14.712 23.5705 14.532C23.4855 14.3951 23.279 14.1712 23.3622 14.0065C23.5183 14.0614 23.5551 14.1881 23.6615 14.3348C23.7547 14.4633 23.8445 14.5679 23.9377 14.6955L24.3376 15.2522C24.4749 15.4062 24.3393 15.3358 24.5494 15.3909C24.3824 14.7956 23.7232 14.0157 23.5528 13.4013C23.6985 13.4793 23.7682 13.6027 23.8717 13.7517L24.7491 14.915C24.6579 13.8675 23.7267 13.1592 23.6667 12.563C23.9405 12.5738 24.1642 13.095 24.3083 13.3153C24.4055 13.4636 24.4902 13.5925 24.582 13.7336L24.9202 14.1779C24.7914 13.1742 24.0059 12.52 23.8301 11.8787C23.7751 11.6778 23.7911 11.8034 23.841 11.7102C23.8864 11.7469 23.871 11.7273 23.9214 11.7883L24.141 12.1529C24.2394 12.3255 24.3365 12.4805 24.4363 12.655C24.5441 12.8436 24.603 12.9482 24.7107 13.1254C24.7752 13.2314 24.7926 13.2745 24.8453 13.3655C24.9038 13.4665 24.9435 13.5359 25.0435 13.5518C24.9045 13.1919 24.7363 12.8155 24.5873 12.4517C24.5163 12.2783 24.114 11.5202 24.2085 11.3494C24.3716 11.3786 24.3214 11.3393 24.4133 11.5606L25.1071 13.155C25.2438 13.4541 25.3117 13.6799 25.4368 13.7829C25.5336 13.5848 24.8448 11.6292 24.7973 11.3801C24.9574 11.4377 24.9821 11.5523 25.077 11.7463C25.1542 11.904 25.1993 12.0161 25.2842 12.182C25.4286 12.4645 25.5597 12.8442 25.77 13.0388C25.8861 12.1185 25.0605 11.2923 24.9258 10.3924C25.2473 10.7151 25.49 11.2918 25.6411 11.7698C25.693 11.9338 25.7301 12.1857 25.8623 12.2957C25.9621 12.1471 25.8288 11.8894 25.7693 11.6942C25.6124 11.1797 25.2631 10.3739 25.2357 9.86316C25.5041 10.0983 25.9434 11.7048 26.2347 12.0154C26.2934 11.9191 26.2671 12.0405 26.2657 11.8761C26.2638 11.6573 26.1775 11.427 26.1341 11.2209L26.022 10.4258C26.1289 10.5511 26.1927 10.7323 26.2799 10.9166C26.3255 11.0128 26.3544 11.0875 26.392 11.176L26.5707 11.4632C26.6035 10.9017 26.4421 10.4945 26.204 10.0896C26.0857 9.88863 25.5938 9.16924 25.7561 8.93362L25.8327 9.02468C26.0483 9.34177 26.1778 9.71193 26.3481 10.0542C26.4702 10.2996 26.6696 10.8368 26.8537 11.0332C26.9661 11.1531 26.8266 11.079 26.9795 11.1094C27.041 10.9425 26.465 9.19054 26.3878 8.83165C26.5876 9.00286 26.7958 9.68331 26.8979 9.92728C27.0131 10.2024 27.1866 10.8441 27.4277 11.0302L26.8739 8.37036C27.3073 8.98259 27.4793 9.40135 27.5997 10.2986C27.9215 9.90759 27.6092 9.31403 27.7077 8.88941L27.9265 9.37683C28.0008 9.4979 27.907 9.35941 27.9755 9.44864C27.9852 9.46123 27.9969 9.47338 28.0063 9.4848L28.0421 8.91583C28.2299 9.08243 28.2495 9.3518 28.4981 9.43539C28.3889 9.02373 27.9568 8.45732 27.7795 8.02904C27.9563 8.14959 28.6378 8.9962 28.7097 9.3144C28.5876 9.6634 28.1561 9.93072 28.0104 10.3048C28.2235 10.2831 28.8164 9.66157 29.105 9.49915C29.0233 9.6981 28.8251 9.87919 28.6759 10.0546C28.5097 10.2502 28.3472 10.3499 28.2674 10.5787C28.5031 10.5541 28.7808 10.2338 29.0402 10.1243C28.9229 10.4173 28.2984 10.7942 28.1388 11.113C28.4617 11.0033 29.0212 10.5616 29.3051 10.5451C29.2905 10.9315 28.2256 11.1714 28.1192 11.528L29.0456 11.2392C28.6863 11.6154 28.0448 11.8213 27.8271 12.293L28.9968 11.6955C28.8651 11.9672 28.175 12.2902 27.9597 12.5459C28.2458 12.5842 28.8827 12.2019 29.2228 12.1248L29.1665 12.1862C28.7871 12.5545 28.3131 12.7151 28.0515 13.1854C28.2892 13.093 28.8175 12.7206 29.0309 12.733L27.9828 13.6154C27.8547 13.7215 27.6816 13.7905 27.6936 13.9727C27.9358 13.8905 28.2526 13.6531 28.5102 13.5248C28.3852 13.7729 28.2147 13.8947 28.0205 14.0787C27.8322 14.2571 27.7192 14.468 27.5865 14.6713C27.8771 14.6423 28.6524 13.8717 29.0629 13.7596C28.8406 14.2559 28.0441 14.433 27.8928 15.157C28.2632 14.9632 28.6667 14.4801 29.0438 14.3247C28.891 14.6578 28.0402 15.1825 28.0046 15.4701C28.2873 15.416 28.8492 14.8001 28.9419 14.9116C28.9915 15.0378 28.0909 15.821 27.9869 16.0887C28.2977 15.9906 28.8326 15.462 29.0926 15.241C28.8152 15.8169 28.1592 16.0849 28.0608 16.9131C28.3435 16.6988 28.6086 16.2823 28.8632 15.9857C29.009 15.8159 29.0022 15.6928 29.176 15.7331L29.1739 15.7933C29.0779 16.1442 28.1505 16.8831 28.586 16.9342C28.6449 16.9198 28.6781 16.8347 28.7263 16.7578C28.8285 16.5949 28.803 16.5904 28.9564 16.4934C28.866 16.8574 28.3787 17.3316 28.3259 17.6469C28.5257 17.5706 28.565 17.4181 28.7839 17.2966L28.4289 17.9805C28.7719 17.8748 28.9868 17.1627 29.3085 17.1482C29.23 17.4242 28.892 17.6093 28.7641 17.9519C29.1613 17.8098 29.1333 17.5548 29.492 17.4434C29.3797 17.7959 28.9221 18.233 28.7516 18.6069C29.0418 18.5869 29.1029 18.2372 29.4235 18.1022C29.3632 18.4281 29.1168 18.7312 28.995 19.0626C29.3018 18.9171 29.3239 18.5841 29.5957 18.4649L29.1755 19.4443L29.3676 19.3105C29.508 19.1728 29.3407 19.2643 29.5456 19.1455L29.2812 20.2143C29.4384 20.1191 29.4889 19.9493 29.5999 19.8141L29.7268 20.4216C29.847 20.2634 29.8393 19.8969 29.8817 19.6637C29.9169 19.7153 30.0093 19.818 30.0643 19.8972C30.1596 20.0346 30.2027 20.1173 30.3359 20.1801L30.0377 19.3384C30.288 19.3346 30.2479 19.5698 30.5042 19.6911C30.393 19.3377 30.0851 19.1642 29.9578 18.8238C30.2156 18.8705 30.2549 19.1532 30.5216 19.1861C30.4747 18.9896 30.1244 18.6595 29.9862 18.39C30.2185 18.5024 30.2782 18.6152 30.48 18.6876C30.3705 18.4011 29.9483 18.0478 29.8964 17.7665C29.8953 17.7611 29.8967 17.7425 29.8963 17.7382C29.8959 17.7339 29.8957 17.719 29.8986 17.71C30.0925 17.6742 30.2613 18.258 30.5395 18.4091L30.2086 17.7357C30.3799 17.8005 30.4103 17.8637 30.5887 17.9502L30.3861 17.0738C30.5591 17.1847 30.5246 17.2687 30.6602 17.2532C30.6931 17.1203 30.4861 16.9258 30.3705 16.7749C30.2598 16.6302 30.0556 16.4063 30.0111 16.2479C30.2598 16.4227 30.6068 16.8515 30.8594 16.9178C30.731 16.5844 30.2643 16.2807 30.0771 15.9272L30.4753 16.1635C30.3791 15.9909 30.2872 15.844 30.1793 15.6887C30.0542 15.5087 29.9171 15.375 29.8364 15.1487C30.0693 15.1843 30.1465 15.3776 30.3027 15.5648C30.4345 15.7227 30.566 15.9599 30.755 16.0137C30.6668 15.6412 30.135 15.1218 30.0075 14.7187C30.1826 14.7797 30.7036 15.2429 30.8201 15.3654C30.9837 15.1174 30.7463 15.2494 31.0527 15.1855L30.158 13.8425C30.0288 13.6061 30.081 13.7573 30.1307 13.6811C30.1965 13.6673 30.5918 14.2149 30.6837 14.3335C30.8038 14.4886 30.8272 14.5336 30.9564 14.7C31.052 14.8232 31.1713 15.0066 31.3039 15.0811C31.1473 14.6743 31.0609 14.891 31.1511 14.4013C31.2014 14.1278 31.1347 13.9134 31.0327 13.6671C30.8561 13.2407 30.6288 13.0762 30.4055 12.7471L30.3719 12.592C30.553 12.619 31.0325 13.3229 31.1625 13.4832C31.1845 13.5102 31.2887 13.6385 31.3056 13.6563C31.4791 13.8385 31.2956 13.7285 31.5116 13.8042C31.2792 13.2095 30.6938 12.6605 30.4896 12.0645C30.72 12.1202 31.0378 12.6811 31.1779 12.8807C31.2841 13.0321 31.2791 13.0733 31.4575 13.1692C31.3706 12.9244 31.1363 12.6208 31.1344 12.4118C31.39 12.5246 31.5124 12.781 31.7426 12.7483C31.6781 12.5965 31.4901 12.4515 31.3661 12.3209C31.1833 12.1281 31.1287 12.0677 30.9727 11.8637C30.7565 11.5811 30.4761 11.1401 30.4052 10.7106C30.5792 11.0083 31.1158 11.8353 31.3261 12.0083C31.4225 11.8579 31.2894 11.7531 31.1761 11.5559C31.1021 11.4273 30.9567 11.1709 30.9222 11.0281C31.1224 11.0636 31.0883 11.1599 31.1959 11.3755C31.2726 11.5291 31.3377 11.6436 31.4161 11.7918C31.5621 12.0677 31.7148 12.3301 31.8579 12.6268C32.462 13.8797 32.8598 15.2562 33.0438 16.6582C33.1603 17.5453 33.328 18.2096 32.7773 18.7892C32.6817 18.7435 32.7572 18.7888 32.6765 18.7261C32.651 18.7062 32.614 18.6727 32.5906 18.6502C32.1733 18.2458 31.517 18.0056 31.251 18.758C31.5766 18.61 31.9736 18.5168 32.1495 18.9033C31.3417 18.847 31.4756 18.8509 31.2319 19.4717C31.0637 19.9002 30.8042 20.0136 30.6944 20.4385C30.9056 20.3697 31.0572 20.2925 31.2612 20.194C31.3586 20.1469 32.0892 19.8014 31.6787 20.1748C31.5681 20.2754 31.5798 20.2375 31.4854 20.3649C31.3773 20.5109 31.3147 20.6802 31.3029 20.9107L31.9767 20.3277C31.9332 20.5544 31.8498 20.7215 31.792 20.9365C31.7289 21.1711 31.7361 21.4978 31.873 21.6496C32.0439 21.4084 32.0915 21.0571 32.2814 20.8817C32.4014 21.0316 32.406 21.4466 32.4259 21.6897C32.6343 21.4806 32.6667 21.1132 32.7657 20.8453C32.8703 20.5626 32.784 20.6826 32.9369 20.6403C33.1199 21.0942 32.0259 24.7546 31.3793 25.0445C30.976 25.2253 30.1918 25.4582 29.6967 25.326C29.6191 24.7849 29.7046 24.3031 29.5725 23.6875C29.4537 23.1343 29.2772 22.8205 29.1123 22.3568L30.0409 22.4192C29.9179 22.2413 29.6778 22.1821 29.4968 22.0402C29.6614 21.9767 29.8877 21.9705 30.018 21.8543C29.5611 21.5692 29.5227 21.7205 29.0329 21.872C29.0994 21.6476 29.2404 21.514 29.24 21.3121C28.8425 21.29 28.9523 21.4845 28.7765 21.8053C28.3967 21.7993 28.1653 21.5791 27.9395 21.9216L28.4794 22.0547C28.1748 22.1892 27.7069 22.3654 28.0431 22.7931C28.1875 22.5659 27.9999 22.5238 28.3777 22.4939L28.2991 23.4961C28.4836 23.4118 28.5639 22.9416 28.6421 22.7935C28.7028 22.8962 28.7672 23.0207 28.8347 23.1492C28.8728 23.2217 28.8859 23.2573 28.9216 23.3264L29.0796 23.4499C29.1404 23.0602 29.0708 23.7575 29.0931 23.3626L29.0793 22.896C29.0819 22.8826 29.0896 22.8636 29.0922 22.8529C29.0947 22.8424 29.0999 22.8238 29.1069 22.8107C29.4089 23.2391 29.6062 24.688 29.4303 25.1228C29.3051 25.4321 28.7321 25.363 28.3799 25.4074C27.9261 25.4645 27.6276 25.5994 27.1473 25.4247C26.6562 25.246 25.7711 24.7667 25.3661 24.4911C24.9366 24.1989 24.6143 23.8286 24.3137 23.4688C24.159 23.2837 24.0009 23.2769 24.1058 23.1011C24.1634 23.0409 24.0776 22.9815 24.4657 23.1567C24.6468 23.2386 24.7134 23.2792 24.9088 23.302C24.7805 22.9853 24.446 22.7482 24.3372 22.4727L25.3946 22.4671C25.0556 21.8773 24.6466 22.2988 24.2782 22.028C24.3475 21.8562 24.5269 21.8508 24.7377 21.7553C24.9145 21.6752 25.0771 21.6046 25.2214 21.5143L24.1542 21.512C24.1961 21.3335 24.2975 21.2094 24.213 21.048C23.9919 21.185 23.6947 21.517 23.5227 21.7C23.3671 21.5368 23.2382 21.0672 23.1638 20.8412L23.029 21.1108C22.9917 21.2269 22.9632 21.3445 22.9393 21.4722C22.6068 21.4001 22.3448 21.1505 22.0943 21.4429C22.2141 21.5938 22.4062 21.6607 22.5536 21.7875C22.5607 21.7936 22.5744 21.8065 22.5842 21.8166C22.2464 21.8551 21.8209 21.8849 21.7925 22.2141L22.2256 22.2579C21.9819 22.5071 21.6933 22.5116 21.6648 22.9811C21.9072 22.9007 22.3658 22.6362 22.5372 22.7465C22.5219 22.9084 22.5143 22.8165 22.3838 22.9617C22.3136 23.04 22.2641 23.103 22.2186 23.2254C22.1272 23.4713 22.1483 23.7339 22.1908 23.9984C22.3157 23.8676 22.4158 23.7128 22.536 23.5429L22.8837 23.0726C22.8756 23.3398 22.7545 24.1338 22.8833 24.2912C23.0772 24.1179 23.1148 23.5899 23.2556 23.3479C23.2627 23.3597 23.2721 23.3647 23.2749 23.3845C23.2776 23.4041 23.2898 23.4126 23.2934 23.421L23.4956 24.0215C23.6002 24.2844 23.697 24.3784 23.9448 24.4747C23.9314 24.2774 23.9107 24.0914 23.8883 23.8958L23.8558 23.4722C23.8714 23.356 23.855 23.4108 23.894 23.3387C24.0679 23.4083 24.0705 23.4905 24.2072 23.6836C24.9273 24.7019 25.844 25.2238 27.0149 25.718C26.6848 25.8991 26.0771 26.0864 25.6687 26.1699C24.6348 26.4679 23.6504 26.3952 22.5621 26.3988C22.0037 26.4007 21.1308 26.8328 19.8127 26.9824C17.4488 27.2506 12.6349 27.1313 9.9042 27.1207C9.55322 27.1193 8.56863 27.1553 8.29677 27.0911C7.46187 26.8939 5.1606 21.9272 5.62541 21.5246C6.09512 21.3152 6.72411 21.703 7.19404 21.7731C7.30523 21.4315 7.71734 20.956 7.98195 20.798C8.71649 20.3592 9.97762 20.778 10.232 21.8048C10.391 22.4469 10.1318 22.7663 9.91167 23.1899C11.0653 22.6721 10.9387 23.1397 11.2872 23.7293C12.0216 23.8045 12.4409 23.736 12.8149 24.2775C13.1145 24.7112 13.0093 25.5591 12.8476 26.0885C12.6576 26.1367 11.7962 26.318 11.6505 26.3152C11.1963 26.3063 11.6953 25.955 10.5655 25.9334C10.3555 25.6185 10.3356 25.0221 9.55922 24.4466C9.00306 24.0344 8.3718 23.8367 7.69025 24.2373C8.72571 24.2136 9.65804 24.3313 10.1078 25.3337C10.2359 25.6194 10.2815 26.0696 10.3829 26.2847C11.271 26.1183 10.9799 26.1645 11.5 26.6746C12.3608 26.3007 12.2903 26.1898 13.3799 26.4367C13.2158 26.2128 12.9145 26.1834 13.0232 25.6794C13.0983 25.3315 13.3269 25.0959 13.546 24.9773C14.6062 24.4033 14.8953 25.5639 15.0036 25.7141C14.9601 24.9407 15.1672 24.3319 16.0424 24.2388C16.7392 24.1648 17.3556 24.5424 17.3399 25.4674C17.5666 25.2285 17.5506 24.7296 18.1558 24.9467C18.4439 25.05 18.8315 25.482 19.0434 25.474C19.3562 25.4622 19.7824 25.0865 20.2259 25.4314C20.5731 25.7013 20.5649 25.9452 20.8087 26.2748C20.9955 25.9782 21.4148 24.2486 23.0654 25.3027C23.2847 25.4428 23.3118 25.5544 23.5426 25.4597C24.1494 25.2106 24.3368 25.5181 24.6416 25.7545L24.6008 25.5421C24.4343 25.4222 24.3854 25.2769 24.1753 25.2045C23.8606 25.0961 23.7307 25.2307 23.4654 25.2271C23.2712 25.2244 22.7509 24.883 22.3718 24.8039C21.3904 24.686 21.2555 25.2102 20.8087 25.4905C19.7264 25.0896 20.168 25.0884 18.8937 25.2799C18.3125 24.6212 18.6115 24.6681 17.4452 24.794C17.2569 24.3686 16.8181 24.0081 16.1267 24.038C15.2507 24.0758 15.0409 24.6271 14.7979 24.8521C14.0198 24.5042 13.9925 24.5996 13.2373 24.8663C13.0242 23.8198 12.5399 23.5497 11.3739 23.5674C11.1438 22.8093 11.1694 22.9602 10.4893 22.6893C10.1578 21.8625 10.9104 21.2982 9.21973 20.5028C7.79441 20.2505 7.72941 20.8007 7.01171 21.5775C6.43388 21.0829 6.17695 21.2821 5.45317 21.3309L5.23724 20.1999C4.3145 20.9237 6.1009 24.6729 6.47048 25.4095C6.8506 26.1672 7.40851 26.9329 7.86995 27.5197C8.13815 27.8608 8.41374 28.1579 8.68736 28.4581C10.0096 29.9092 12.1103 31.2845 13.922 32.001C17.6247 33.4653 21.9755 33.3321 25.5111 31.5206C27.3162 30.5957 27.3846 30.4229 28.6659 29.407C29.4348 28.7974 30.5564 27.4268 31.1232 26.5982C31.5559 25.9655 32.0323 25.1292 32.3747 24.3391C37.3817 12.7847 26.3922 0.419874 14.0114 4.96431C13.1656 5.27474 12.3342 5.6826 11.6465 6.10927C10.8417 6.60863 10.3276 6.98713 9.64069 7.61349C7.23862 9.80387 5.01047 13.3795 4.88281 16.9987C5.10233 16.8194 5.06537 16.7143 5.18124 16.6008L5.18131 16.6005Z" fill="#694412"/>
<path fill-rule="evenodd" clip-rule="evenodd" d="M25.668 26.1698C25.7556 25.6118 25.0072 25.2162 24.6002 25.5419L24.6411 25.7544C24.3363 25.5179 24.1488 25.2104 23.5421 25.4595C23.3113 25.5542 23.2842 25.4426 23.0648 25.3025C21.4143 24.2484 20.9949 25.9781 20.8082 26.2747C20.5644 25.945 20.5726 25.7012 20.2254 25.4312C19.7819 25.0863 19.3556 25.462 19.0429 25.4738C18.8309 25.4818 18.4433 25.0498 18.1553 24.9465C17.5501 24.7294 17.5659 25.2283 17.3393 25.4672C17.3551 24.5422 16.7387 24.1646 16.0418 24.2386C15.1667 24.3317 14.9596 24.9405 15.0031 25.714C14.8947 25.5637 14.6057 24.4031 13.5455 24.9771C13.3263 25.0957 13.0977 25.3314 13.0227 25.6792C12.914 26.1832 13.2152 26.2126 13.3793 26.4365C12.2898 26.1895 12.3602 26.3006 11.4994 26.6745C10.9794 26.1643 11.2704 26.1182 10.3824 26.2845C10.2809 26.0693 10.2354 25.6192 10.1072 25.3335C9.65755 24.3311 8.72522 24.2134 7.68969 24.2371C8.37124 23.8365 9.0025 24.0342 9.55866 24.4465C10.335 25.0219 10.3551 25.6183 10.5649 25.9333C11.6947 25.9548 11.1957 26.3061 11.6499 26.315C11.7957 26.3178 12.657 26.1365 12.8471 26.0884C13.0088 25.559 13.114 24.7111 12.8144 24.2773C12.4402 23.7358 12.021 23.8043 11.2866 23.7291C10.9381 23.1395 11.0647 22.6719 9.91111 23.1897C10.1312 22.7661 10.3905 22.4467 10.2314 21.8047C9.97698 20.7778 8.71593 20.359 7.98138 20.7978C7.7167 20.9559 7.3046 21.4313 7.19348 21.7729C6.72355 21.7028 6.09448 21.315 5.62484 21.5245C5.16004 21.9269 7.46131 26.8936 8.29621 27.0909C8.56807 27.1551 9.55266 27.1191 9.90364 27.1205C12.6344 27.1311 17.4482 27.2504 19.8121 26.9822C21.1303 26.8326 22.0031 26.4005 22.5615 26.3987C23.6498 26.3951 24.6342 26.4677 25.6681 26.1698L25.668 26.1698Z" fill="#EEECEB"/>
<path fill-rule="evenodd" clip-rule="evenodd" d="M9.2198 20.5023C10.9105 21.2977 10.1579 21.8619 10.4893 22.6888C11.1695 22.9596 11.1439 22.8088 11.374 23.5669C12.5401 23.5492 13.0243 23.8193 13.2373 24.8658C13.9926 24.5991 14.0198 24.5037 14.798 24.8516C15.041 24.6266 15.2507 24.0752 16.1268 24.0375C16.8182 24.0076 17.257 24.3681 17.4453 24.7935C18.6116 24.6676 18.3125 24.6206 18.8938 25.2794C20.168 25.0879 19.7265 25.0891 20.8087 25.49C21.2556 25.2097 21.3904 24.6856 22.3719 24.8034C22.369 24.206 22.1027 23.865 21.491 23.9247C21.3959 23.9295 20.7519 23.3243 20.009 23.3158C19.2348 23.3069 18.8732 23.7193 18.4799 23.8783C18.0797 23.2231 18.0945 23.166 17.1779 23.2647C16.6813 21.6346 15.1935 22.2705 14.8113 22.303C14.7597 20.8407 13.8911 20.0389 12.6266 20.2836C12.1643 20.3731 11.9444 20.5808 11.5865 20.6765C11.4253 20.2394 11.156 20.0232 10.5758 19.9507C10.6241 19.9032 10.6064 19.8937 10.7294 19.8404C10.7335 19.7175 10.8579 19.7694 10.5504 19.72C10.322 19.6834 9.97081 19.7628 9.76513 19.8661C9.52965 19.9843 9.29578 20.2151 9.21973 20.5024L9.2198 20.5023Z" fill="#EEECEB"/>
<path fill-rule="evenodd" clip-rule="evenodd" d="M5.28444 16.9869C4.84679 17.6239 4.44932 18.1564 4.21172 19.1006C4.06013 19.703 3.84661 21.4784 4.16553 21.9779L5.16366 19.6372C5.49327 18.7581 6.12863 18.0986 6.78544 17.686C7.24615 17.3966 8.9939 16.7237 9.65407 17.0103C9.97666 17.1503 10.1767 17.4209 10.8913 17.5796C11.4034 17.6932 12.1625 17.5968 12.5267 17.7543C13.0289 17.9713 13.1404 18.433 13.582 18.5177C14.1102 18.6188 14.5929 18.1514 14.5864 17.7007C14.0168 17.3124 12.2623 17.3552 12.6548 16.0013C12.9586 14.9536 13.4512 14.1117 14.1208 13.6378C16.3221 12.08 19.943 13.1806 20.5719 12.7542C19.3824 12.3906 14.6171 12.3297 13.1349 12.6526C12.2982 12.8349 12.5382 13.5684 11.2133 14.7207C10.6278 15.23 10.7854 15.2476 9.85705 14.999C9.34759 14.8626 8.71304 14.7007 8.18023 14.6165L8.94244 16.0429C8.31835 16.2521 6.87445 16.4168 6.0487 16.5794C5.54942 16.6777 5.52856 16.7251 5.28444 16.9869V16.9869Z" fill="#67420E"/>
<path fill-rule="evenodd" clip-rule="evenodd" d="M25.2767 30.2089C25.7186 30.2089 26.5231 30.2862 26.8983 30.1403C27.2817 29.9912 27.6934 29.6167 27.8381 29.3484L10.4141 29.3488C10.4717 29.576 10.39 29.4228 10.5572 29.5676L11.0239 29.8968C11.2518 30.0549 11.3986 30.2225 11.7657 30.2225L25.2767 30.209V30.2089Z" fill="#A9D2AB"/>
<path fill-rule="evenodd" clip-rule="evenodd" d="M21.0213 31.5389C21.9017 31.5389 23.1112 31.6326 23.9464 31.5494C24.4726 31.497 25.5567 31.0422 25.976 30.6346C24.7786 30.6011 12.6654 30.5967 12.2578 30.6502C12.34 30.848 13.0425 31.1052 13.2641 31.2217C13.6685 31.4344 13.9453 31.5524 14.4786 31.5524L21.0213 31.5388V31.5389Z" fill="#A9D2AB"/>
<path fill-rule="evenodd" clip-rule="evenodd" d="M9.35547 28.4476C9.53876 28.6079 9.61422 28.8628 10.0715 28.9881C10.3674 29.0692 10.9994 29.0303 11.3402 29.0278C13.1842 29.0146 27.9405 29.0904 28.3013 28.9884C28.7374 28.8651 28.7963 28.5991 28.9635 28.4319L9.35547 28.4476Z" fill="#A9D2AB"/>
<path fill-rule="evenodd" clip-rule="evenodd" d="M8.74519 27.7402C8.84042 28.178 9.20553 28.1421 9.69076 28.1384C10.1337 28.1351 10.5777 28.138 11.0207 28.138L28.6811 28.1488C29.114 28.1513 29.5343 28.1488 29.5851 27.7402H8.74512H8.74519Z" fill="#A9D2AB"/>
<path fill-rule="evenodd" clip-rule="evenodd" d="M10.7288 19.841C10.6057 19.8942 10.6235 19.9038 10.5752 19.9512C11.1553 20.0237 11.4247 20.2399 11.5859 20.677C11.9438 20.5814 12.1638 20.3736 12.626 20.2842C13.8906 20.0395 14.7591 20.8412 14.8107 22.3036C15.1929 22.2711 16.6806 21.6351 17.1773 23.2653C18.0938 23.1665 18.079 23.2236 18.4793 23.8789C18.8726 23.7198 19.2342 23.3074 20.0084 23.3163C20.7513 23.3249 21.3953 23.93 21.4904 23.9253C20.8726 22.6374 19.4794 23.1378 18.5444 23.6536C18.1557 23.132 18.1417 22.9026 17.301 23.0779C16.7736 21.9918 16.4193 21.8223 14.9503 22.034C14.9472 21.0454 14.6039 20.5388 13.9419 20.2225C13.0071 19.7758 12.5008 20.0868 11.7044 20.3791C11.5077 19.9706 11.1873 19.7612 10.7288 19.841H10.7288Z" fill="#684310"/>
<path fill-rule="evenodd" clip-rule="evenodd" d="M15.7637 32.0518C16.5248 32.653 19.8143 32.5855 21.0445 32.4379C22.0556 32.3165 21.8931 32.2763 22.6401 32.0521L15.7637 32.0518Z" fill="#A9D2AB"/>
<path fill-rule="evenodd" clip-rule="evenodd" d="M31.0955 14.6163C31.0701 14.14 30.9035 13.8314 30.6875 13.5321C30.5225 13.3037 30.2411 12.908 29.9219 12.8936C29.929 13.1034 29.932 12.9766 30.1787 13.2972L31.0955 14.6163Z" fill="#E6BCA4"/>
<path fill-rule="evenodd" clip-rule="evenodd" d="M28.849 9.22321C29.073 9.11356 29.1411 9.01248 29.2956 8.83585L28.5557 8.44849L28.849 9.22314V9.22321Z" fill="#E6BCA4"/>
<path fill-rule="evenodd" clip-rule="evenodd" d="M23.7295 8.13182C23.7311 8.13306 23.7371 8.36803 24.0947 8.07729C24.2434 7.95636 24.1969 7.87299 24.1069 7.69922C23.9405 7.80558 23.7275 8.05789 23.7295 8.13182Z" fill="#E4BBA3"/>
</svg>
