<svg width="17" height="18" viewBox="0 0 17 18" fill="none" xmlns="http://www.w3.org/2000/svg">
<path id="Path" fill-rule="evenodd" clip-rule="evenodd" d="M0.85 8.9165L-2.22928e-07 5.5165L1.53 5.5165C1.615 5.5165 1.785 5.6015 1.87 5.6865L3.23 7.2165L7.31 7.2165L4.59 1.0115C4.42 0.756503 4.59 0.416503 4.93 0.416503L6.375 0.416503C6.63 0.416503 6.885 0.586503 7.055 0.756503L11.305 7.2165L15.3 7.2165C16.235 7.2165 17 7.9815 17 8.9165C17 9.8515 16.235 10.6165 15.3 10.6165L11.305 10.6165L7.055 17.0765C6.885 17.3315 6.63 17.4165 6.375 17.4165L4.93 17.4165C4.59 17.4165 4.42 17.0765 4.505 16.8215L7.225 10.6165L3.145 10.6165L1.785 12.1465C1.7 12.2315 1.615 12.3165 1.445 12.3165L-5.20166e-07 12.3165L0.85 8.9165Z" fill="#67420E"/>
</svg>
