<svg width="17" height="17" viewBox="0 0 17 17" fill="none" xmlns="http://www.w3.org/2000/svg">
<path fill-rule="evenodd" clip-rule="evenodd" d="M8.5 16.15L5.1 17L5.1 15.47C5.1 15.385 5.185 15.215 5.27 15.13L6.8 13.77L6.8 9.69L0.594998 12.41C0.339998 12.58 -2.16983e-06 12.41 -2.11039e-06 12.07L-1.85773e-06 10.625C-1.81315e-06 10.37 0.169998 10.115 0.339998 9.945L6.8 5.695L6.8 1.7C6.8 0.765001 7.565 1.32271e-06 8.5 1.48619e-06C9.435 1.64967e-06 10.2 0.765002 10.2 1.7L10.2 5.695L16.66 9.945C16.915 10.115 17 10.37 17 10.625L17 12.07C17 12.41 16.66 12.58 16.405 12.495L10.2 9.775L10.2 13.855L11.73 15.215C11.815 15.3 11.9 15.385 11.9 15.555L11.9 17L8.5 16.15Z" fill="white"/>
</svg>
