<svg width="31" height="24" viewBox="0 0 31 24" fill="none" xmlns="http://www.w3.org/2000/svg">
<path id="&#226;&#128;&#156;" d="M8.22367 23.6403C7.5169 23.9201 6.70753 24.0366 5.79557 23.99C4.8836 23.9434 4.04003 23.7102 3.26486 23.2906C2.51249 22.871 1.89692 22.3347 1.41813 21.682C-0.884578 18.5346 -0.382998 14.2216 2.92288 8.74295C4.40482 6.31835 5.81837 4.46492 7.16351 3.18267C9.44343 1.03783 10.8798 -0.0229375 11.4725 0.000376025C12.7949 0.0236896 13.6157 0.443333 13.9349 1.25931C13.6385 1.53907 13.2851 1.9354 12.8747 2.4483L11.6093 4.19681C9.10144 7.71716 7.72209 10.5614 7.4713 12.7296C9.68282 13.1026 11.1192 14.3382 11.7803 16.4364C12.2591 17.8819 12.1451 19.3273 11.4383 20.7727C10.7772 22.1482 9.70562 23.1041 8.22367 23.6403ZM25.2888 23.6403C24.582 23.9201 23.7727 24.0366 22.8607 23.99C21.9487 23.9434 21.1052 23.7102 20.33 23.2906C19.5776 22.871 18.9621 22.3347 18.4833 21.682C16.1806 18.5346 16.6821 14.2216 19.988 8.74295C21.47 6.31835 22.8835 4.46492 24.2287 3.18267C26.5086 1.03783 27.9449 -0.0229375 28.5377 0.000376025C29.86 0.0236896 30.6808 0.443333 31 1.25931C30.7036 1.53907 30.3502 1.9354 29.9398 2.4483L28.6745 4.19681C26.1666 7.71716 24.7872 10.5614 24.5364 12.7296C26.748 13.1026 28.1843 14.3382 28.8455 16.4364C29.3243 17.8819 29.2103 19.3273 28.5035 20.7727C27.8423 22.1482 26.7708 23.1041 25.2888 23.6403Z" fill="#67420E"/>
</svg>
