<svg width="30" height="30" viewBox="0 0 30 30" fill="none" xmlns="http://www.w3.org/2000/svg">
<g id="Group">
<path id="Path" fill-rule="evenodd" clip-rule="evenodd" d="M13.8498 9.23589C14.0658 8.79815 14.5115 8.521 14.9996 8.521C15.4877 8.521 15.9335 8.79815 16.1494 9.23589L17.0874 11.1373C17.2741 11.5158 17.6351 11.7781 18.0528 11.8388L20.1505 12.1437C20.6334 12.2139 21.0346 12.5521 21.1854 13.0161C21.3363 13.4802 21.2106 13.9896 20.8613 14.3303L19.343 15.8112C19.041 16.1058 18.9032 16.53 18.9746 16.9458L19.3329 19.0348C19.4154 19.5158 19.2177 20.0018 18.8229 20.2887C18.4282 20.5756 17.9048 20.6134 17.4728 20.3864L15.5961 19.4002C15.2227 19.2039 14.7766 19.2039 14.4031 19.4002L12.5264 20.3865C12.0944 20.6135 11.571 20.5757 11.1763 20.2888C10.7815 20.0019 10.5838 19.5158 10.6663 19.0349L11.0246 16.9458C11.0959 16.53 10.9582 16.1058 10.6562 15.8112L9.13791 14.3303C8.78861 13.9896 8.66297 13.4802 8.81382 13.0161C8.96466 12.5521 9.36583 12.2139 9.84869 12.1437L11.9465 11.8388C12.3641 11.7781 12.7252 11.5158 12.9119 11.1373L13.8498 9.23589Z" stroke="#67420E" stroke-width="1.5" stroke-linecap="round" stroke-linejoin="round"/>
<path id="Path_2" d="M26.2907 11.3313L25.0361 11.739" stroke="#67420E" stroke-width="1.5" stroke-linecap="round" stroke-linejoin="round"/>
<path id="Path_3" d="M4.96361 18.2611L3.70898 18.6686" stroke="#67420E" stroke-width="1.5" stroke-linecap="round" stroke-linejoin="round"/>
<path id="Path_4" d="M15 26.8751V25.5557" stroke="#67420E" stroke-width="1.5" stroke-linecap="round" stroke-linejoin="round"/>
<path id="Path_5" d="M15 3.125V4.44445" stroke="#67420E" stroke-width="1.5" stroke-linecap="round" stroke-linejoin="round"/>
<path id="Path_6" d="M21.9733 24.5977L21.1986 23.5312" stroke="#67420E" stroke-width="1.5" stroke-linecap="round" stroke-linejoin="round"/>
<path id="Path_7" d="M8.02671 5.40234L8.80142 6.46875" stroke="#67420E" stroke-width="1.5" stroke-linecap="round" stroke-linejoin="round"/>
<path id="Path_8" d="M3.70898 11.3313L4.96361 11.739" stroke="#67420E" stroke-width="1.5" stroke-linecap="round" stroke-linejoin="round"/>
<path id="Path_9" d="M26.2908 18.6687L25.0361 18.261" stroke="#67420E" stroke-width="1.5" stroke-linecap="round" stroke-linejoin="round"/>
<path id="Path_10" d="M21.9733 5.40234L21.1986 6.46875" stroke="#67420E" stroke-width="1.5" stroke-linecap="round" stroke-linejoin="round"/>
<path id="Path_11" d="M8.02671 24.5977L8.80142 23.5312" stroke="#67420E" stroke-width="1.5" stroke-linecap="round" stroke-linejoin="round"/>
</g>
</svg>
