<svg width="17" height="15" viewBox="0 0 17 15" fill="none" xmlns="http://www.w3.org/2000/svg">
<g id="iconmonstr-telegram-1">
<path id="telegram-1" fill-rule="evenodd" clip-rule="evenodd" d="M13.022 13.9845C13.2501 14.1457 13.544 14.186 13.8061 14.087C14.0682 13.9874 14.2608 13.7639 14.3189 13.4931C14.9344 10.6056 16.4276 3.297 16.9879 0.670373C17.0304 0.472403 16.9595 0.266657 16.8037 0.134441C16.6479 0.00222589 16.4318 -0.0359539 16.2392 0.0354565C13.2692 1.13277 4.12269 4.55835 0.38419 5.93919C0.146903 6.02686 -0.00750968 6.25453 0.000281807 6.50411C0.00878161 6.7544 0.177361 6.97146 0.420314 7.04428C2.0969 7.54486 4.29764 8.24129 4.29764 8.24129C4.29764 8.24129 5.32612 11.3416 5.86231 12.9183C5.92961 13.1163 6.08473 13.2718 6.28943 13.3256C6.49342 13.3786 6.71159 13.3227 6.86388 13.1792C7.72519 12.3675 9.05683 11.1126 9.05683 11.1126C9.05683 11.1126 11.5869 12.9643 13.022 13.9845ZM5.22266 7.84878L6.41192 11.7643L6.67612 9.28476C6.67612 9.28476 11.271 5.14791 13.8903 2.78995C13.9668 2.72066 13.9775 2.60471 13.9137 2.5234C13.8507 2.44209 13.7345 2.423 13.6474 2.47815C10.6115 4.4133 5.22266 7.84878 5.22266 7.84878Z" fill="#67420E"/>
</g>
</svg>
