<svg width="50" height="50" viewBox="0 0 50 50" fill="none" xmlns="http://www.w3.org/2000/svg">
<path fill-rule="evenodd" clip-rule="evenodd" d="M29.022 31.9845C29.2501 32.1457 29.544 32.186 29.8061 32.087C30.0682 31.9874 30.2608 31.7639 30.3189 31.4931C30.9344 28.6056 32.4276 21.297 32.9879 18.6704C33.0304 18.4724 32.9595 18.2667 32.8037 18.1344C32.6479 18.0022 32.4318 17.964 32.2392 18.0355C29.2692 19.1328 20.1227 22.5584 16.3842 23.9392C16.1469 24.0269 15.9925 24.2545 16.0003 24.5041C16.0088 24.7544 16.1774 24.9715 16.4203 25.0443C18.0969 25.5449 20.2976 26.2413 20.2976 26.2413C20.2976 26.2413 21.3261 29.3416 21.8623 30.9183C21.9296 31.1163 22.0847 31.2718 22.2894 31.3256C22.4934 31.3786 22.7116 31.3227 22.8639 31.1792C23.7252 30.3675 25.0568 29.1126 25.0568 29.1126C25.0568 29.1126 27.5869 30.9643 29.022 31.9845ZM21.2227 25.8488L22.4119 29.7643L22.6761 27.2848C22.6761 27.2848 27.271 23.1479 29.8903 20.79C29.9668 20.7207 29.9775 20.6047 29.9137 20.5234C29.8507 20.4421 29.7345 20.423 29.6474 20.4781C26.6115 22.4133 21.2227 25.8488 21.2227 25.8488Z" fill="#67420E"/>
</svg>
